<svg width="457" height="248" viewBox="0 0 457 248" fill="none" xmlns="http://www.w3.org/2000/svg">
<g clip-path="url(#clip0)">
<path d="M229.966 247.999C353.886 247.999 454.342 241.363 454.342 233.176C454.342 224.989 353.886 218.352 229.966 218.352C106.047 218.352 5.59058 224.989 5.59058 233.176C5.59058 241.363 106.047 247.999 229.966 247.999Z" fill="#F2F2F2"/>
<path d="M221.367 70.8939C184.81 70.8939 158.562 94.3 158.562 148.914C158.562 210.81 184.81 227.195 221.367 227.195C257.924 227.195 285.735 209.25 285.735 148.914C285.735 84.4174 257.924 70.8939 221.367 70.8939ZM221.607 206.649C196.287 206.649 183.059 191.825 183.059 148.954C183.059 111.127 196.828 91.1791 222.149 91.1791C247.469 91.1791 261.238 104.282 261.238 148.954C261.238 190.744 246.927 206.649 221.607 206.649Z" fill="#2F2E41"/>
<path d="M136.672 184.023H121.557V139.605C121.557 137.245 120.618 134.983 118.947 133.315C117.275 131.646 115.008 130.709 112.644 130.709H109.102C107.931 130.709 106.772 130.939 105.691 131.386C104.609 131.833 103.627 132.488 102.799 133.315C101.971 134.141 101.315 135.121 100.867 136.2C100.419 137.28 100.188 138.436 100.188 139.605V184.023H57.5546C56.6776 184.023 55.8154 183.797 55.0517 183.366C54.2881 182.936 53.6489 182.316 53.1962 181.566C52.7435 180.816 52.4926 179.962 52.468 179.088C52.4433 178.213 52.6456 177.346 53.0553 176.572L98.1782 91.3431C98.7408 90.2805 99.0818 89.1152 99.1806 87.9175C99.2794 86.7197 99.134 85.5144 98.7532 84.3743C98.3723 83.2342 97.7639 82.183 96.9647 81.284C96.1655 80.385 95.1921 79.6569 94.1031 79.1438L91.4394 77.8885C89.3711 76.9138 87.0064 76.7698 84.8347 77.4865C82.663 78.2031 80.8505 79.7255 79.7722 81.7386L24.7389 184.479C23.8017 186.228 23.3115 188.182 23.3115 190.165C23.3115 191.749 23.6241 193.318 24.2315 194.781C24.8389 196.245 25.7293 197.575 26.8516 198.695C27.974 199.815 29.3064 200.703 30.7729 201.309C32.2393 201.916 33.8111 202.228 35.3983 202.228H100.188V230.315C100.188 231.715 100.465 233.102 101.001 234.395C101.538 235.689 102.325 236.865 103.318 237.855C104.31 238.845 105.488 239.63 106.784 240.166C108.08 240.702 109.47 240.978 110.873 240.978H110.873C112.276 240.978 113.665 240.702 114.962 240.166C116.258 239.63 117.436 238.845 118.428 237.855C119.42 236.865 120.207 235.689 120.744 234.395C121.281 233.102 121.557 231.715 121.557 230.315V202.228H136.672C139.091 202.228 141.411 201.269 143.122 199.562C144.832 197.855 145.793 195.539 145.793 193.125C145.793 190.711 144.832 188.396 143.122 186.689C141.411 184.982 139.091 184.023 136.672 184.023Z" fill="#1A75FF"/>
<path d="M416.555 184.023H401.441V139.605C401.441 137.245 400.501 134.983 398.83 133.315C397.158 131.646 394.891 130.709 392.527 130.709H388.985C387.815 130.709 386.656 130.939 385.574 131.386C384.493 131.833 383.51 132.488 382.682 133.315C381.855 134.141 381.198 135.121 380.75 136.2C380.302 137.28 380.071 138.436 380.071 139.605V184.023H337.438C336.561 184.023 335.699 183.797 334.935 183.366C334.171 182.936 333.532 182.316 333.08 181.566C332.627 180.816 332.376 179.962 332.351 179.088C332.327 178.213 332.529 177.346 332.939 176.572L378.062 91.3431C378.624 90.2806 378.965 89.1152 379.064 87.9175C379.163 86.7198 379.017 85.5145 378.636 84.3743C378.256 83.2342 377.647 82.183 376.848 81.284C376.049 80.385 375.075 79.6569 373.986 79.1438L371.323 77.8885C369.254 76.9138 366.89 76.7698 364.718 77.4865C362.546 78.2031 360.734 79.7255 359.655 81.7386L304.622 184.479C303.685 186.228 303.195 188.182 303.195 190.165C303.195 193.365 304.468 196.433 306.735 198.695C309.002 200.957 312.076 202.228 315.282 202.228H380.071V230.315C380.071 233.143 381.197 235.855 383.201 237.855C385.205 239.854 387.922 240.978 390.756 240.978C393.59 240.978 396.307 239.854 398.311 237.855C400.315 235.855 401.441 233.143 401.441 230.315V202.228H416.555C418.974 202.228 421.294 201.269 423.005 199.562C424.715 197.855 425.676 195.539 425.676 193.125C425.676 190.711 424.715 188.396 423.005 186.689C421.294 184.982 418.974 184.023 416.555 184.023Z" fill="#1A75FF"/>
<path d="M140.842 178.822H125.727V134.404C125.727 133.235 125.496 132.079 125.048 130.999C124.6 129.92 123.944 128.94 123.116 128.114C122.288 127.288 121.306 126.632 120.224 126.185C119.143 125.738 117.984 125.508 116.813 125.508H113.271C110.907 125.508 108.64 126.445 106.968 128.114C105.297 129.782 104.358 132.044 104.358 134.404V178.822H61.7241C60.847 178.822 59.9849 178.596 59.2212 178.165C58.4576 177.735 57.8184 177.115 57.3657 176.365C56.913 175.615 56.6621 174.762 56.6375 173.887C56.6128 173.012 56.8151 172.145 57.2248 171.371L102.348 86.1422C102.91 85.0796 103.251 83.9143 103.35 82.7165C103.449 81.5188 103.303 80.3135 102.923 79.1734C102.542 78.0333 101.933 76.982 101.134 76.083C100.335 75.184 99.3616 74.456 98.2726 73.9428L95.6089 72.6875C93.5406 71.7128 91.1759 71.5689 89.0042 72.2855C86.8326 73.0022 85.02 74.5245 83.9417 76.5376L28.9084 179.278C27.9712 181.028 27.481 182.981 27.481 184.964V184.964C27.481 188.164 28.7544 191.232 31.0211 193.494C33.2878 195.756 36.3622 197.027 39.5678 197.027H104.358V225.114C104.358 226.514 104.634 227.901 105.171 229.194C105.708 230.488 106.495 231.664 107.487 232.654C108.479 233.644 109.657 234.429 110.953 234.965C112.25 235.501 113.639 235.777 115.042 235.777H115.042C117.876 235.777 120.594 234.653 122.597 232.654C124.601 230.654 125.727 227.942 125.727 225.114V197.027H140.842C142.039 197.027 143.225 196.791 144.332 196.334C145.439 195.876 146.444 195.206 147.291 194.361C148.138 193.515 148.81 192.512 149.268 191.408C149.727 190.303 149.962 189.12 149.962 187.924V187.924C149.962 186.729 149.727 185.545 149.268 184.441C148.81 183.337 148.138 182.333 147.291 181.488C146.444 180.643 145.439 179.972 144.332 179.515C143.225 179.057 142.039 178.822 140.842 178.822V178.822Z" stroke="#3F3D56" stroke-miterlimit="10"/>
<path d="M424.373 178.822H409.259V134.404C409.259 132.044 408.319 129.782 406.648 128.114C404.976 126.445 402.709 125.508 400.345 125.508H396.803C395.633 125.508 394.473 125.738 393.392 126.185C392.311 126.632 391.328 127.288 390.5 128.114C389.672 128.94 389.016 129.92 388.568 130.999C388.12 132.079 387.889 133.235 387.889 134.404V178.822H345.256C344.379 178.822 343.517 178.596 342.753 178.165C341.989 177.735 341.35 177.115 340.897 176.365C340.445 175.615 340.194 174.762 340.169 173.887C340.145 173.012 340.347 172.145 340.757 171.371L385.879 86.1422C386.442 85.0796 386.783 83.9143 386.882 82.7165C386.981 81.5188 386.835 80.3135 386.454 79.1734C386.074 78.0333 385.465 76.982 384.666 76.083C383.867 75.184 382.893 74.456 381.804 73.9428L379.141 72.6875C377.072 71.7128 374.708 71.5689 372.536 72.2855C370.364 73.0022 368.552 74.5245 367.473 76.5376L312.44 179.278C311.503 181.028 311.013 182.981 311.013 184.964C311.013 188.164 312.286 191.232 314.553 193.494C316.82 195.756 319.894 197.027 323.1 197.027H387.889V225.114C387.889 227.942 389.015 230.654 391.019 232.654C393.023 234.653 395.74 235.777 398.574 235.777V235.777C401.408 235.777 404.125 234.653 406.129 232.654C408.133 230.654 409.258 227.942 409.258 225.114V197.027H424.373C425.571 197.027 426.757 196.791 427.864 196.334C428.97 195.876 429.976 195.206 430.823 194.361C431.67 193.515 432.342 192.512 432.8 191.408C433.258 190.303 433.494 189.12 433.494 187.924V187.924C433.494 185.51 432.533 183.195 430.823 181.488C429.112 179.781 426.792 178.822 424.373 178.822V178.822Z" stroke="#3F3D56" stroke-miterlimit="10"/>
<path d="M229.706 66.2123C193.149 66.2123 166.901 89.6184 166.901 144.233C166.901 206.129 193.149 222.513 229.706 222.513C266.263 222.513 294.074 204.568 294.074 144.233C294.074 79.7359 266.263 66.2123 229.706 66.2123ZM229.946 201.968C204.626 201.968 191.398 187.143 191.398 144.273C191.398 106.446 205.167 86.4976 230.488 86.4976C255.808 86.4976 269.578 99.6007 269.578 144.273C269.577 186.062 255.266 201.968 229.946 201.968V201.968Z" stroke="#3F3D56" stroke-miterlimit="10"/>
<path d="M200.403 13.2233C203.434 13.2233 205.891 10.7715 205.891 7.74692C205.891 4.72238 203.434 2.27051 200.403 2.27051C197.372 2.27051 194.915 4.72238 194.915 7.74692C194.915 10.7715 197.372 13.2233 200.403 13.2233Z" fill="#2F2E41"/>
<path d="M213.787 39.8042C222.288 39.8042 229.18 30.8937 229.18 19.9021C229.18 8.91047 222.288 0 213.787 0C205.287 0 198.395 8.91047 198.395 19.9021C198.395 30.8937 205.287 39.8042 213.787 39.8042Z" fill="#2F2E41"/>
<path opacity="0.1" d="M213.788 33.7936C206.077 33.7936 199.691 26.4624 198.57 16.8969C198.454 17.8944 198.395 18.8979 198.396 19.9022C198.396 30.8938 205.287 39.8043 213.788 39.8043C222.288 39.8043 229.18 30.8938 229.18 19.9022C229.18 18.8979 229.122 17.8944 229.005 16.8969C227.884 26.4624 221.498 33.7936 213.788 33.7936Z" fill="black"/>
<path d="M245.109 78.1866C244.778 79.5422 243.353 80.6279 241.774 81.3864C238.456 82.9811 234.362 83.457 230.392 83.6168C229.379 83.6782 228.363 83.6594 227.353 83.5607C225.396 83.3718 223.56 82.5296 222.142 81.1702C222.041 81.1044 221.958 81.0141 221.901 80.9076C221.845 80.8012 221.816 80.6821 221.818 80.5615C221.819 80.441 221.852 80.3228 221.912 80.2182C221.972 80.1135 222.057 80.0257 222.161 79.963C224.274 77.6458 227.802 76.225 231.355 75.2019C234.05 74.4262 238.749 72.4169 241.687 72.6881C244.534 72.9507 245.526 76.475 245.109 78.1866Z" fill="#3F3D56"/>
<path opacity="0.1" d="M245.109 78.1866C244.778 79.5422 243.353 80.6279 241.774 81.3864C238.456 82.9811 234.362 83.457 230.392 83.6168C229.379 83.6782 228.363 83.6594 227.353 83.5607C225.396 83.3718 223.56 82.5296 222.142 81.1702C222.041 81.1044 221.958 81.0141 221.901 80.9076C221.845 80.8012 221.816 80.6821 221.818 80.5615C221.819 80.441 221.852 80.3228 221.912 80.2182C221.972 80.1135 222.057 80.0257 222.161 79.963C224.274 77.6458 227.802 76.225 231.355 75.2019C234.05 74.4262 238.749 72.4169 241.687 72.6881C244.534 72.9507 245.526 76.475 245.109 78.1866Z" fill="black"/>
<path d="M202.914 68.055C201.901 70.0363 201.717 72.3379 202.404 74.4541C203.102 76.5542 204.409 78.4004 206.16 79.7588C210.453 83.1936 216.363 83.6663 221.866 83.6186C226.688 83.5767 231.504 83.2473 236.288 82.6322C237.89 82.4904 239.466 82.1254 240.967 81.5478C242.763 80.7724 244.341 79.35 244.981 77.5043C245.62 75.6585 245.166 73.3984 243.648 72.1666C242.313 71.0843 240.473 70.9354 238.757 70.8325L228.937 70.2436C229.907 69.2637 231.199 68.7094 232.38 67.9971C233.948 67.052 234.989 65.4652 236.129 64.0346C237.885 61.94 239.796 59.9795 241.845 58.1694C242.165 59.9991 243.325 61.5016 244.69 62.7641C246.055 64.0266 247.628 65.043 249.047 66.245C252.483 69.1563 254.958 73.1077 258.572 75.7962C261.058 75.1442 263.382 73.9863 265.398 72.3951L263.993 69.856C263.876 69.5947 263.694 69.3678 263.464 69.1969C263.067 68.9528 262.554 69.0786 262.092 69.0095C260.858 68.8248 260.32 67.4032 259.835 66.2557C258.506 63.1052 255.961 60.6609 253.788 58.0189C252.184 56.0687 250.76 53.9768 249.536 51.7693C248.806 50.4526 248.137 49.0818 247.147 47.9475C246.156 46.8132 244.767 45.9214 243.259 45.9182C241.927 45.9154 240.698 46.5904 239.553 47.2694C236.064 49.3375 232.707 51.6199 229.502 54.1032C227.824 55.4029 226.157 56.776 224.189 57.573C223.361 57.9085 222.487 58.1378 221.693 58.546C220.3 59.261 219.244 60.4708 218.106 61.5447C214.049 65.3749 208.495 67.8565 202.914 68.055Z" fill="#3F3D56"/>
<path d="M223.448 40.7927C223.403 41.9635 223.153 43.1174 222.711 44.2028C222.487 44.7441 222.153 45.2335 221.731 45.6405C221.309 46.0475 220.807 46.3633 220.257 46.5683C219.477 46.7771 218.658 46.8035 217.866 46.6458C217.174 46.5737 216.508 46.3473 215.917 45.9833C214.996 45.3515 214.537 44.2241 214.37 43.1208C214.202 42.0189 214.277 40.8929 214.17 39.7829C214.066 38.8863 213.895 37.9988 213.659 37.1275C213.587 36.8377 213.513 36.5491 213.441 36.2606C213.37 35.9721 213.3 35.6836 213.236 35.3951C213.177 35.1239 213.122 34.8515 213.075 34.5776C213.037 34.3466 213.002 34.1141 212.976 33.8804C212.953 33.1874 212.837 32.5006 212.632 31.8381C212.44 31.4084 212.199 31.002 211.915 30.6266C211.793 30.453 211.675 30.2793 211.567 30.099C211.253 29.6304 211.108 29.0698 211.153 28.5082C211.166 28.4213 211.187 28.3359 211.216 28.253C211.227 28.221 211.239 28.189 211.252 28.1582C211.373 28.1256 211.483 28.0641 211.575 27.9792C211.666 27.8942 211.735 27.7883 211.776 27.6707C211.822 27.418 211.8 27.1576 211.713 26.916C211.613 26.5783 211.476 26.2527 211.305 25.9449C211.192 25.7419 210.811 25.3759 210.808 25.1435C210.803 24.676 211.718 24.2993 212.089 24.115C213.221 23.5494 214.483 23.2941 215.746 23.375C216.555 23.4298 217.433 23.6782 217.88 24.3554C218.282 24.9658 218.228 25.7566 218.4 26.4658C218.418 26.5689 218.461 26.6658 218.527 26.7477C218.614 26.8271 218.724 26.8775 218.841 26.8919C219.04 26.9313 219.243 26.9394 219.444 26.916H219.445C219.498 26.9118 219.551 26.9042 219.603 26.8933C219.916 26.8357 220.211 26.7083 220.468 26.5206C220.634 26.4765 220.801 26.4405 220.97 26.4124C220.976 26.4117 220.983 26.4104 220.99 26.4084C221.66 28.5202 221.747 30.7842 222.296 32.9347C222.568 34.0046 222.957 35.0611 223.012 36.1618C223.016 36.2098 223.017 36.2593 223.019 36.3087C223.027 36.6626 222.999 37.0193 223.013 37.3719C223.018 37.5307 223.036 37.6888 223.067 37.8447C223.127 38.0955 223.202 38.3426 223.29 38.5847L223.294 38.5968C223.32 38.6742 223.344 38.753 223.364 38.8318C223.379 38.8893 223.392 38.9454 223.403 39.0028L223.404 39.0068C223.503 39.597 223.518 40.1983 223.448 40.7927Z" fill="#FBBEBE"/>
<path d="M214.055 26.9814C218.416 26.9814 221.952 23.4531 221.952 19.1007C221.952 14.7483 218.416 11.22 214.055 11.22C209.694 11.22 206.158 14.7483 206.158 19.1007C206.158 23.4531 209.694 26.9814 214.055 26.9814Z" fill="#FBBEBE"/>
<path d="M264.19 62.0389C263.962 59.8889 263.196 57.8305 261.963 56.0523C262.168 57.2678 262.373 58.4828 262.579 59.6974C262.323 59.7713 262.052 59.769 261.797 59.691C261.543 59.6129 261.317 59.4624 261.147 59.258C260.814 58.8437 260.56 58.3725 260.396 57.8675C259.499 55.6449 258.326 53.5434 256.904 51.6124C251.877 51.1943 246.907 49.1146 242.486 46.6903C238.064 44.2673 233.926 41.3621 229.562 38.8363C228.806 38.38 228.018 37.9782 227.204 37.6342C225.839 37.0878 224.306 36.8047 223.012 36.1622C222.925 36.1195 222.838 36.074 222.752 36.0273C222.46 35.8686 222.183 35.683 221.925 35.473C221.786 35.36 221.653 35.2387 221.529 35.1097C220.883 34.3599 220.371 33.5051 220.015 32.5825C219.321 31.0491 219.073 29.1991 218.38 27.6657C218.698 27.3685 219.056 27.1164 219.444 26.9164H219.445C219.501 26.887 219.557 26.859 219.615 26.8323C219.889 26.7033 220.175 26.5992 220.468 26.521C220.634 26.477 220.801 26.4409 220.97 26.4128C220.976 26.4122 220.983 26.4108 220.99 26.4088C221.772 26.2817 222.573 26.3449 223.325 26.5932C224.425 26.9645 225.353 27.7058 226.278 28.4071C227.78 29.4634 229.221 30.6042 230.594 31.8238C231.357 32.5531 232.053 33.3545 232.874 34.017C233.555 34.5422 234.274 35.0176 235.024 35.4396C239.464 38.0789 243.904 40.7179 248.345 43.3563C249.848 44.2499 251.352 45.1435 252.822 46.0892C255.054 47.5264 257.206 49.0839 259.357 50.64C260.625 51.5563 261.892 52.473 263.158 53.3902C263.574 53.6548 263.939 53.9913 264.236 54.384C264.498 54.8298 264.661 55.3268 264.714 55.8412C265.032 57.9194 264.852 60.0432 264.19 62.0389Z" fill="#FBBEBE"/>
<path d="M225.406 46.7196C224.874 49.1038 222.459 50.5451 221.197 52.6394C219.628 55.2387 220.268 58.2601 220.857 61.2374C219.781 62.1631 218.704 63.0887 217.627 64.0144C217.033 64.5233 216.439 65.0348 215.799 65.485C214.866 66.1088 213.891 66.6675 212.881 67.1573C211.928 67.6462 210.975 68.1355 210.022 68.6252C209.137 69.1223 208.198 69.5193 207.224 69.8087C205.346 70.2895 203.352 69.9529 201.494 69.3959C201.275 69.3386 201.064 69.2528 200.868 69.1408C200.752 69.0719 200.651 68.9806 200.57 68.8723C200.387 68.5446 200.321 68.1647 200.382 67.7944C200.57 64.6742 201.335 61.6194 202.096 58.5874C202.503 56.7683 203.051 54.9834 203.733 53.2485C204.403 51.762 205.172 50.3223 206.037 48.9395C206.991 47.1997 208.121 45.562 209.409 44.0522C210.037 43.4711 210.565 42.7916 210.973 42.0406C211.448 40.9587 211.265 39.7178 211.361 38.5397C211.435 37.6545 211.67 36.7904 212.056 35.9898V35.9885C212.262 35.5573 212.51 35.1474 212.797 34.765C212.927 35.0668 213.057 35.3683 213.187 35.6692C213.272 35.8669 213.357 36.0642 213.441 36.261C213.551 36.5148 213.659 36.7677 213.767 37.0197C214.079 37.7436 214.391 38.4671 214.702 39.1902C215.038 40.1009 215.517 40.9526 216.12 41.7134C216.396 42.1029 216.769 42.4144 217.202 42.6174C217.634 42.8203 218.112 42.9079 218.589 42.8714C219.066 42.8349 219.525 42.6757 219.921 42.4093C220.318 42.1429 220.639 41.7784 220.852 41.3514C221.302 40.5543 221.628 39.6936 221.818 38.7988C222.082 37.7093 222.119 36.5771 221.925 35.4729C221.603 33.3465 220.697 31.1746 220.038 29.1991C219.77 28.5404 219.615 27.8414 219.579 27.1314C219.58 27.0516 219.588 26.9721 219.603 26.8936C219.607 26.8736 219.611 26.8522 219.615 26.8322C219.889 26.7033 220.175 26.5991 220.468 26.521C220.634 26.4769 220.801 26.4408 220.97 26.4128C221.549 29.5437 222.13 32.6746 222.711 35.8055C222.724 35.879 222.739 35.9524 222.752 36.0272C222.835 36.476 222.92 36.9248 223.013 37.3723C223.098 37.7783 223.189 38.1831 223.29 38.5851L223.294 38.5971C223.329 38.7334 223.365 38.8683 223.403 39.0032L223.404 39.0072C223.507 39.3759 223.622 39.7418 223.752 40.1025C224.539 42.2757 225.911 44.4636 225.406 46.7196Z" fill="#1A75FF"/>
<path d="M257.455 80.2259C257.43 80.6852 257.519 81.1435 257.714 81.5601C258.208 82.4616 259.394 82.6665 260.42 82.7508C266.415 83.2425 272.445 83.0591 278.398 82.2041C278.721 82.1821 279.035 82.085 279.313 81.9207C280.16 81.3285 279.638 79.8853 278.714 79.4232C277.79 78.9612 276.693 79.0725 275.679 78.8724C274.671 78.6194 273.712 78.2041 272.838 77.6431C270.782 76.4639 268.755 75.2346 266.759 73.9551C265.57 73.1933 264.167 72.3802 262.828 72.8319C259.202 74.0561 257.431 76.3221 257.455 80.2259Z" fill="#3F3D56"/>
<path d="M213.267 35.2275V35.2288C213.257 35.2849 213.248 35.3397 213.236 35.3945C213.221 35.4853 213.204 35.5775 213.187 35.6683C213.021 36.5165 212.817 37.3606 212.583 38.1994C211.94 40.5169 211.08 42.797 210.226 45.0436C207.934 51.0677 205.643 57.0922 203.35 63.1171C202.772 64.6345 202.195 66.1532 201.538 67.6399C201.319 68.1354 201.092 68.6349 200.868 69.1399C200.062 70.9471 199.288 72.8131 199.031 74.7365C198.792 76.0024 198.764 77.2991 198.95 78.574C199.207 79.8349 199.973 81.0664 201.174 81.5326C201.76 81.761 202.599 82.0669 202.439 82.6746C202.352 83.0085 201.972 83.1715 201.63 83.2276C201.18 83.2993 200.719 83.2711 200.28 83.1451C199.842 83.019 199.436 82.7982 199.093 82.4983C198.452 81.9306 197.959 81.0477 197.107 80.9529C196.516 80.8888 195.973 81.2414 195.432 81.4885C193.226 82.4943 190.657 81.7904 188.34 81.0758C188.522 80.1395 189.464 79.5224 190.4 79.3354C191.335 79.147 192.303 79.2806 193.257 79.2552C193.563 79.2715 193.866 79.1936 194.126 79.0322C194.359 78.8188 194.522 78.5405 194.594 78.2334C195.209 76.4156 195.666 74.5486 195.961 72.6528C196.269 70.6719 196.397 68.6603 196.836 66.7035C197.177 65.1768 197.705 63.6982 198.157 62.1995C199.032 59.1138 199.75 55.9861 200.309 52.8282C200.592 51.5162 200.794 50.1883 200.916 48.8518C200.992 47.7431 200.956 46.6291 201.063 45.5245C201.243 44.0874 201.543 42.6679 201.961 41.2809C202.371 39.7676 202.78 38.2551 203.188 36.7435C203.795 34.5062 204.445 32.1821 205.982 30.443C206.515 29.8307 207.169 29.3344 207.903 28.9847C208.637 28.635 209.435 28.4394 210.247 28.41C210.552 28.4097 210.856 28.4424 211.153 28.5075C211.203 28.5196 211.252 28.5316 211.302 28.5449C211.626 28.6296 211.937 28.7581 212.227 28.927C212.701 28.6264 212.942 28.7319 213.256 29.1954C213.532 29.686 213.662 30.2447 213.631 30.8063C213.657 32.2885 213.535 33.7696 213.267 35.2275Z" fill="#FBBEBE"/>
<path d="M213.787 36.9997L213.767 37.0197L213.659 37.1279L212.583 38.2005L212.056 35.9899L210.247 28.411C210.552 28.4107 210.856 28.4434 211.153 28.5085C211.166 28.4217 211.187 28.3363 211.216 28.2534L211.302 28.5459L211.915 30.627L213.075 34.578L213.267 35.2285V35.2298L213.787 36.9997Z" fill="#1A75FF"/>
<path d="M220.616 12.8206C220.615 13.5223 220.476 14.217 220.206 14.865C219.936 15.5129 219.54 16.1014 219.042 16.5967C218.862 16.777 218.668 16.9439 218.464 17.0961C217.54 17.7909 216.415 18.167 215.258 18.1676H208.837C207.418 18.1654 206.058 17.6013 205.056 16.5993C204.053 15.5973 203.49 14.2392 203.49 12.8232C203.49 11.4072 204.053 10.049 205.056 9.04701C206.058 8.04498 207.418 7.48095 208.837 7.47876H215.258C216.677 7.48245 218.037 8.04626 219.041 9.0471C220.045 10.0479 220.611 11.4045 220.616 12.8206Z" fill="#2F2E41"/>
<path d="M226.637 13.2233C229.667 13.2233 232.124 10.7715 232.124 7.74692C232.124 4.72238 229.667 2.27051 226.637 2.27051C223.606 2.27051 221.149 4.72238 221.149 7.74692C221.149 10.7715 223.606 13.2233 226.637 13.2233Z" fill="#2F2E41"/>
<path opacity="0.1" d="M226.503 2.27051C226.435 2.27051 226.369 2.27317 226.302 2.27557C227.721 2.32708 229.066 2.92607 230.052 3.94651C231.038 4.96696 231.589 6.32932 231.589 7.74693C231.589 9.16454 231.038 10.5269 230.052 11.5473C229.066 12.5678 227.721 13.1668 226.302 13.2183C226.369 13.2207 226.435 13.2233 226.503 13.2233C227.958 13.2233 229.354 12.6464 230.383 11.6193C231.412 10.5923 231.99 9.19936 231.99 7.74693C231.99 6.29449 231.412 4.90154 230.383 3.87451C229.354 2.84749 227.958 2.27051 226.503 2.27051Z" fill="black"/>
<path opacity="0.1" d="M200.403 2.27051C200.47 2.27051 200.537 2.27317 200.604 2.27557C199.184 2.32708 197.84 2.92607 196.854 3.94651C195.868 4.96696 195.317 6.32932 195.317 7.74693C195.317 9.16454 195.868 10.5269 196.854 11.5473C197.84 12.5678 199.184 13.1668 200.604 13.2183C200.537 13.2207 200.47 13.2233 200.403 13.2233C198.949 13.2221 197.554 12.6445 196.526 11.6176C195.498 10.5907 194.92 9.19853 194.92 7.74693C194.92 6.29533 195.498 4.90311 196.526 3.87622C197.554 2.84933 198.949 2.27179 200.403 2.27051Z" fill="black"/>
<path opacity="0.1" d="M218.464 17.0961C217.54 17.7909 216.415 18.167 215.258 18.1676H208.837C207.68 18.167 206.555 17.7909 205.632 17.0961H218.464Z" fill="black"/>
<path d="M259.93 56.7778C259.93 56.7778 261.313 60.7559 262.579 59.6967L261.57 54.4968L259.93 56.7778Z" fill="#FBBEBE"/>
<path d="M428.276 178.094C429.565 178.562 430.945 178.724 432.307 178.569C433.669 178.413 434.976 177.944 436.126 177.198C437.275 176.453 438.236 175.451 438.931 174.271C439.626 173.092 440.038 171.768 440.133 170.403C440.227 169.038 440.003 167.67 439.478 166.406C438.953 165.142 438.141 164.017 437.105 163.12C436.07 162.223 434.84 161.578 433.513 161.236C432.185 160.895 430.796 160.865 429.455 161.15L429.677 165.698L427.521 161.801C425.405 162.793 423.771 164.583 422.977 166.777C422.695 167.545 422.523 168.35 422.468 169.167C422.331 171.083 422.825 172.991 423.873 174.602C424.921 176.213 426.467 177.439 428.276 178.094Z" fill="#57B894"/>
<path d="M438.943 230.835C438.182 226.968 441.48 223.539 444.737 221.311C447.994 219.082 451.8 216.893 452.911 213.111C454.509 207.676 449.751 202.698 446.048 198.406C443.301 195.22 440.941 191.721 439.02 187.981C438.249 186.482 437.541 184.914 437.338 183.242C437.046 180.832 437.822 178.435 438.603 176.137C441.206 168.482 443.989 160.89 446.952 153.363" stroke="#3F3D56" stroke-miterlimit="10"/>
<path d="M428.641 176.923C429.929 177.391 431.309 177.553 432.671 177.398C434.033 177.242 435.341 176.773 436.49 176.028C437.64 175.282 438.6 174.28 439.295 173.101C439.991 171.921 440.402 170.597 440.497 169.232C440.592 167.867 440.368 166.499 439.843 165.235C439.317 163.971 438.505 162.847 437.47 161.949C436.435 161.052 435.205 160.407 433.877 160.066C432.55 159.724 431.161 159.694 429.82 159.98L430.041 164.527L427.886 160.63C425.77 161.622 424.135 163.412 423.341 165.606C423.059 166.375 422.888 167.179 422.832 167.996C422.696 169.912 423.189 171.82 424.238 173.431C425.286 175.042 426.832 176.268 428.641 176.923V176.923Z" stroke="#3F3D56" stroke-miterlimit="10"/>
<path d="M437.861 151.792C438.367 150.4 439.216 149.157 440.329 148.178C441.443 147.199 442.785 146.515 444.233 146.19L444.962 150.513L446.313 145.973C448.19 146.001 450.009 146.623 451.508 147.749C453.006 148.876 454.108 150.449 454.653 152.241C455.197 154.033 455.157 155.951 454.538 157.719C453.919 159.487 452.753 161.013 451.209 162.076C449.664 163.14 447.821 163.686 445.945 163.636C444.069 163.586 442.258 162.942 440.773 161.798C439.287 160.653 438.205 159.067 437.682 157.269C437.158 155.471 437.221 153.553 437.861 151.792H437.861Z" fill="#57B894"/>
<path d="M438.347 150.232C438.853 148.839 439.702 147.596 440.815 146.617C441.929 145.638 443.271 144.955 444.719 144.629L445.448 148.952L446.799 144.412C448.676 144.44 450.495 145.062 451.994 146.189C453.492 147.315 454.594 148.888 455.139 150.68C455.683 152.472 455.643 154.391 455.024 156.159C454.406 157.926 453.24 159.452 451.695 160.516C450.15 161.579 448.307 162.125 446.431 162.075C444.555 162.025 442.744 161.381 441.259 160.237C439.773 159.093 438.691 157.507 438.168 155.708C437.644 153.91 437.707 151.992 438.347 150.232H438.347Z" stroke="#3F3D56" stroke-miterlimit="10"/>
<path d="M444.494 198.494C446.538 199.233 448.782 199.197 450.801 198.391C452.819 197.585 454.469 196.066 455.438 194.124C456.406 192.182 456.624 189.952 456.051 187.86C455.477 185.767 454.153 183.958 452.329 182.778L451.29 186.267L450.554 181.893C450.547 181.89 450.539 181.887 450.532 181.884C449.439 181.488 448.278 181.31 447.116 181.362C445.954 181.413 444.814 181.692 443.761 182.184C442.707 182.675 441.761 183.369 440.976 184.225C440.191 185.081 439.583 186.084 439.186 187.175C438.79 188.266 438.612 189.424 438.665 190.583C438.717 191.743 438.997 192.88 439.49 193.932C439.983 194.983 440.679 195.927 441.537 196.709C442.396 197.492 443.401 198.098 444.494 198.494H444.494Z" fill="#57B894"/>
<path d="M444.915 196.912C446.959 197.652 449.203 197.616 451.222 196.81C453.24 196.004 454.89 194.485 455.859 192.543C456.827 190.601 457.045 188.371 456.472 186.278C455.899 184.186 454.574 182.377 452.75 181.197L451.712 184.686L450.975 180.312C450.968 180.308 450.96 180.306 450.953 180.303C449.86 179.907 448.699 179.729 447.537 179.781C446.376 179.832 445.235 180.111 444.182 180.603C443.128 181.094 442.182 181.787 441.397 182.644C440.612 183.5 440.004 184.503 439.607 185.594C439.211 186.685 439.034 187.843 439.086 189.002C439.138 190.162 439.418 191.299 439.911 192.35C440.404 193.402 441.1 194.346 441.958 195.128C442.817 195.911 443.822 196.517 444.915 196.912H444.915Z" stroke="#3F3D56" stroke-miterlimit="10"/>
<path d="M435.278 213.164C435.629 215.16 436.657 216.974 438.19 218.302C439.722 219.631 441.666 220.393 443.694 220.461C445.723 220.529 447.714 219.899 449.332 218.677C450.951 217.454 452.099 215.713 452.584 213.746C453.069 211.779 452.862 209.705 451.996 207.873C451.131 206.04 449.661 204.56 447.832 203.681C446.003 202.802 443.927 202.577 441.952 203.044C439.977 203.511 438.223 204.642 436.984 206.246L440.928 212.171L435.539 209.026C435.121 210.365 435.031 211.784 435.278 213.164Z" fill="#57B894"/>
<path d="M435.642 211.994C435.994 213.989 437.022 215.803 438.554 217.131C440.087 218.46 442.03 219.222 444.059 219.29C446.088 219.358 448.078 218.728 449.697 217.506C451.315 216.283 452.463 214.542 452.948 212.575C453.434 210.608 453.226 208.534 452.361 206.702C451.496 204.869 450.025 203.389 448.197 202.51C446.368 201.631 444.292 201.406 442.317 201.873C440.342 202.34 438.587 203.471 437.348 205.076L441.292 211L435.903 207.855C435.485 209.194 435.396 210.613 435.642 211.994V211.994Z" stroke="#3F3D56" stroke-miterlimit="10"/>
<path d="M3.83138 199.616C4.67796 199.923 5.58446 200.03 6.47942 199.928C7.37439 199.826 8.23335 199.517 8.98861 199.028C9.74387 198.538 10.3748 197.879 10.8316 197.105C11.2884 196.33 11.5587 195.46 11.6211 194.563C11.6835 193.666 11.5363 192.767 11.1912 191.937C10.846 191.106 10.3123 190.367 9.63219 189.778C8.95203 189.189 8.14399 188.765 7.27176 188.54C6.39953 188.316 5.48695 188.296 4.60595 188.484L4.75154 191.471L3.33515 188.911C1.94506 189.563 0.871146 190.739 0.349422 192.18C0.164135 192.685 0.0514951 193.214 0.0148611 193.751C-0.0745416 195.009 0.249669 196.263 0.938362 197.321C1.62705 198.38 2.64269 199.185 3.83138 199.616Z" fill="#57B894"/>
<path d="M10.8397 234.267C10.3397 231.726 12.5062 229.474 14.6463 228.01C16.7863 226.546 19.2868 225.107 20.017 222.622C21.0664 219.051 17.9405 215.781 15.5076 212.961C13.7026 210.868 12.1525 208.569 10.8898 206.112C10.3408 205.147 9.96694 204.093 9.7853 202.998C9.59347 201.415 10.103 199.84 10.6164 198.33C12.3266 193.3 14.1551 188.312 16.1019 183.367" stroke="#3F3D56" stroke-miterlimit="10"/>
<path d="M4.07088 198.846C4.91747 199.153 5.82397 199.26 6.71893 199.158C7.61389 199.056 8.47285 198.747 9.22811 198.258C9.98336 197.768 10.6143 197.109 11.0711 196.334C11.5279 195.56 11.7982 194.69 11.8606 193.793C11.923 192.896 11.7758 191.997 11.4307 191.167C11.0855 190.336 10.5518 189.597 9.87168 189.008C9.19153 188.419 8.38349 187.995 7.51126 187.77C6.63903 187.546 5.72646 187.526 4.84546 187.714L4.99105 190.701L3.57466 188.141C2.18456 188.793 1.11065 189.969 0.588924 191.41C0.40364 191.915 0.291001 192.444 0.254365 192.981C0.164956 194.239 0.489165 195.493 1.17786 196.551C1.86655 197.61 2.8822 198.415 4.07088 198.846V198.846Z" stroke="#3F3D56" stroke-miterlimit="10"/>
<path d="M10.1288 182.335C10.461 181.42 11.0186 180.603 11.7503 179.96C12.4819 179.317 13.3639 178.868 14.3152 178.654L14.7941 181.494L15.682 178.511C16.9147 178.53 18.1098 178.938 19.0946 179.679C20.0794 180.419 20.803 181.452 21.161 182.63C21.5189 183.807 21.4926 185.068 21.0859 186.229C20.6793 187.391 19.9132 188.393 18.8984 189.092C17.8836 189.791 16.6726 190.149 15.4401 190.116C14.2077 190.083 13.0176 189.661 12.0417 188.909C11.0658 188.157 10.3546 187.115 10.0108 185.933C9.66693 184.752 9.70827 183.492 10.1288 182.335Z" fill="#57B894"/>
<path d="M10.4481 181.309C10.7803 180.395 11.3379 179.578 12.0695 178.935C12.8011 178.291 13.6832 177.842 14.6345 177.629L15.1134 180.469L16.0013 177.486C17.234 177.504 18.4291 177.913 19.4139 178.653C20.3987 179.393 21.1223 180.427 21.4802 181.604C21.8382 182.781 21.8119 184.042 21.4052 185.203C20.9985 186.365 20.2325 187.367 19.2177 188.066C18.2029 188.765 16.9918 189.124 15.7594 189.091C14.5269 189.058 13.3368 188.635 12.3609 187.883C11.3851 187.131 10.6739 186.089 10.33 184.908C9.98621 183.726 10.0275 182.466 10.4481 181.309V181.309Z" stroke="#3F3D56" stroke-miterlimit="10"/>
<path d="M14.4866 213.018C15.8292 213.504 17.304 213.48 18.63 212.951C19.9561 212.421 21.0405 211.423 21.6767 210.147C22.3128 208.871 22.4562 207.406 22.0795 206.031C21.7028 204.656 20.8324 203.468 19.6341 202.692L18.9519 204.985L18.4681 202.111C18.4633 202.109 18.4584 202.107 18.4533 202.106C17.7351 201.845 16.9726 201.728 16.2092 201.762C15.4458 201.795 14.6965 201.979 14.0041 202.302C13.3118 202.624 12.69 203.08 12.1742 203.643C11.6585 204.205 11.2589 204.864 10.9983 205.581C10.7377 206.298 10.6212 207.059 10.6555 207.821C10.6898 208.583 10.8742 209.33 11.1982 210.021C11.5221 210.712 11.9793 211.332 12.5435 211.846C13.1078 212.36 13.768 212.759 14.4866 213.018Z" fill="#57B894"/>
<path d="M14.7633 211.979C16.1059 212.465 17.5807 212.441 18.9068 211.912C20.2328 211.382 21.3172 210.384 21.9534 209.108C22.5895 207.832 22.7329 206.367 22.3562 204.992C21.9795 203.617 21.1091 202.429 19.9108 201.654L19.2286 203.946L18.7448 201.072C18.74 201.07 18.7351 201.068 18.73 201.067C18.012 200.807 17.2497 200.69 16.4867 200.724C15.7237 200.759 14.9749 200.942 14.283 201.265C12.8857 201.917 11.8052 203.096 11.2792 204.544C10.7532 205.991 10.8248 207.587 11.4782 208.981C12.1315 210.376 13.3132 211.454 14.7633 211.979V211.979Z" stroke="#3F3D56" stroke-miterlimit="10"/>
<path d="M8.43151 222.657C8.66236 223.968 9.33785 225.16 10.3447 226.033C11.3515 226.905 12.6285 227.406 13.9614 227.451C15.2943 227.496 16.6022 227.082 17.6655 226.279C18.7289 225.475 19.4832 224.332 19.8019 223.039C20.1206 221.747 19.9843 220.384 19.4159 219.18C18.8475 217.976 17.8815 217.004 16.68 216.426C15.4784 215.849 14.1144 215.701 12.8167 216.008C11.5189 216.315 10.3664 217.058 9.55233 218.112L12.1437 222.004L8.6029 219.938C8.32836 220.818 8.26958 221.75 8.43151 222.657Z" fill="#57B894"/>
<path d="M8.67096 221.888C8.9018 223.199 9.57729 224.391 10.5841 225.264C11.591 226.137 12.8679 226.637 14.2008 226.682C15.5338 226.727 16.8416 226.313 17.905 225.51C18.9684 224.706 19.7227 223.563 20.0414 222.27C20.3601 220.978 20.2238 219.615 19.6553 218.411C19.0869 217.207 18.1209 216.235 16.9194 215.657C15.7179 215.08 14.3539 214.932 13.0561 215.239C11.7584 215.546 10.6058 216.289 9.79177 217.343L12.3832 221.235L8.84234 219.169C8.5678 220.049 8.50902 220.981 8.67096 221.888V221.888Z" stroke="#3F3D56" stroke-miterlimit="10"/>
<path d="M204.574 144.8C208.567 144.8 211.805 140.619 211.805 135.461C211.805 130.304 208.567 126.123 204.574 126.123C200.58 126.123 197.343 130.304 197.343 135.461C197.343 140.619 200.58 144.8 204.574 144.8Z" fill="#2F2E41"/>
<path d="M243.919 145.012C247.913 145.012 251.15 140.831 251.15 135.674C251.15 130.516 247.913 126.335 243.919 126.335C239.926 126.335 236.688 130.516 236.688 135.674C236.688 140.831 239.926 145.012 243.919 145.012Z" fill="#2F2E41"/>
<path d="M238.39 163.265C238.39 167.485 232.486 170.906 225.203 170.906C217.921 170.906 212.017 167.485 212.017 163.265C212.017 159.61 216.445 156.554 222.362 155.807C223.304 155.683 224.253 155.622 225.203 155.625C226.796 155.619 228.383 155.79 229.938 156.134C234.88 157.233 238.39 160.014 238.39 163.265Z" fill="#2F2E41"/>
<path d="M206.275 142.678C210.269 142.678 213.506 138.497 213.506 133.339C213.506 128.181 210.269 124 206.275 124C202.282 124 199.044 128.181 199.044 133.339C199.044 138.497 202.282 142.678 206.275 142.678Z" stroke="#3F3D56" stroke-miterlimit="10"/>
<path d="M245.621 142.89C249.614 142.89 252.852 138.709 252.852 133.551C252.852 128.394 249.614 124.212 245.621 124.212C241.627 124.212 238.39 128.394 238.39 133.551C238.39 138.709 241.627 142.89 245.621 142.89Z" stroke="#3F3D56" stroke-miterlimit="10"/>
<path d="M226.905 168.784C234.187 168.784 240.091 165.363 240.091 161.143C240.091 156.923 234.187 153.502 226.905 153.502C219.622 153.502 213.719 156.923 213.719 161.143C213.719 165.363 219.622 168.784 226.905 168.784Z" stroke="#3F3D56" stroke-miterlimit="10"/>
<path d="M230.095 156.771C230.099 157.304 229.898 157.819 229.534 158.21C229.362 158.398 229.153 158.548 228.92 158.651C228.687 158.753 228.436 158.807 228.181 158.808H223.927C223.403 158.79 222.908 158.565 222.549 158.184C222.19 157.802 221.998 157.294 222.013 156.771C222.011 156.357 222.133 155.952 222.362 155.607C223.303 155.475 224.253 155.41 225.203 155.412C226.797 155.407 228.387 155.589 229.938 155.956C230.043 156.215 230.096 156.491 230.095 156.771Z" fill="white"/>
<path d="M206.275 132.914C207.45 132.914 208.402 131.964 208.402 130.792C208.402 129.62 207.45 128.67 206.275 128.67C205.101 128.67 204.148 129.62 204.148 130.792C204.148 131.964 205.101 132.914 206.275 132.914Z" fill="white"/>
<path d="M245.833 132.914C247.008 132.914 247.96 131.964 247.96 130.792C247.96 129.62 247.008 128.67 245.833 128.67C244.659 128.67 243.706 129.62 243.706 130.792C243.706 131.964 244.659 132.914 245.833 132.914Z" fill="white"/>
<path opacity="0.3" d="M247.96 152.865C249.135 152.865 250.087 151.915 250.087 150.743C250.087 149.571 249.135 148.621 247.96 148.621C246.785 148.621 245.833 149.571 245.833 150.743C245.833 151.915 246.785 152.865 247.96 152.865Z" fill="#1A75FF"/>
<path opacity="0.3" d="M196.067 152.865C197.241 152.865 198.193 151.915 198.193 150.743C198.193 149.571 197.241 148.621 196.067 148.621C194.892 148.621 193.94 149.571 193.94 150.743C193.94 151.915 194.892 152.865 196.067 152.865Z" fill="#1A75FF"/>
</g>
<defs>
<clipPath id="clip0">
<rect width="457" height="248" fill="white"/>
</clipPath>
</defs>
</svg>
