<svg width="488" height="352" viewBox="0 0 488 352" fill="none" xmlns="http://www.w3.org/2000/svg">
<g opacity="0.5">
<path opacity="0.5" d="M481.706 164.104H434.56C431.084 164.104 428.266 166.925 428.266 170.406V217.608C428.266 221.088 431.084 223.909 434.56 223.909H481.706C485.182 223.909 488 221.088 488 217.608V170.406C488 166.925 485.182 164.104 481.706 164.104Z" fill="#D0D2D5"/>
<path opacity="0.1" d="M449.663 181.291H466.603C466.603 181.291 480.868 193.788 466.603 206.731H449.663C449.663 206.731 435.399 195.127 449.663 181.291Z" fill="black"/>
<path opacity="0.5" d="M453.675 188.428H451.447V195.122H453.675V188.428Z" fill="#3F3D56"/>
<path opacity="0.5" d="M464.82 187.535H462.591V195.569H464.82V187.535Z" fill="#3F3D56"/>
<path opacity="0.5" d="M458.133 199.139C458.843 199.139 459.523 199.421 460.024 199.924C460.526 200.426 460.808 201.107 460.808 201.817V204.049H455.458V201.817C455.458 201.107 455.74 200.426 456.242 199.924C456.743 199.421 457.424 199.139 458.133 199.139Z" fill="#3F3D56"/>
</g>
<path d="M277.17 106.427C278.583 106.395 279.992 106.502 281.401 106.427C282.689 106.364 283.968 106.154 285.257 106.025C287.459 105.806 289.679 105.824 291.89 105.73C293.343 105.668 294.877 105.525 296.053 104.668C297.159 103.869 297.774 102.566 298.759 101.62C302.771 97.7592 305.522 92.5954 309.088 88.3108C309.979 87.2218 310.911 86.1373 311.718 84.9724C313.265 82.7409 314.357 80.2103 315.445 77.711C315.873 76.7844 316.231 75.8265 316.514 74.8457C316.715 74.0602 316.818 73.2479 317.085 72.4802C317.638 70.9092 318.966 69.5346 319.127 67.8788L318.939 67.9055C320.562 65.8391 320.312 62.2374 321.115 59.5908C321.628 58.0188 322.249 56.4843 322.974 54.9983L325.956 48.4955C326.469 47.3798 327.004 46.2283 327.891 45.3714C328.965 44.3315 330.463 43.8137 331.542 42.7783C332.183 42.1408 332.663 41.3588 332.941 40.4977L333.035 40.5869C333.606 41.1448 334.051 41.8277 334.609 42.4034C335.808 43.6441 337.47 44.3538 338.692 45.5722C339.316 46.1926 339.829 46.9468 340.582 47.3976C340.967 47.608 341.407 47.6923 341.842 47.6387C342.278 47.585 342.685 47.3961 343.007 47.0986C345.196 45.1705 348.459 44.992 350.826 43.2916C351.481 42.8185 352.052 42.2427 352.667 41.725C354.136 40.5533 355.731 39.5502 357.423 38.7347C358.416 38.7509 359.403 38.8919 360.361 39.1543C361.734 39.5336 363.076 40.1629 364.502 40.1362C365.776 40.0733 366.996 39.6041 367.984 38.7972C368.71 38.2349 369.375 37.4583 369.482 36.5657C369.509 36.1075 369.426 35.6495 369.24 35.2301C369.054 34.8107 368.77 34.4422 368.412 34.1556C368.314 34.0708 368.211 33.9949 368.109 33.9191C368.078 33.5185 367.968 33.1282 367.783 32.7716C367.598 32.4149 367.344 32.0993 367.034 31.8437C366.312 31.2775 365.487 30.8562 364.605 30.603C364.114 30.41 363.597 30.2926 363.071 30.2549C362.251 30.2995 361.446 30.4884 360.691 30.8127C359.174 31.3019 357.609 31.631 356.024 31.7946C355.743 31.8214 355.172 31.7634 354.686 31.7589L354.521 31.2858C352.667 32.1427 350.509 31.4376 348.477 31.442C347.487 31.442 346.502 31.6161 345.517 31.6786C344.426 31.7218 343.333 31.6979 342.245 31.6072L338.95 31.3974C337.544 31.325 336.142 31.176 334.751 30.9511C334.381 30.1968 334.011 29.4426 333.597 28.7195C332.898 27.5042 332.078 26.3632 331.149 25.3142C331.523 24.9924 331.916 24.6943 332.326 24.4216L332.406 24.3725C332.509 24.3145 332.634 24.252 332.772 24.1895C334.058 24.8017 335.477 25.0782 336.898 24.9934C338.32 24.9085 339.696 24.465 340.9 23.7042C342.104 22.9434 343.096 21.8899 343.784 20.6419C344.472 19.3939 344.833 17.992 344.835 16.5665C345.079 16.4725 345.317 16.3637 345.548 16.2407C345.682 16.1693 345.815 16.0934 345.945 16.0086L346.136 15.8792C346.258 15.7868 346.374 15.6869 346.484 15.5802C346.538 15.5266 346.591 15.4731 346.64 15.4151C346.738 15.2995 346.823 15.1738 346.894 15.0402C346.921 14.9866 346.948 14.9375 346.97 14.8839C346.992 14.8304 346.97 14.8438 346.992 14.8215C347.014 14.7992 347.023 14.7411 347.037 14.7054C347.05 14.6697 347.037 14.6519 347.059 14.6251L347.086 14.518C347.088 14.4897 347.088 14.4614 347.086 14.4332C347.086 14.3975 347.086 14.3618 347.086 14.3305V14.2368C347.084 14.2041 347.084 14.1713 347.086 14.1386C347.088 14.1059 347.088 14.0731 347.086 14.0404C347.086 14.0092 347.086 13.9735 347.086 13.9422C347.088 13.9095 347.088 13.8767 347.086 13.844V13.7235C347.088 13.6894 347.088 13.6551 347.086 13.6209C347.086 13.5897 347.086 13.5584 347.086 13.5272V13.4201V13.3308C347.086 13.2906 347.086 13.2505 347.086 13.2148C347.088 13.188 347.088 13.1612 347.086 13.1344C347.088 13.0928 347.088 13.0511 347.086 13.0094C347.086 12.9827 347.086 12.9604 347.086 12.938C347.086 12.9157 347.086 12.8488 347.055 12.8041V12.7417L347.014 12.5988V12.5453C347.014 12.4962 346.983 12.4471 346.97 12.398V12.3534L346.916 12.1927V12.1659C346.916 12.0901 346.867 12.0097 346.841 11.9338C346.506 10.9698 346.145 10.0102 345.762 9.06407C345.482 8.2723 345.063 7.53751 344.523 6.89501C343.734 6.05594 342.601 5.63641 341.656 4.96695C340.542 4.18144 339.708 3.07013 338.763 2.07932C337.818 1.08852 336.672 0.191434 335.313 0.0262993C334.233 -0.0367519 333.154 0.160694 332.166 0.602039C323.977 3.62802 317.272 9.59071 309.93 14.3216C307.073 16.1649 303.872 17.8921 300.489 17.6555L303.476 22.4043C303.618 22.6363 303.765 22.8506 303.921 23.0916C304.077 23.3326 304.233 23.5379 304.398 23.761C304.819 24.3394 305.351 24.8279 305.963 25.1982C306.117 25.288 306.278 25.3655 306.444 25.4302C306.59 25.4851 306.739 25.5313 306.89 25.5686C307.956 25.823 309.119 25.6088 310.198 25.3945C310.568 25.3231 310.938 25.2473 311.303 25.1625L311.749 25.0375H311.82C311.82 25.0643 311.82 25.0866 311.82 25.1089C311.571 25.5552 311.335 25.9614 311.125 26.4032C310.437 28.0026 309.904 29.6646 309.534 31.3662C308.691 34.7135 307.844 38.1322 308.067 41.5688C308.143 42.7292 308.339 43.9164 308.005 45.0322C307.844 45.5811 307.559 46.1435 307.71 46.688C307.869 47.0024 308.006 47.3275 308.121 47.6609C308.192 48.1787 307.782 48.625 307.488 49.0534C307.193 49.4819 307.042 50.1647 307.461 50.4638C307.036 50.6126 306.662 50.8776 306.381 51.2287C306.1 51.5798 305.922 52.0029 305.869 52.4498C305.879 52.7126 305.827 52.9739 305.718 53.213C305.593 53.3746 305.442 53.5148 305.272 53.6281C304.819 54.0083 304.523 54.5422 304.438 55.1277C303.578 55.1277 302.851 55.9668 302.067 56.4666C301.38 56.8146 300.654 57.0783 299.905 57.2521C297.752 57.9394 295.893 59.3542 294.212 60.8449C293.276 61.6617 292.331 62.5632 291.921 63.7325C291.787 64.1164 291.716 64.5181 291.6 64.9063C291.36 65.6582 291.012 66.3709 290.566 67.0219C289.711 68.3389 288.659 69.5161 287.445 70.512C286.831 71.0069 286.291 71.587 285.841 72.2347C285.159 73.2211 283.772 73.5157 283.041 74.4663C282.778 74.9346 282.48 75.3822 282.15 75.8052C281.583 76.3408 280.728 76.3854 280.005 76.6978C278.316 77.3986 277.536 79.3757 276.029 80.4201C275.946 80.4904 275.839 80.5256 275.73 80.5183C275.601 80.5183 275.525 80.362 275.414 80.2862C275.195 80.1389 274.906 80.2505 274.647 80.3174C274.389 80.3844 274.041 80.3576 273.974 80.0987C270.341 77.894 266.77 75.5017 263.133 73.297L261.475 72.2928L252.604 66.9103C252.499 66.8446 252.377 66.8097 252.254 66.8097C252.13 66.8097 252.009 66.8446 251.904 66.9103L251.627 67.1022C251.182 66.6291 250.687 66.2096 250.393 65.8614C250.272 65.7231 250.152 65.5847 250.027 65.4508C250.108 65.4538 250.189 65.4385 250.263 65.4062C250.363 65.3521 250.438 65.2619 250.474 65.1541C250.509 65.0463 250.503 64.929 250.455 64.826C250.36 64.6226 250.22 64.4439 250.045 64.3038C249.657 63.9275 249.301 63.52 248.979 63.0854C248.633 62.541 248.241 62.0273 247.807 61.5501C247.588 61.3113 247.318 61.1251 247.017 61.0053C246.716 60.8855 246.392 60.8353 246.069 60.8583C245.71 60.9271 245.367 61.065 245.061 61.2645C243.842 61.9737 242.718 62.8361 241.718 63.8307C241.674 63.8624 241.637 63.9038 241.612 63.9518C241.586 63.9998 241.572 64.0531 241.571 64.1074C241.571 64.1967 241.66 64.2637 241.669 64.3485C241.671 64.4311 241.641 64.5114 241.584 64.5716C240.984 65.3172 240.273 65.966 239.475 66.4952C238.343 67.3432 237.236 68.2239 236.154 69.1374C235.477 69.6193 234.941 70.2744 234.603 71.0342C234.367 71.9155 234.464 72.853 234.875 73.6674C235.615 75.4125 236.912 76.8585 238.196 78.2555C238.407 78.543 238.706 78.7531 239.048 78.8535C239.319 78.891 239.595 78.824 239.819 78.6661C240.608 78.1484 240.737 77.0772 240.795 76.14C240.817 75.6936 240.844 75.283 240.871 74.8546C240.869 74.7687 240.886 74.6834 240.92 74.6047C240.988 74.5074 241.082 74.4315 241.192 74.386L242.418 73.7388C242.382 73.6808 242.342 73.6228 242.302 73.5648C243.226 73.2174 244.233 73.1522 245.195 73.3773C245.846 73.5692 246.443 73.9575 247.067 74.1985C246.968 75.0314 247.123 75.8749 247.513 76.6175C249.8 76.8541 251.859 77.8716 253.905 78.8981C255.555 79.7166 257.159 80.6239 258.711 81.6162C259.971 82.4374 261.204 83.2958 262.411 84.1914C264.122 85.4589 265.776 86.8023 267.412 88.1591C268.476 89.0986 269.62 89.9424 270.831 90.6807C274.05 92.4883 278.365 92.5508 281.32 90.2969C285.047 87.4539 289.79 85.9766 293.802 83.5175C294.994 82.85 296.083 82.0126 297.034 81.0315C297.025 81.1473 297.007 81.2622 296.981 81.3752C296.74 82.4865 295.781 83.2898 295.42 84.4145C295.14 85.3072 295.242 86.3381 294.698 87.0924C294.284 87.6681 293.508 88.0787 293.486 88.7884C293.486 88.9847 293.544 89.1811 293.544 89.3775C293.521 89.6261 293.448 89.8675 293.33 90.0871C292.884 91.0913 292.385 92.1446 291.471 92.765C291.114 93.0105 290.659 93.2336 290.579 93.6576C290.574 93.7806 290.542 93.9009 290.486 94.0102C290.334 94.22 290 94.1084 289.759 94.1976C289.425 94.3226 289.371 94.7555 289.237 95.0903C289.115 95.3683 288.909 95.6007 288.647 95.7545C288.385 95.9083 288.082 95.9758 287.78 95.9472C284.735 95.5767 281.744 96.9558 278.677 96.8755C277.621 96.8443 276.568 96.7372 275.508 96.7282C272.253 96.7014 269.066 97.6208 265.932 98.5135C265.583 99.1311 265.367 99.8154 265.299 100.522C264.229 100.797 263.111 100.84 262.023 100.647C261.752 100.593 261.478 100.556 261.203 100.535C261.281 100.334 261.306 100.115 261.274 99.9015C259.993 100.308 258.763 100.857 257.605 101.539C256.843 101.986 256.036 102.611 255.965 103.49C255.954 103.829 256.002 104.167 256.107 104.49L256.522 106.065C256.573 106.357 256.7 106.629 256.892 106.855C257.03 106.989 257.213 107.069 257.338 107.212C257.459 107.381 257.541 107.574 257.578 107.779L257.926 109.145C258.056 109.599 258.148 110.063 258.203 110.533C258.243 110.979 258.203 111.389 258.234 111.818C258.281 112.524 258.383 113.226 258.541 113.916L259.036 116.388C259.147 117.079 259.343 117.754 259.62 118.397C259.83 118.843 260.11 119.227 260.28 119.673C260.414 120.017 260.476 120.383 260.636 120.708C260.925 121.238 261.379 121.658 261.929 121.905C262.121 122.018 262.336 122.085 262.558 122.101C263.191 122.101 263.645 121.512 263.94 120.949C264.526 119.927 264.844 118.772 264.862 117.593C264.862 117.12 264.769 116.651 264.729 116.178C264.622 114.839 265.005 113.536 265.005 112.202C265.02 112.023 264.972 111.844 264.871 111.697C264.769 111.549 264.62 111.44 264.448 111.39C264.488 110.256 264.483 109.055 265.081 108.087C265.377 107.636 265.744 107.237 266.169 106.904C266.333 107.431 266.516 107.953 266.721 108.462C270.114 107.471 273.617 106.516 277.17 106.427ZM349.649 37.8867C349.408 37.976 349.163 38.0653 348.913 38.1456C346.836 38.8374 344.456 39.5113 342.307 39.0382C341.656 38.8501 341.043 38.5478 340.497 38.1456L340.341 38.0474C343.368 37.5163 346.529 37.6457 349.649 37.8867Z" fill="url(#paint0_linear)"/>
<path d="M361.712 33.2952C362.462 32.9732 363.263 32.7873 364.079 32.7462C364.602 32.786 365.116 32.9049 365.603 33.0988C366.484 33.3561 367.307 33.7804 368.028 34.3485C368.385 34.6368 368.668 35.0054 368.855 35.4243C369.041 35.8432 369.126 36.3004 369.103 36.7585C369 37.6512 368.34 38.4233 367.618 38.9901C366.638 39.7961 365.426 40.2655 364.159 40.329C362.741 40.3513 361.404 39.7131 360.036 39.3338C359.04 39.0519 358.012 38.9018 356.978 38.8874C356.457 38.9156 355.935 38.8826 355.422 38.7893C355.165 38.7407 354.922 38.6321 354.715 38.4724C354.507 38.3127 354.34 38.1063 354.227 37.8699C354.098 37.4329 354.098 36.9678 354.227 36.5309C354.33 35.9775 354.312 34.6654 354.802 34.3351C355.194 34.0673 356.585 34.2815 357.067 34.2414C358.644 34.0917 360.201 33.7745 361.712 33.2952Z" fill="#FBBEBE"/>
<path d="M329.888 24.3101C331.238 25.6323 332.401 27.1341 333.342 28.7732C334.912 31.5135 335.91 34.7002 338.273 36.8068C338.9 37.3358 339.567 37.8177 340.265 38.2484C340.811 38.6504 341.424 38.9525 342.075 39.141C344.197 39.6185 346.578 38.9535 348.646 38.2484C350.694 37.5126 352.68 36.6173 354.588 35.5705C354.601 36.4328 354.841 37.2763 355.284 38.0163C355.778 38.717 356.79 39.1276 357.512 38.6857C355.683 39.5463 353.959 40.614 352.373 41.8679C351.762 42.3856 351.196 42.9569 350.545 43.4255C348.196 45.1171 344.946 45.2867 342.775 47.2058C342.453 47.4996 342.048 47.6854 341.616 47.7375C341.183 47.7895 340.745 47.705 340.363 47.4959C339.61 47.0496 339.097 46.2819 338.478 45.6616C337.256 44.4387 335.598 43.7246 334.399 42.4794C333.842 41.9036 333.396 41.2208 332.825 40.6584C332.01 39.8551 330.949 39.3195 330.2 38.4269C329.642 37.7708 329.308 36.9719 328.787 36.2712C328.341 35.6642 327.815 35.1331 327.418 34.486C326.446 32.9373 326.455 30.9155 327.012 29.1793C327.57 27.4432 328.849 25.8231 329.888 24.3101Z" fill="#F86D70"/>
<path opacity="0.1" d="M329.888 24.3101C331.238 25.6323 332.401 27.1341 333.342 28.7732C334.912 31.5135 335.91 34.7002 338.273 36.8068C338.9 37.3358 339.567 37.8177 340.265 38.2484C340.811 38.6504 341.424 38.9525 342.075 39.141C344.197 39.6185 346.578 38.9535 348.646 38.2484C350.694 37.5126 352.68 36.6173 354.588 35.5705C354.601 36.4328 354.841 37.2763 355.284 38.0163C355.778 38.717 356.79 39.1276 357.512 38.6857C355.683 39.5463 353.959 40.614 352.373 41.8679C351.762 42.3856 351.196 42.9569 350.545 43.4255C348.196 45.1171 344.946 45.2867 342.775 47.2058C342.453 47.4996 342.048 47.6854 341.616 47.7375C341.183 47.7895 340.745 47.705 340.363 47.4959C339.61 47.0496 339.097 46.2819 338.478 45.6616C337.256 44.4387 335.598 43.7246 334.399 42.4794C333.842 41.9036 333.396 41.2208 332.825 40.6584C332.01 39.8551 330.949 39.3195 330.2 38.4269C329.642 37.7708 329.308 36.9719 328.787 36.2712C328.341 35.6642 327.815 35.1331 327.418 34.486C326.446 32.9373 326.455 30.9155 327.012 29.1793C327.57 27.4432 328.849 25.8231 329.888 24.3101Z" fill="black"/>
<path d="M250.66 65.5269C250.315 65.0731 249.888 64.6873 249.403 64.3888C248.665 64.0612 247.842 63.9768 247.054 64.1478C245.065 64.4513 243.22 65.3617 241.472 66.3793C240.064 67.1872 238.664 68.0842 237.657 69.3562C237.325 69.7397 237.093 70.1998 236.984 70.6951C236.926 71.1039 236.961 71.5202 237.086 71.9136C237.176 72.3565 237.366 72.7728 237.642 73.1303C237.918 73.4879 238.272 73.7771 238.677 73.9755C239.609 74.3415 240.648 73.9532 241.584 73.5962C242.841 73.1097 244.223 72.6589 245.516 73.0427C246.474 73.3284 247.299 74.0559 248.311 74.0826C249.501 74.1183 250.464 73.1543 251.222 72.2349C251.877 71.4316 253.312 69.9811 253.219 68.8519C253.125 67.7227 251.364 66.3347 250.66 65.5269Z" fill="#FBBEBE"/>
<path d="M265.683 100.264C264.592 100.555 263.45 100.602 262.339 100.402C261.662 100.277 260.833 100.116 260.4 100.647C260.261 100.844 260.168 101.07 260.128 101.308C259.018 105.856 260.035 110.68 261.911 114.987C261.935 115.06 261.978 115.125 262.036 115.175C262.156 115.264 262.321 115.202 262.46 115.144C262.914 114.961 263.339 114.713 263.721 114.407C264.577 113.631 264.76 112.368 264.8 111.212C264.84 110.056 264.822 108.833 265.42 107.842C266.168 106.615 267.733 106.017 268.348 104.718C268.843 103.66 268.585 102.406 268.148 101.326C268.001 100.951 267.943 99.9869 267.595 99.8039C267.247 99.6209 266.079 100.156 265.683 100.264Z" fill="#FBBEBE"/>
<path d="M250.531 65.0716C250.63 65.0167 250.704 64.9262 250.739 64.8185C250.773 64.7108 250.766 64.5938 250.718 64.4914C250.622 64.2874 250.482 64.1074 250.308 63.9647C249.919 63.589 249.564 63.1798 249.247 62.7418C248.897 62.2002 248.505 61.6869 248.075 61.2065C247.856 60.968 247.587 60.7817 247.286 60.6612C246.986 60.5407 246.663 60.4891 246.34 60.5103C245.982 60.5745 245.641 60.7112 245.337 60.912C244.125 61.6156 243.009 62.4737 242.016 63.4649C241.941 63.5407 241.856 63.6345 241.874 63.7416C241.892 63.8487 241.963 63.8933 241.972 63.9826C241.975 64.0632 241.946 64.1417 241.892 64.2013C241.296 64.9439 240.589 65.5898 239.796 66.1159C238.673 66.961 237.573 67.8387 236.498 68.7492C235.825 69.2285 235.293 69.8807 234.96 70.6371C234.732 71.5184 234.832 72.4527 235.241 73.2658C235.985 75.0154 237.282 76.4614 238.562 77.8673C238.776 78.154 239.076 78.365 239.418 78.4698C239.688 78.5065 239.962 78.4396 240.184 78.2823C240.964 77.7691 241.076 76.6979 241.143 75.7652L241.214 74.4753C241.212 74.3909 241.229 74.3071 241.263 74.2299C241.33 74.1317 241.425 74.0556 241.535 74.0112L242.747 73.3685C242.377 72.7647 241.849 72.2731 241.221 71.9461C240.593 71.6191 239.888 71.469 239.181 71.5118C238.858 71.5887 238.518 71.5426 238.227 71.3824C238.087 71.2361 238.008 71.0409 238.008 70.8379C238.008 70.6349 238.087 70.4397 238.227 70.2934C238.523 70.0122 238.885 69.811 239.279 69.7087C242.476 68.5349 245.364 66.6515 248.467 65.2456C248.806 65.0735 249.183 64.9862 249.563 64.9912C249.875 65.0136 250.241 65.1965 250.531 65.0716Z" fill="#F86D70"/>
<path d="M263.124 111.81C262.981 112.078 262.932 112.39 262.776 112.653C262.62 112.917 262.281 113.1 262.018 112.966C261.88 112.869 261.777 112.729 261.724 112.569C260.372 109.473 259.991 106.04 260.632 102.723C260.721 102.181 260.881 101.652 261.109 101.152C261.345 100.67 261.688 100.179 261.59 99.6524C260.317 100.054 259.094 100.599 257.944 101.277C257.186 101.723 256.388 102.344 256.317 103.218C256.31 103.558 256.36 103.895 256.464 104.218L256.883 105.794C256.933 106.086 257.063 106.359 257.257 106.584C257.391 106.717 257.574 106.802 257.703 106.945C257.826 107.111 257.908 107.304 257.944 107.507L258.296 108.873C258.427 109.329 258.521 109.795 258.577 110.266C258.617 110.712 258.577 111.123 258.613 111.551C258.663 112.256 258.767 112.955 258.925 113.644L259.428 116.117C259.542 116.808 259.74 117.482 260.017 118.125C260.226 118.571 260.507 118.955 260.681 119.406C260.81 119.75 260.877 120.116 261.038 120.442C261.327 120.97 261.779 121.391 262.326 121.642C262.518 121.755 262.733 121.823 262.954 121.843C263.583 121.865 264.033 121.254 264.327 120.691C264.902 119.669 265.209 118.517 265.219 117.344C265.219 116.871 265.121 116.402 265.081 115.929C264.969 114.59 265.344 113.292 265.339 111.957C265.348 110.708 263.583 110.944 263.124 111.81Z" fill="#F86D70"/>
<path d="M328.528 34.0485C327.139 33.4086 325.918 32.4536 324.962 31.2591C324.47 30.6292 324.023 29.9656 323.625 29.273C321.932 26.4122 320.478 23.4162 319.278 20.3155C321.177 20.7038 323.17 21.0564 325.038 20.5208C326.012 20.2236 326.92 19.7418 327.712 19.1016C328.728 18.2655 329.671 17.3443 330.53 16.3478C331.179 17.594 331.924 18.7878 332.759 19.9183C333.236 20.561 334.849 21.8687 334.729 22.7435C334.609 23.6182 332.825 24.0556 332.103 24.4707L332.028 24.5198C330.962 25.1938 330.033 26.0611 329.286 27.0771C327.886 29.0677 327.4 31.8437 328.528 34.0485Z" fill="#FBBEBE"/>
<path opacity="0.1" d="M332.139 24.4538C331.067 23.927 330.121 23.1764 329.364 22.2526C328.606 21.3287 328.055 20.2531 327.748 19.0981C328.764 18.262 329.706 17.3408 330.565 16.3443C331.215 17.5905 331.96 18.7843 332.794 19.9148C333.271 20.5575 334.885 21.8652 334.765 22.74C334.644 23.6147 332.861 24.0387 332.139 24.4538Z" fill="black"/>
<path d="M336.151 25.109C340.762 25.109 344.5 21.3663 344.5 16.7496C344.5 12.1328 340.762 8.39019 336.151 8.39019C331.54 8.39019 327.802 12.1328 327.802 16.7496C327.802 21.3663 331.54 25.109 336.151 25.109Z" fill="#FBBEBE"/>
<path d="M317.887 68.8206C317.31 69.1675 316.652 69.3585 315.978 69.3749C315.305 69.3914 314.639 69.2327 314.045 68.9144C313.426 68.5328 312.868 68.0621 312.386 67.5174C309.645 64.7012 307.037 61.7154 305.205 58.2208C304.779 57.4834 304.503 56.6688 304.394 55.8241C304.342 55.402 304.393 54.9736 304.543 54.5756C304.693 54.1777 304.937 53.822 305.254 53.539C305.424 53.4262 305.575 53.2859 305.7 53.1239C305.807 52.886 305.858 52.6261 305.847 52.3652C305.896 51.92 306.071 51.498 306.35 51.1481C306.63 50.7981 307.002 50.5346 307.425 50.388C306.979 50.0846 307.158 49.4106 307.447 48.9777C307.737 48.5448 308.143 48.0851 308.071 47.5852C307.957 47.2518 307.82 46.9267 307.661 46.6123C307.501 46.0678 307.791 45.5054 307.947 44.9609C308.272 43.8451 308.076 42.658 307.996 41.4976C307.759 38.061 308.593 34.6512 309.418 31.3083C309.782 29.6108 310.308 27.952 310.987 26.3543C311.196 25.9079 311.433 25.4616 311.673 25.0644C312.515 23.6986 313.452 22.3936 314.477 21.1592C314.957 20.433 315.616 19.8428 316.39 19.4454C316.462 19.414 316.537 19.3871 316.612 19.3651C317.168 19.2214 317.745 19.1776 318.315 19.2356C319.822 19.3293 321.405 19.6819 322.479 20.7441C323.553 21.8064 323.901 23.297 324.387 24.7342C324.542 25.2151 324.729 25.6849 324.948 26.14C325.657 27.5504 326.812 28.6751 327.949 29.7685L329.183 30.9602C329.803 31.5582 330.877 31.4065 331.461 32.0358C331.699 32.3315 331.876 32.6712 331.983 33.0355C332.642 34.6453 333.027 36.3547 333.12 38.0922C333.124 38.4786 333.102 38.8648 333.053 39.2481C332.902 40.5933 332.307 41.8496 331.363 42.8186C330.293 43.8496 328.804 44.3584 327.739 45.3938C326.847 46.2508 326.33 47.3978 325.822 48.518C324.841 50.6781 323.859 52.8413 322.876 55.0073C322.163 56.4895 321.551 58.0178 321.043 59.582C320.116 62.7017 320.642 67.1023 317.887 68.8206Z" fill="#F86D70"/>
<path d="M292.144 105.597C289.942 105.686 287.735 105.66 285.542 105.869C284.262 105.994 282.987 106.204 281.704 106.258C280.304 106.32 278.9 106.209 277.495 106.235C273.96 106.311 270.475 107.253 267.073 108.226C266.113 105.878 265.612 103.367 265.598 100.83C265.589 100.662 265.589 100.494 265.598 100.326C265.66 99.6078 265.874 98.911 266.226 98.282C269.347 97.3894 272.512 96.4968 275.752 96.5414C276.809 96.5414 277.857 96.6664 278.909 96.6977C281.962 96.7914 284.931 95.4212 287.962 95.805C288.263 95.8348 288.565 95.7683 288.825 95.6151C289.086 95.4619 289.291 95.2299 289.411 94.9526C289.54 94.6223 289.594 94.1894 289.928 94.06C290.169 93.9707 290.499 94.0823 290.65 93.877C290.704 93.7667 290.736 93.6469 290.744 93.5244C290.833 93.0781 291.283 92.8773 291.635 92.6318C292.527 92.0159 293.031 90.9626 293.477 89.9539C293.594 89.7356 293.665 89.4956 293.686 89.2487C293.686 89.0524 293.624 88.856 293.628 88.6552C293.628 87.95 294.417 87.5438 294.827 86.9681C295.367 86.2094 295.273 85.1829 295.536 84.2902C295.893 83.1655 296.842 82.3666 297.078 81.2598C297.105 81.1468 297.123 81.0319 297.132 80.9161C296.186 81.8925 295.104 82.7254 293.918 83.3887C289.959 85.83 285.225 87.2894 281.53 90.1146C278.597 92.3461 274.299 92.2792 271.09 90.4627C269.879 89.7213 268.737 88.8745 267.675 87.9321C266.043 86.5932 264.394 85.223 262.687 83.9466C261.498 83.054 260.266 82.1926 258.991 81.3625C257.448 80.3402 255.849 79.403 254.204 78.5552C252.162 77.5197 250.107 76.4932 247.834 76.2477C247.541 75.6504 247.379 74.9978 247.358 74.3331C247.336 73.6684 247.456 73.0066 247.709 72.3916C248.228 71.1683 248.932 70.0319 249.795 69.022C250.441 68.0733 251.25 67.2468 252.184 66.5807C252.288 66.5148 252.409 66.4799 252.532 66.4799C252.655 66.4799 252.776 66.5148 252.88 66.5807L261.715 72.0123L263.369 73.0254C266.993 75.2569 270.559 77.6447 274.183 79.8629C274.25 80.1172 274.602 80.1485 274.856 80.0815C275.111 80.0146 275.4 79.9075 275.619 80.0548C275.726 80.1262 275.802 80.2601 275.935 80.2868C276.042 80.2904 276.146 80.2556 276.229 80.1887C277.727 79.1577 278.494 77.1761 280.175 76.4843C280.892 76.1897 281.744 76.1451 282.305 75.5917C282.638 75.1697 282.936 74.722 283.197 74.2527C283.924 73.3021 285.301 73.0165 285.974 72.0212C286.42 71.3766 286.956 70.7994 287.566 70.3074C288.78 69.3176 289.832 68.1447 290.686 66.8306C291.127 66.1818 291.471 65.4722 291.707 64.724C291.823 64.3357 291.894 63.9341 292.023 63.5502C292.429 62.3809 293.361 61.4838 294.292 60.6715C295.982 59.1898 297.805 57.7839 299.945 57.1011C300.691 56.9281 301.414 56.6658 302.098 56.32C302.958 55.7934 303.747 54.816 304.732 55.0436C305.106 55.1595 305.443 55.3719 305.709 55.6595C306.917 56.8361 308.028 58.1093 309.03 59.4665C310.62 61.4927 312.208 63.5205 313.795 65.5497C314.296 66.2793 314.929 66.9077 315.663 67.4019C316.727 67.9502 317.949 68.1081 319.118 67.8482C318.962 69.504 317.647 70.8697 317.103 72.4407C316.84 73.2039 316.737 74.0162 316.541 74.7972C316.265 75.7773 315.911 76.7339 315.485 77.6581C314.415 80.153 313.336 82.6612 311.802 84.9017C311.009 86.0666 310.095 87.1332 309.199 88.2267C305.664 92.4979 302.958 97.6483 298.946 101.491C297.974 102.433 297.359 103.723 296.272 104.53C295.09 105.405 293.566 105.539 292.144 105.597Z" fill="#434175"/>
<path opacity="0.1" d="M308.941 48.9687C308.547 48.9879 308.165 49.1028 307.826 49.3034C308.642 49.0178 309.636 49.781 310.389 49.4195C310.742 49.2499 310.688 49.2008 310.389 49.0981C309.939 48.9464 309.395 49.0847 308.941 48.9687Z" fill="black"/>
<path d="M449.674 196.456L416.908 208.105L418.997 213.993L451.763 202.344L449.674 196.456Z" fill="#D0D2D5"/>
<path d="M427.869 220.315L457.695 209.712C458.474 209.434 459.332 209.479 460.08 209.835C460.827 210.191 461.402 210.829 461.679 211.61C461.956 212.391 461.912 213.25 461.556 213.998C461.201 214.746 460.563 215.322 459.783 215.6L429.958 226.203L427.869 220.315Z" fill="#D0D2D5"/>
<path d="M399.454 201.999L406.722 199.415C413.184 197.118 420.292 197.485 426.484 200.435C432.676 203.385 437.443 208.677 439.738 215.147L442.319 222.423C443.216 224.953 443.073 227.736 441.92 230.16C440.768 232.584 438.701 234.45 436.174 235.349L414.07 243.208C411.543 244.106 408.763 243.962 406.342 242.809C403.921 241.655 402.057 239.586 401.159 237.056L393.31 214.925C392.413 212.395 392.556 209.612 393.708 207.188C394.861 204.764 396.928 202.897 399.454 201.999Z" fill="#3F3D56"/>
<path opacity="0.1" d="M308.54 53.3248C308.237 53.2187 307.912 53.1986 307.599 53.2668C307.132 53.3164 306.698 53.5298 306.373 53.8693C306.459 53.9081 306.553 53.9281 306.647 53.9281C306.742 53.9281 306.835 53.9081 306.921 53.8693C307.213 53.7953 307.513 53.7623 307.813 53.7711C308.071 53.7711 308.843 54.0567 309.043 53.9318C309.337 53.7399 308.74 53.4007 308.54 53.3248Z" fill="black"/>
<path opacity="0.1" d="M333.053 39.2486C332.382 39.0215 331.741 38.7127 331.145 38.3292C329.58 37.3339 328.265 35.9816 326.718 34.964C325.937 34.4727 325.129 34.0257 324.298 33.6251L319.078 30.9472C318.68 30.7206 318.254 30.5465 317.812 30.4295C316.96 30.2421 316.002 30.8134 315.137 30.6929C314.689 30.6104 314.263 30.4337 313.888 30.1744C313.513 29.9151 313.197 29.5792 312.962 29.1888C312.49 28.4088 312.158 27.5524 311.981 26.6582C311.848 26.1309 311.748 25.5958 311.682 25.056C311.605 24.4954 311.594 23.9275 311.651 23.3644C311.74 22.2461 312.269 21.2091 313.122 20.4813C313.741 20.0412 314.446 19.737 315.191 19.5887C315.66 19.4698 316.139 19.3907 316.621 19.3521C316.896 19.3298 317.172 19.3298 317.446 19.3521C319.416 19.5083 321.084 20.8473 322.399 22.3201C323.09 23.0967 323.736 23.9313 324.396 24.7212C324.55 25.2022 324.738 25.672 324.957 26.1271C325.666 27.5374 326.821 28.6621 327.958 29.7556L329.192 30.9472C329.812 31.5453 330.886 31.3936 331.47 32.0229C331.708 32.3186 331.885 32.6583 331.992 33.0226C332.65 34.6371 333.031 36.3512 333.12 38.0927C333.124 38.4791 333.102 38.8653 333.053 39.2486Z" fill="black"/>
<path opacity="0.1" d="M292.456 96.3669L265.593 100.326C265.655 99.6074 265.87 98.9105 266.222 98.2816C269.342 97.389 272.507 96.4964 275.748 96.541C276.805 96.541 277.852 96.666 278.904 96.6972C281.958 96.7909 284.927 95.4208 287.958 95.8046C288.258 95.8343 288.561 95.7678 288.821 95.6146C289.081 95.4614 289.286 95.2295 289.407 94.9521C289.536 94.6219 289.589 94.1889 289.924 94.0595C290.164 93.9703 290.494 94.0818 290.646 93.8765C290.7 93.7663 290.732 93.6465 290.739 93.524C290.829 93.0776 291.279 92.8768 291.631 92.6313C292.523 92.0154 293.026 90.9621 293.472 89.9535C293.589 89.7352 293.661 89.4952 293.682 89.2483C293.682 89.0519 293.619 88.8555 293.624 88.6547C293.624 87.9495 294.413 87.5434 294.823 86.9677C295.362 86.2089 295.269 85.1824 295.532 84.2898C295.888 83.1651 296.838 82.3662 297.074 81.2594L297.19 81.1076L301.764 79.3224L292.456 96.3669Z" fill="black"/>
<path opacity="0.1" d="M189.455 313.162C294.088 313.162 378.91 306.568 378.91 298.434C378.91 290.3 294.088 283.706 189.455 283.706C84.8218 283.706 0 290.3 0 298.434C0 306.568 84.8218 313.162 189.455 313.162Z" fill="#1A75FF"/>
<path opacity="0.1" d="M356.942 352C424.646 352 479.53 344.852 479.53 336.035C479.53 327.218 424.646 320.071 356.942 320.071C289.238 320.071 234.354 327.218 234.354 336.035C234.354 344.852 289.238 352 356.942 352Z" fill="#1A75FF"/>
<path d="M211.855 286.508L211.98 280.188C217.923 279.849 223.867 279.623 229.811 279.51C233.261 279.447 236.756 279.425 240.095 280.291C242.408 280.893 244.597 281.911 246.88 282.625C251.426 284.044 256.241 284.232 261.015 284.361C265.647 284.491 270.483 284.535 274.642 282.487C281.842 278.916 284.869 270.146 285.221 262.117C285.573 254.088 283.977 245.997 285.087 238.017" stroke="#3F3D56" stroke-width="12" stroke-miterlimit="10"/>
<path d="M228.153 298.876L148.72 297.858L148.952 295.819L152.794 262.171H222.549L227.685 295.819L228.077 298.367L228.153 298.876Z" fill="#D0D2D5"/>
<path opacity="0.1" d="M228.077 298.367H188.434L148.72 297.858L148.952 295.818H227.685L228.077 298.367Z" fill="black"/>
<path d="M240.884 296.328H135.48V298.876H240.884V296.328Z" fill="#D0D2D5"/>
<path d="M341.447 60.0827C341.454 59.2089 341.289 58.3422 340.962 57.5324C340.634 56.7225 340.15 55.9854 339.537 55.3634C338.924 54.7414 338.194 54.2467 337.39 53.9077C336.585 53.5687 335.722 53.3921 334.849 53.388H40.4942C39.6216 53.3927 38.7585 53.5697 37.9543 53.9089C37.1502 54.2481 36.4208 54.7428 35.8079 55.3647C35.1951 55.9866 34.7108 56.7235 34.3828 57.533C34.0548 58.3426 33.8897 59.2091 33.8967 60.0827V238.723H341.447V60.0827Z" fill="#3F3D56"/>
<path d="M33.8967 236.936V257.864C33.8967 259.616 34.5918 261.296 35.8291 262.535C37.0664 263.773 38.7445 264.469 40.4942 264.469H334.849C336.599 264.469 338.277 263.773 339.514 262.535C340.751 261.296 341.447 259.616 341.447 257.864V236.936H33.8967Z" fill="#D0D2D5"/>
<path d="M330.244 64.6252H46.6282V225.212H330.244V64.6252Z" fill="#2F2E41"/>
<path d="M189.201 256.53C190.242 256.53 191.27 256.293 192.206 255.838C193.143 255.382 193.964 254.72 194.608 253.901C194.804 253.65 194.983 253.386 195.143 253.111L191.372 252.49L195.45 252.522C195.842 251.669 196.055 250.746 196.077 249.808C196.099 248.87 195.93 247.938 195.58 247.068L190.11 249.911L195.156 246.197C194.691 245.366 194.058 244.641 193.298 244.067C192.537 243.494 191.667 243.084 190.74 242.865C189.814 242.646 188.852 242.622 187.916 242.795C186.98 242.968 186.089 243.333 185.302 243.868C184.514 244.403 183.846 245.096 183.34 245.903C182.833 246.71 182.5 247.613 182.361 248.556C182.221 249.499 182.279 250.46 182.53 251.38C182.782 252.299 183.221 253.156 183.82 253.896C184.46 254.714 185.277 255.375 186.208 255.831C187.14 256.287 188.163 256.526 189.201 256.53Z" fill="#1A75FF"/>
<path opacity="0.1" d="M196.075 264.465L227.765 296.327L222.902 264.465H196.075Z" fill="black"/>
<path d="M332.183 63.3175L349.203 40.7387C350.22 39.3998 351.267 38.0028 352.662 37.0388C356.674 34.2628 362.554 35.9052 365.911 39.4623C369.268 43.0194 370.676 47.9689 371.706 52.7534C374.104 63.7657 375.176 75.026 374.898 86.2936C374.755 92.225 374.225 98.2189 372.339 103.847C369.477 112.407 363.678 119.615 359.296 127.501C352.239 140.208 349.283 157.154 358.217 168.62C361.128 172.355 365.091 175.212 367.779 179.113C370.814 183.518 371.996 188.905 373.128 194.135C374.817 202.035 376.511 209.984 376.824 218.058C377.831 244.162 362.964 270.245 340.007 282.661C324.07 291.284 304.791 293.783 290.931 305.476C286.028 309.596 281.802 315.652 283.005 321.927C283.986 327.02 288.453 330.889 293.356 332.572C298.26 334.254 303.578 334.116 308.749 333.821C321.169 333.11 333.529 331.582 345.748 329.247C356.104 327.265 366.441 325.556 375.468 320.102C376.373 319.623 377.146 318.929 377.719 318.08C378.303 317.103 378.402 315.92 378.482 314.782C378.727 311.43 378.959 307.953 377.777 304.807C376.4 301.129 373.257 298.344 371.751 294.72C370.244 291.096 370.516 286.923 371.492 283.116C372.696 278.412 374.884 274.029 377.087 269.705C379.231 265.491 381.406 261.292 383.929 257.297C391.035 246.068 400.744 236.767 410.35 227.595" stroke="#3F3D56" stroke-width="12" stroke-miterlimit="10"/>
<path d="M360.347 30.9521C361.096 30.6259 361.899 30.4398 362.715 30.4031C363.237 30.4437 363.751 30.561 364.239 30.7512C365.12 31.0101 365.943 31.4358 366.664 32.0053C367.021 32.2932 367.305 32.6617 367.491 33.0808C367.678 33.4998 367.763 33.9572 367.738 34.4154C367.636 35.308 366.976 36.0757 366.254 36.647C365.275 37.4544 364.062 37.9239 362.795 37.9859C361.377 37.9859 360.04 37.37 358.671 36.9862C357.676 36.7042 356.648 36.5542 355.613 36.5399C355.093 36.5665 354.57 36.532 354.058 36.4372C353.801 36.3894 353.559 36.2817 353.351 36.1227C353.143 35.9637 352.976 35.758 352.863 35.5223C352.74 35.092 352.74 34.6359 352.863 34.2056C352.97 33.6522 352.952 32.3356 353.442 32.0053C353.835 31.742 355.225 31.9563 355.707 31.9161C357.283 31.756 358.838 31.4329 360.347 30.9521Z" fill="#FBBEBE"/>
<path d="M354.165 31.398C352.319 32.2459 350.153 31.5408 348.147 31.5363C347.162 31.5363 346.181 31.7015 345.2 31.7595C344.113 31.7982 343.025 31.7699 341.942 31.6747L338.678 31.4515C336.756 31.3876 334.845 31.1244 332.977 30.666C331.381 28.7826 328.791 27.9524 326.865 26.4171C325.323 25.1853 324.217 23.5072 322.902 22.0299C321.587 20.5526 319.92 19.2182 317.954 19.062C317.193 19.0239 316.43 19.1052 315.694 19.303C314.95 19.4484 314.246 19.7528 313.63 20.1956C313.207 20.5553 312.86 20.9952 312.607 21.4901C312.355 21.9849 312.202 22.5248 312.159 23.0787C312.078 24.1872 312.188 25.3015 312.485 26.3725C312.662 27.2681 312.994 28.1259 313.465 28.9076C313.704 29.2965 314.021 29.6312 314.397 29.8902C314.772 30.1492 315.197 30.3268 315.645 30.4116C316.506 30.5277 317.459 29.9653 318.32 30.1438C318.762 30.2609 319.188 30.4349 319.586 30.6615L324.81 33.3394C325.64 33.741 326.446 34.1879 327.226 34.6783C328.778 35.6959 330.088 37.0482 331.653 38.0435C333.218 39.0388 335.192 39.6636 336.931 39.012C342.28 37.017 348.307 37.9453 353.982 38.4407C353.946 38.3336 354.178 38.2354 354.245 38.1462C354.947 37.1817 355.265 35.9898 355.136 34.8033C354.998 33.6295 354.552 32.5227 354.165 31.398Z" fill="#F86D70"/>
<path d="M345.191 16.3618C345.746 16.1061 346.212 15.6895 346.528 15.1657C347.037 14.224 346.725 13.0681 346.377 12.0416C346.029 11.0151 345.677 10.118 345.289 9.1718C345.012 8.37784 344.592 7.64126 344.05 6.99827C343.261 6.15475 342.133 5.73075 341.193 5.06575C340.078 4.27578 339.244 3.15554 338.304 2.1692C337.363 1.18286 336.213 0.267922 334.858 0.102788C333.814 0.0502832 332.773 0.244455 331.818 0.669601C323.678 3.66434 317.023 9.59579 309.734 14.2999C306.899 16.1342 303.716 17.8436 300.373 17.5981L303.364 22.3558C304.126 23.5742 304.982 24.864 306.319 25.3862C307.501 25.8325 308.82 25.6094 310.06 25.3862C311.046 25.2432 312.006 24.9544 312.908 24.5293C314.691 23.5608 315.837 21.548 317.754 20.8473C319.185 20.3251 320.78 20.6464 322.211 21.1463C323.642 21.6462 325.047 22.3245 326.553 22.5298C329.228 22.8914 331.903 21.6819 334.131 20.1198C335.469 19.1915 336.686 18.1248 338.143 17.4419C339.24 16.8722 340.485 16.6526 341.71 16.8126C343.06 17.0001 343.854 17.0626 345.191 16.3618Z" fill="#2F2E41"/>
<path opacity="0.1" d="M346.528 15.1653C347.028 14.2414 346.734 13.1078 346.395 12.1125C346.505 12.6827 346.426 13.2733 346.172 13.7951C345.853 14.3162 345.388 14.7321 344.835 14.9912C343.497 15.6964 342.686 15.6339 341.313 15.4063C340.088 15.2491 338.844 15.4686 337.747 16.0356C336.298 16.7363 335.072 17.8208 333.735 18.7134C331.506 20.2755 328.831 21.4805 326.157 21.119C324.645 20.9182 323.25 20.2264 321.815 19.7355C320.379 19.2445 318.779 18.9143 317.357 19.4364C315.445 20.1371 314.312 22.1545 312.516 23.1185C311.614 23.543 310.654 23.8317 309.667 23.9754C308.424 24.2164 307.104 24.453 305.927 23.9754C304.59 23.4577 303.734 22.1634 302.967 20.945L300.85 17.5753C300.68 17.5753 300.507 17.5753 300.337 17.5753L303.328 22.333C304.091 23.5514 304.946 24.8413 306.284 25.3634C307.465 25.8097 308.785 25.5866 310.024 25.3634C311.01 25.2204 311.97 24.9316 312.872 24.5065C314.655 23.538 315.801 21.5252 317.718 20.8245C319.149 20.3023 320.745 20.6236 322.176 21.1235C323.607 21.6234 325.011 22.3018 326.518 22.5071C329.192 22.8686 331.867 21.6591 334.096 20.097C335.433 19.1687 336.65 18.102 338.108 17.4191C339.204 16.8494 340.449 16.6298 341.674 16.7898C343.047 17.013 343.858 17.0755 345.191 16.3748C345.748 16.1155 346.214 15.6939 346.528 15.1653Z" fill="black"/>
<path d="M369.575 320.454C369.838 320.044 370.166 319.679 370.547 319.374C372.495 317.535 373.4 314.831 373.881 312.18C374.363 309.529 374.501 306.824 375.272 304.231C375.689 302.9 376.214 301.606 376.841 300.361C377.287 299.406 377.844 297.532 378.665 296.867C378.824 296.727 379.018 296.633 379.226 296.595C379.609 295.773 380.159 295.041 380.84 294.443C382.115 293.287 383.671 292.368 384.522 290.873C384.755 290.354 385.043 289.861 385.382 289.405C385.957 288.766 386.867 288.512 387.397 287.838C388.088 286.972 387.932 285.736 387.843 284.629C387.754 283.522 387.843 282.206 388.797 281.63C389.368 281.277 390.103 281.308 390.696 281.001C391.588 280.554 391.94 279.425 391.922 278.421C391.904 277.417 391.592 276.439 391.512 275.439C391.262 272.244 393.366 269.066 392.55 265.969C392.243 264.795 391.543 263.773 391.021 262.684C390.843 262.318 390.694 261.939 390.576 261.55C389.186 262.103 387.726 262.456 386.238 262.599C388.694 257.083 388.07 250.669 389.216 244.747L389.069 244.541C387.909 243.016 387.252 241.168 387.188 239.253C387.188 237.021 388.217 234.982 388.681 232.826C389.073 230.987 389.06 229.072 389.573 227.269C389.932 226.149 390.405 225.07 390.986 224.047C391.543 223.012 392.127 221.998 392.738 220.999C393.308 219.106 393.88 217.214 394.454 215.322C395.256 212.644 396.081 209.966 397.641 207.672C398.212 206.828 398.386 205.128 399.264 204.619C399.976 204.247 400.786 204.106 401.582 204.213C402.821 203.517 403.909 202.512 404.065 201.138C404.08 200.838 404.05 200.537 403.976 200.245H403.824C401.858 200.062 400.869 198.331 399.848 196.818C398.194 194.358 398.827 191.038 399.848 188.248C400.101 187.367 400.559 186.558 401.185 185.887C402.616 184.549 404.881 184.843 406.726 184.196C407.325 183.934 407.936 183.703 408.558 183.504C409.784 183.214 411.068 183.62 412.191 184.183C413.315 184.745 414.362 185.486 415.539 185.932C416.716 186.378 418.169 186.731 418.459 187.94C418.541 188.348 418.505 188.771 418.356 189.159C418.086 189.933 417.612 190.619 416.983 191.145C417.485 192.18 417.756 193.311 417.778 194.461C417.8 195.61 417.573 196.751 417.113 197.804C416.652 198.858 415.969 199.799 415.11 200.562C414.251 201.326 413.237 201.894 412.138 202.227C411.799 202.767 411.483 203.325 411.193 203.892C410.676 204.891 410.239 206.07 410.413 207.141C410.736 207.481 411.034 207.845 411.304 208.23C412.584 210.015 413.31 212.113 413.979 214.201C414.881 216.867 415.602 219.592 416.136 222.355C417.224 224.667 418.553 226.881 419.342 229.313C420.754 229.317 422.161 229.129 423.523 228.756L427.285 227.899C428.591 227.604 429.96 227.283 430.985 226.417C431.529 225.971 431.953 225.377 432.505 224.931C433.058 224.484 434.168 223.971 434.774 224.337C434.885 224.404 434.988 224.484 435.082 224.574C435.63 223.458 439.138 228.024 436.74 228.474L436.896 228.921C437.213 229.844 437.886 230.969 437.716 231.933L420.973 237.686C419.899 238.122 418.76 238.374 417.603 238.431C417.152 238.428 416.702 238.368 416.266 238.253V239.11V239.141C416.221 245.028 417.157 250.879 417.331 256.761C417.362 257.833 417.331 258.993 416.654 259.832C415.896 260.751 414.549 260.93 413.377 260.725C413.097 260.68 412.821 260.618 412.548 260.542C412.152 262.021 411.866 263.528 411.692 265.049L410.582 272.976C410.438 273.792 410.379 274.62 410.408 275.448C410.537 277.314 411.523 278.992 412.236 280.719C412.949 282.447 413.373 284.513 412.432 286.124C412.142 286.624 411.737 287.052 411.474 287.57C411.139 288.37 410.987 289.235 411.028 290.101C410.96 292.511 410.894 294.918 410.832 297.322C411.027 297.294 411.225 297.335 411.393 297.438C412.321 298.157 412.218 301.602 412.285 302.669C412.356 304.454 412.285 306.275 412.383 308.078C412.503 310.516 412.904 312.931 413.578 315.277C413.738 316.038 414.09 316.746 414.599 317.335C415.119 317.787 415.739 318.109 416.408 318.276C418.631 318.972 420.955 319.289 423.282 319.214C424.223 319.182 425.204 319.093 426.077 319.45C426.951 319.807 427.655 320.789 427.339 321.682C427.067 322.431 426.242 322.789 425.498 323.07C423.796 323.668 422.155 324.424 420.594 325.328C419.992 325.739 419.357 326.099 418.695 326.404C418.063 326.632 417.409 326.794 416.743 326.886L408.844 328.225C407.225 328.506 405.277 328.671 404.248 327.332C403.69 326.609 403.61 325.627 403.637 324.712C403.681 322.927 404.038 321.11 403.802 319.325C403.629 318.268 403.353 317.231 402.977 316.228L400.606 309.212C399.812 306.86 399.01 304.49 398.702 302.026C398.591 301.134 398.6 300.12 399.282 299.563C399.454 299.421 399.655 299.317 399.87 299.259C399.897 297.108 400.178 294.952 400.057 292.801C400.026 292.265 399.973 291.725 399.928 291.19C399.511 291.581 399.14 292.018 398.823 292.493C398.065 293.685 397.784 295.265 396.62 296.063C395.631 296.742 394.164 296.706 393.469 297.688C393.245 298.065 393.077 298.473 392.969 298.898C392.563 299.948 391.958 300.911 391.186 301.732C390.918 302.71 390.549 303.659 390.085 304.561C389.429 305.945 388.775 307.328 388.124 308.712C387.424 310.194 386.72 311.675 385.895 313.077C385.27 313.966 384.767 314.936 384.402 315.96C383.773 318.165 384.794 320.584 386.421 322.208C388.048 323.833 390.183 324.766 392.287 325.636C392.512 325.71 392.717 325.831 392.889 325.993C393.071 326.21 393.166 326.487 393.157 326.77C393.157 327.801 392.314 328.684 391.342 329.001C390.349 329.268 389.308 329.306 388.298 329.113C382.601 328.421 376.922 327.028 371.884 324.257C371.131 323.897 370.462 323.382 369.923 322.744C369.669 322.427 369.503 322.048 369.442 321.646C369.381 321.244 369.427 320.833 369.575 320.454Z" fill="url(#paint1_linear)"/>
<path d="M393.656 220.369C392.708 221.827 391.816 223.324 390.981 224.859C390.399 225.872 389.926 226.943 389.568 228.055C389.047 229.84 389.064 231.75 388.677 233.571C388.231 235.714 387.188 237.758 387.188 239.949C387.253 241.853 387.911 243.69 389.069 245.202C390.224 246.699 391.542 248.061 393.001 249.264C396.367 240.533 398.247 231.298 398.564 221.945C398.609 220.651 398.613 219.312 398.145 218.107C397.851 217.348 396.464 215.268 395.568 216.085C395.243 216.384 395.158 217.732 394.958 218.178C394.582 218.942 394.147 219.674 393.656 220.369Z" fill="#F86D70"/>
<path opacity="0.1" d="M393.656 220.369C392.708 221.827 391.816 223.324 390.981 224.859C390.399 225.872 389.926 226.943 389.568 228.055C389.047 229.84 389.064 231.75 388.677 233.571C388.231 235.714 387.188 237.758 387.188 239.949C387.253 241.853 387.911 243.69 389.069 245.202C390.224 246.699 391.542 248.061 393.001 249.264C396.367 240.533 398.247 231.298 398.564 221.945C398.609 220.651 398.613 219.312 398.145 218.107C397.851 217.348 396.464 215.268 395.568 216.085C395.243 216.384 395.158 217.732 394.958 218.178C394.582 218.942 394.147 219.674 393.656 220.369Z" fill="black"/>
<path d="M441.51 225.249C443.253 224.958 445.188 225.101 446.543 226.23C447.361 226.926 447.878 227.911 447.987 228.98C448.103 230.22 447.385 231.684 446.146 231.783C445.848 231.786 445.55 231.766 445.254 231.724C444.472 231.72 443.69 231.784 442.919 231.916C441.4 232.059 439.869 231.835 438.454 231.264C437.04 230.692 435.782 229.79 434.788 228.632C433.727 227.319 435.126 226.717 436.388 226.449C438.109 226.083 439.789 225.543 441.51 225.249Z" fill="#FBBEBE"/>
<path d="M411.697 265.558L410.591 273.422C410.448 274.232 410.391 275.055 410.422 275.877C410.551 277.729 411.532 279.394 412.245 281.108C412.958 282.822 413.386 284.87 412.445 286.464C412.156 286.963 411.746 287.383 411.487 287.896C411.153 288.692 411.001 289.552 411.041 290.413L410.738 301.571C407.297 301.804 403.843 301.785 400.405 301.513C400.27 301.525 400.135 301.49 400.022 301.415C399.932 301.299 399.886 301.155 399.892 301.009C399.741 298.398 400.196 295.782 400.048 293.172C399.995 292.216 399.857 291.266 399.843 290.306C399.785 286.419 401.707 282.612 401.127 278.765C400.945 277.797 400.707 276.84 400.414 275.899C398.582 269.205 398.97 262.166 399.371 255.258C399.367 255.147 399.398 255.037 399.46 254.945C399.529 254.88 399.613 254.834 399.705 254.811C401.656 254.227 403.718 254.121 405.718 254.503C407.718 254.884 409.598 255.741 411.197 257.003C411.683 257.395 412.909 257.775 413.23 258.239C413.676 258.895 413.087 259.542 412.833 260.238C412.265 261.966 411.884 263.749 411.697 265.558Z" fill="#3F3D56"/>
<path opacity="0.1" d="M411.697 265.558L410.591 273.422C410.448 274.232 410.391 275.055 410.422 275.877C410.551 277.729 411.532 279.394 412.245 281.108C412.958 282.822 413.386 284.87 412.445 286.464C412.156 286.963 411.746 287.383 411.487 287.896C411.153 288.692 411.001 289.552 411.041 290.413L410.738 301.571C407.297 301.804 403.843 301.785 400.405 301.513C400.27 301.525 400.135 301.49 400.022 301.415C399.932 301.299 399.886 301.155 399.892 301.009C399.741 298.398 400.196 295.782 400.048 293.172C399.995 292.216 399.857 291.266 399.843 290.306C399.785 286.419 401.707 282.612 401.127 278.765C400.945 277.797 400.707 276.84 400.414 275.899C398.582 269.205 398.97 262.166 399.371 255.258C399.367 255.147 399.398 255.037 399.46 254.945C399.529 254.88 399.613 254.834 399.705 254.811C401.656 254.227 403.718 254.121 405.718 254.503C407.718 254.884 409.598 255.741 411.197 257.003C411.683 257.395 412.909 257.775 413.23 258.239C413.676 258.895 413.087 259.542 412.833 260.238C412.265 261.966 411.884 263.749 411.697 265.558Z" fill="black"/>
<path d="M391.026 263.184C391.547 264.269 392.247 265.282 392.555 266.447C393.371 269.522 391.271 272.695 391.521 275.846C391.601 276.841 391.908 277.81 391.931 278.805C391.953 279.8 391.587 280.907 390.705 281.362C390.112 281.67 389.368 281.639 388.81 281.987C387.87 282.558 387.763 283.87 387.856 284.964C387.95 286.057 388.102 287.289 387.411 288.151C386.88 288.816 385.971 289.07 385.4 289.699C385.059 290.152 384.769 290.642 384.535 291.159C383.684 292.645 382.133 293.56 380.858 294.729C379.583 295.899 378.504 297.612 379.075 299.228C379.494 300.42 380.67 301.152 381.803 301.709C383.869 302.732 386.049 303.503 388.298 304.008C388.539 304.08 388.795 304.092 389.042 304.044C389.292 303.951 389.516 303.797 389.693 303.597C391.008 302.308 392.368 300.955 392.974 299.219C393.082 298.797 393.251 298.393 393.473 298.018C394.169 297.046 395.631 297.077 396.625 296.407C397.784 295.617 398.065 294.046 398.822 292.864C399.54 291.748 400.69 290.98 401.497 289.936C402.834 288.204 403.196 285.897 404.172 283.92C404.586 283.076 405.117 282.295 405.447 281.416C405.78 280.369 405.985 279.285 406.057 278.189C406.686 272.976 408.286 267.727 407.279 262.568C407.056 261.43 406.713 260.337 406.57 259.167C406.32 257.141 406.713 255.075 406.414 253.053C406.407 252.8 406.343 252.552 406.227 252.328C406.11 252.104 405.944 251.909 405.741 251.758C405.5 251.651 405.238 251.596 404.974 251.598C402.331 251.46 399.682 251.521 397.048 251.781C395.711 251.91 394.209 252.182 393.411 253.276C392.729 254.209 392.764 255.467 392.519 256.605C392.252 258.002 391.543 258.77 390.798 259.868C390.054 260.966 390.478 262.055 391.026 263.184Z" fill="#3F3D56"/>
<path d="M401.31 299.452C400.606 299.452 399.825 299.412 399.282 299.858C398.604 300.411 398.591 301.433 398.702 302.308C399.014 304.749 399.812 307.102 400.61 309.449L402.982 316.416C403.358 317.41 403.634 318.438 403.806 319.487C404.042 321.272 403.686 323.057 403.641 324.842C403.641 325.735 403.699 326.726 404.256 327.444C405.264 328.739 407.23 328.587 408.848 328.31L416.743 326.971C417.408 326.88 418.063 326.72 418.695 326.494C419.355 326.189 419.989 325.831 420.59 325.423C422.152 324.529 423.793 323.782 425.493 323.191C426.233 322.914 427.062 322.557 427.33 321.812C427.646 320.919 426.942 319.942 426.068 319.58C425.195 319.219 424.218 319.313 423.273 319.344C420.949 319.419 418.629 319.104 416.408 318.411C415.739 318.25 415.118 317.93 414.598 317.478C414.088 316.898 413.735 316.195 413.573 315.439C412.905 313.112 412.504 310.716 412.378 308.298C412.289 306.512 412.352 304.727 412.28 302.942C412.236 301.884 412.338 298.479 411.389 297.751C410.68 297.207 407.76 298.711 406.806 298.93C405.003 299.333 403.157 299.508 401.31 299.452Z" fill="#2F2E41"/>
<path d="M375.299 304.415C374.532 306.977 374.407 309.677 373.913 312.306C373.418 314.934 372.531 317.621 370.583 319.446C370.203 319.747 369.875 320.109 369.615 320.518C369.451 320.9 369.395 321.32 369.454 321.732C369.513 322.144 369.685 322.531 369.95 322.852C370.488 323.487 371.155 323.999 371.907 324.356C376.939 327.105 382.605 328.489 388.316 329.176C389.324 329.369 390.363 329.332 391.356 329.069C392.328 328.739 393.188 327.864 393.17 326.837C393.179 326.557 393.084 326.283 392.903 326.07C392.729 325.911 392.524 325.791 392.301 325.717C390.197 324.851 388.057 323.905 386.434 322.312C384.812 320.718 383.787 318.295 384.415 316.126C384.783 315.111 385.284 314.149 385.904 313.265C386.721 311.861 387.465 310.416 388.133 308.936L390.094 304.816C390.665 303.616 391.249 302.375 391.342 301.041C388.88 301.152 386.421 300.759 384.116 299.885C383.04 299.445 382.037 298.843 381.143 298.099C380.385 297.466 379.694 296.287 378.673 297.113C377.853 297.774 377.336 299.63 376.85 300.576C376.234 301.814 375.715 303.097 375.299 304.415Z" fill="#2F2E41"/>
<path d="M404.034 202.129C403.837 203.838 402.179 204.972 400.597 205.646L410.609 208.85C409.962 207.61 410.488 206.092 411.13 204.833C411.653 203.838 412.249 202.884 412.913 201.977C413.012 201.839 413.123 201.66 413.052 201.504C412.988 201.399 412.888 201.321 412.771 201.285C410.711 200.366 408.589 199.415 406.338 199.081C405.687 198.982 404.457 198.724 403.971 199.389C403.485 200.054 404.141 201.339 404.034 202.129Z" fill="#FBBEBE"/>
<path opacity="0.1" d="M404.034 202.129C403.837 203.838 402.179 204.972 400.597 205.646L410.609 208.85C409.962 207.61 410.488 206.092 411.13 204.833C411.653 203.838 412.249 202.884 412.913 201.977C413.012 201.839 413.123 201.66 413.052 201.504C412.988 201.399 412.888 201.321 412.771 201.285C410.711 200.366 408.589 199.415 406.338 199.081C405.687 198.982 404.457 198.724 403.971 199.389C403.485 200.054 404.141 201.339 404.034 202.129Z" fill="black"/>
<path d="M409.869 203.517C414.207 203.517 417.723 199.997 417.723 195.653C417.723 191.31 414.207 187.789 409.869 187.789C405.531 187.789 402.014 191.31 402.014 195.653C402.014 199.997 405.531 203.517 409.869 203.517Z" fill="#FBBEBE"/>
<path d="M416.654 260.355C415.896 261.247 414.554 261.444 413.382 261.247C410.64 260.801 408.393 258.779 405.714 258.052C402.424 257.159 398.938 258.306 395.836 259.708C392.733 261.109 389.639 262.809 386.243 263.077C389.314 256.222 387.558 247.97 390.491 241.056C391.213 239.369 392.216 237.736 392.377 235.91C392.577 233.639 391.445 231.447 391.271 229.185C391.111 227.172 391.717 225.168 392.292 223.253L394.445 216.179C395.247 213.546 396.072 210.864 397.628 208.592C398.198 207.757 398.377 206.07 399.25 205.561C401.158 204.463 404.051 205.851 406.12 205.927C408.188 206.003 410.074 207.476 411.282 209.141C412.561 210.899 413.288 212.992 413.957 215.063C415.025 218.146 415.821 221.317 416.337 224.538C416.404 225.02 416.462 225.502 416.506 225.989C416.952 230.573 416.301 235.183 416.266 239.784C416.266 239.784 416.266 239.784 416.266 239.82C416.226 245.658 417.157 251.464 417.336 257.302C417.362 258.387 417.336 259.551 416.654 260.355Z" fill="#F86D70"/>
<path opacity="0.1" d="M416.266 239.824C414.728 239.436 413.332 238.445 412.142 237.356C411.11 236.435 410.191 235.394 409.405 234.254C408.418 232.697 407.626 231.025 407.047 229.274C405.396 224.625 404.347 219.783 403.927 214.867C403.811 213.528 403.775 212.095 404.573 211.033C405.02 210.457 405.648 210.05 406.355 209.877C407.063 209.704 407.808 209.777 408.469 210.082C409.526 210.6 410.208 211.64 410.836 212.631C412.093 214.608 413.355 216.603 414.162 218.799C414.518 219.772 414.781 220.776 415.129 221.753C415.483 222.717 415.89 223.661 416.35 224.578C416.417 225.06 416.475 225.542 416.52 226.029C416.934 230.59 416.301 235.201 416.266 239.824Z" fill="black"/>
<path d="M404.591 210.167C403.797 211.225 403.833 212.676 403.945 214.001C404.365 218.916 405.414 223.756 407.065 228.404C407.64 230.156 408.432 231.829 409.423 233.385C410.208 234.525 411.127 235.566 412.16 236.486C413.676 237.874 415.521 239.111 417.576 239.129C418.733 239.072 419.872 238.823 420.946 238.392L437.667 232.706C437.837 231.747 437.164 230.635 436.847 229.716L435.956 227.065C435.702 226.337 435.403 225.547 434.743 225.15C434.083 224.753 433.027 225.297 432.474 225.739C431.921 226.181 431.498 226.761 430.959 227.212C429.924 228.069 428.565 228.386 427.259 228.68L423.501 229.528C422.138 229.898 420.732 230.084 419.319 230.082C418.272 226.882 416.279 224.061 415.151 220.883C414.804 219.91 414.536 218.906 414.18 217.933C413.373 215.737 412.111 213.742 410.859 211.765C410.23 210.77 409.548 209.73 408.491 209.217C407.829 208.912 407.084 208.84 406.376 209.012C405.668 209.185 405.039 209.592 404.591 210.167Z" fill="#F86D70"/>
<path d="M407.364 197.425C407.424 196.909 407.584 196.41 407.836 195.956C407.968 195.729 408.168 195.549 408.408 195.442C408.649 195.335 408.917 195.308 409.173 195.363C409.958 195.608 410.221 196.827 411.041 196.867C411.594 196.894 411.991 196.331 412.165 195.8C412.338 195.269 412.432 194.676 412.847 194.301C413.135 194.083 413.466 193.931 413.818 193.854C415.722 193.252 417.688 192.136 418.321 190.239C418.467 189.855 418.503 189.438 418.423 189.034C418.134 187.834 416.64 187.472 415.503 187.035C414.367 186.597 413.275 185.865 412.16 185.303C411.046 184.741 409.753 184.339 408.527 184.625C407.904 184.821 407.293 185.05 406.695 185.312C404.849 185.95 402.585 185.656 401.154 186.986C400.53 187.651 400.072 188.453 399.817 189.329C398.814 192.1 398.185 195.399 399.839 197.835C400.855 199.339 401.849 201.058 403.811 201.236C406.093 201.442 407.003 199.353 407.364 197.425Z" fill="#2F2E41"/>
<g opacity="0.1">
<path opacity="0.1" d="M410.849 194.854C411.023 194.328 411.117 193.73 411.527 193.355C411.816 193.14 412.147 192.988 412.499 192.908C414.407 192.306 416.368 191.194 417.006 189.293C417.151 188.909 417.185 188.491 417.104 188.088C417.06 187.898 416.98 187.717 416.867 187.557C417.594 187.869 418.227 188.293 418.405 189.034C418.485 189.438 418.449 189.855 418.303 190.239C417.67 192.136 415.704 193.252 413.8 193.854C413.448 193.931 413.117 194.084 412.829 194.301C412.414 194.676 412.32 195.274 412.147 195.8C411.973 196.327 411.576 196.894 411.023 196.867C410.47 196.84 410.203 196.336 409.851 195.912C410.337 195.849 410.684 195.341 410.849 194.854Z" fill="black"/>
<path opacity="0.1" d="M402.504 200.282C404.796 200.492 405.701 198.407 406.071 196.479C406.131 195.964 406.291 195.465 406.543 195.011C406.675 194.784 406.876 194.604 407.116 194.498C407.356 194.392 407.624 194.366 407.881 194.422C408.304 194.551 408.576 194.971 408.866 195.314C408.661 195.334 408.464 195.401 408.289 195.509C408.114 195.617 407.967 195.765 407.858 195.939C407.606 196.393 407.446 196.892 407.386 197.408C407.025 199.336 406.115 201.424 403.82 201.21C402.91 201.113 402.071 200.678 401.466 199.992C401.794 200.145 402.145 200.243 402.504 200.282Z" fill="black"/>
</g>
<path d="M76.1296 290.231L84.6617 285.205C83.5055 283.235 82.0308 281.47 80.2976 279.983L64.2006 284.995L76.8339 277.569C73.711 275.856 70.1965 274.987 66.6363 275.047C63.0761 275.107 59.5929 276.095 56.5295 277.912C53.4661 279.729 50.9282 282.314 49.1655 285.411C47.4028 288.509 46.4761 292.012 46.4766 295.577C46.4766 306.914 55.6551 307.311 66.9823 307.311C78.3094 307.311 87.488 306.914 87.488 295.577C87.4855 292.707 86.8779 289.869 85.7049 287.249L76.1296 290.231Z" fill="#1A75FF"/>
<path opacity="0.1" d="M78.3005 301.254C77.3924 300.342 76.3776 299.544 75.2781 298.875C73.7268 297.844 72.1265 296.791 70.2988 296.443C68.694 296.135 67.0402 296.394 65.3953 296.305C62.557 296.131 59.8853 294.904 57.9018 292.864C56.7383 291.659 55.82 290.186 54.4203 289.253C52.9091 288.262 50.9922 288.048 49.2002 288.293C48.6805 288.37 48.1656 288.476 47.6578 288.61C46.8533 290.845 46.443 293.202 46.4453 295.577C46.4453 306.913 55.6239 307.311 66.951 307.311C72.4474 307.311 77.4357 307.217 81.1178 305.825L80.5026 304.673C79.9159 303.445 79.1759 302.296 78.3005 301.254Z" fill="black"/>
<path d="M260.315 318.933L248.997 312.27C250.531 309.654 252.489 307.313 254.792 305.343L276.14 311.989L259.41 302.143C263.551 299.871 268.212 298.719 272.933 298.798C277.654 298.878 282.273 300.186 286.335 302.596C290.398 305.005 293.764 308.432 296.102 312.54C298.439 316.647 299.669 321.293 299.668 326.021C299.668 341.057 287.494 341.579 272.476 341.579C257.458 341.579 245.284 341.057 245.284 326.021C245.279 322.216 246.074 318.452 247.615 314.974L260.315 318.933Z" fill="#1A75FF"/>
<path opacity="0.1" d="M257.431 333.55C258.637 332.34 259.984 331.281 261.443 330.395C263.498 329.029 265.625 327.636 268.045 327.172C270.171 326.766 272.365 327.11 274.527 326.985C278.29 326.753 281.833 325.129 284.467 322.428C286.01 320.826 287.227 318.857 289.086 317.639C291.087 316.3 293.628 316.037 296.004 316.367C296.696 316.465 297.38 316.605 298.055 316.787C299.12 319.748 299.663 322.873 299.659 326.021C299.659 341.057 287.485 341.579 272.467 341.579C265.179 341.579 258.563 341.459 253.678 339.611L254.493 338.084C255.345 336.491 256.21 334.889 257.431 333.55Z" fill="black"/>
<defs>
<linearGradient id="paint0_linear" x1="244.218" y1="93.0363" x2="362.112" y2="23.2062" gradientUnits="userSpaceOnUse">
<stop stop-color="#808080" stop-opacity="0.25"/>
<stop offset="0.54" stop-color="#808080" stop-opacity="0.12"/>
<stop offset="1" stop-color="#808080" stop-opacity="0.1"/>
</linearGradient>
<linearGradient id="paint1_linear" x1="-97370.5" y1="116087" x2="-95452.7" y2="68199" gradientUnits="userSpaceOnUse">
<stop stop-color="#808080" stop-opacity="0.25"/>
<stop offset="0.54" stop-color="#808080" stop-opacity="0.12"/>
<stop offset="1" stop-color="#808080" stop-opacity="0.1"/>
</linearGradient>
</defs>
</svg>
