<svg width="120" height="120" viewBox="0 0 120 120" fill="none" xmlns="http://www.w3.org/2000/svg">
<circle cx="59.8504" cy="59.8504" r="59.8504" fill="#EEF7FE"/>
<mask id="mask0" mask-type="alpha" maskUnits="userSpaceOnUse" x="1" y="4" width="116" height="116">
<path d="M116.65 62.4935C116.651 70.0449 115.165 77.5226 112.276 84.4995C109.388 91.4764 105.153 97.8159 99.8148 103.156C94.4764 108.496 88.1384 112.732 81.1629 115.622C74.1874 118.512 66.711 120 59.1606 120C43.9111 120 29.2861 113.941 18.503 103.157C7.71996 92.3721 1.66211 77.7451 1.66211 62.4935C1.66211 47.2419 7.71996 32.615 18.503 21.8305C29.2861 11.046 43.9111 4.9873 59.1606 4.9873C66.711 4.9873 74.1874 6.47481 81.1629 9.36489C88.1384 12.255 94.4764 16.491 99.8148 21.8311C105.153 27.1711 109.388 33.5106 112.276 40.4876C115.165 47.4645 116.651 54.9421 116.65 62.4935Z" fill="#F1F3F6"/>
</mask>
<g mask="url(#mask0)">
<path d="M105.937 127.478H14.7168C14.8828 125.863 15.7053 120.248 19.8102 113.07C24.6847 104.534 46.4164 105.749 47.1483 104.534C47.4653 104.006 47.6464 101.855 47.752 99.598C47.8803 96.6696 47.8803 93.5601 47.8803 93.5601L60.3308 97.2281L72.7812 93.5601C72.7812 93.5601 72.7812 96.6469 72.9019 99.598C73.0151 101.862 73.1887 104.043 73.5131 104.579C74.2677 105.794 95.9693 104.579 100.851 113.115C104.949 120.248 105.779 125.863 105.937 127.478Z" fill="#E1A387"/>
<path d="M105.937 127.478H14.7168C14.8828 125.863 15.7053 120.247 19.8102 113.07C23.915 105.892 40.1082 105.598 45.4657 104.964C46.4391 104.843 47.0503 104.722 47.1635 104.534C47.1635 104.534 60.1044 121.379 73.5283 104.534C73.649 104.745 74.4187 104.881 75.626 105.017C81.3306 105.621 96.837 106.028 100.866 113.07C104.949 120.247 105.779 125.863 105.937 127.478Z" fill="#860018"/>
<path d="M75.6107 105.017C65.0466 119.711 52.4453 111.658 45.4277 104.964C46.4011 104.843 47.0123 104.722 47.1255 104.534C47.1255 104.534 60.0665 121.379 73.4903 104.534C73.6337 104.745 74.4033 104.881 75.6107 105.017Z" fill="#6B1524"/>
<path d="M39.021 68.1254C39.021 68.1254 33.2485 58.3742 30.864 66.7291C28.4796 75.0841 34.2445 79.0691 38.0249 78.2766C41.8053 77.4841 39.021 68.1254 39.021 68.1254Z" fill="#E1A387"/>
<path d="M38.3508 69.718C38.3508 69.718 34.3742 63.5442 32.9782 66.0349C32.1286 67.7957 31.7863 69.7584 31.9897 71.7029C31.9897 71.7029 32.782 68.2236 35.3702 70.1935C35.3702 70.1935 32.8801 75.7634 37.9584 74.1709C37.9282 74.1936 40.0184 72.503 38.3508 69.718Z" fill="#CE8D75"/>
<path d="M80.4556 68.1254C80.4556 68.1254 86.2281 58.3742 88.6126 66.7291C90.997 75.0841 85.2321 79.0691 81.4517 78.2766C77.6713 77.4841 80.4556 68.1254 80.4556 68.1254Z" fill="#E1A387"/>
<path d="M80.5384 70.3669C80.5384 70.3669 84.515 64.1932 85.911 66.6838C86.7609 68.4446 87.1057 70.4067 86.907 72.3519C86.907 72.3519 86.1071 68.8725 83.519 70.8424C83.519 70.8424 86.009 76.4124 80.9308 74.8199C80.9308 74.8425 78.8481 73.1519 80.5384 70.3669Z" fill="#CE8D75"/>
<path d="M80.6063 84.0429C80.1686 91.2129 71.9966 96.5187 66.6542 98.8886C63.5935 100.316 60.1583 100.734 56.8448 100.081C36.6524 94.1413 37.2259 80.4579 38.1313 76.6163C39.0368 72.7747 37.7993 65.2952 40.1687 56.4195C40.4738 55.2709 40.9279 54.1672 41.5194 53.1364C45.1338 46.8268 52.838 44.7966 52.838 44.7966C66.1864 36.1699 75.528 44.6456 78.6066 51.5892C78.8112 52.0426 78.9926 52.5061 79.15 52.9779C81.4816 60.1253 81.059 75.9974 80.6063 84.0429Z" fill="#F2C2AC"/>
<path fill-rule="evenodd" clip-rule="evenodd" d="M73.8022 38.82C73.8558 38.8068 73.9094 38.7939 73.9632 38.7814C74.4227 38.6685 74.889 38.5853 75.3592 38.5323C75.7528 38.5363 76.1459 38.5641 76.5363 38.6154C76.9512 38.6796 77.36 38.778 77.7587 38.9097C83.5689 40.8645 84.0292 49.9666 83.2445 57.8913C83.1841 58.4498 83.1237 59.0083 83.0558 59.5517C82.6719 62.5967 82.1304 65.6197 81.4335 68.6086C81.3635 68.9212 81.2964 69.1964 81.2393 69.4305C81.2041 69.575 81.1727 69.7038 81.1468 69.8162C81.0638 70.1634 81.0109 70.352 81.0109 70.352L80.8675 69.4011V69.2728C80.5582 66.8953 79.3584 63.8236 77.8946 60.699C76.1849 57.2422 74.3262 53.8623 72.3239 50.5687C68.8656 51.6924 63.653 53.2223 56.9956 54.6985C55.6977 54.9853 54.3546 55.2721 52.9435 55.5514C51.0269 55.9338 49.0147 56.3061 46.9069 56.6684C38.5387 58.0797 34.7281 55.6268 33.0605 52.472C32.9269 52.2268 32.806 51.9749 32.6983 51.7173C31.1363 47.9436 32.2606 43.5133 32.2606 43.5133C32.6983 44.4416 33.6642 44.5322 35.0526 44.0416C35.3095 43.9523 35.5615 43.849 35.8071 43.7322C37.6725 42.9105 40.1296 41.3227 42.971 39.4867C47.7501 36.3985 53.6165 32.6077 59.5838 30.5771C60.7657 30.1612 62.0135 29.9642 63.2661 29.996C63.8593 30.017 64.4485 30.1004 65.0242 30.245C66.8951 30.7555 68.5894 31.7713 69.9214 33.181C70.1252 33.3923 70.3289 33.6036 70.5251 33.8225C71.7345 35.2219 72.7661 36.7658 73.5962 38.4188C73.6661 38.5521 73.7347 38.6859 73.8022 38.82Z" fill="#A16929"/>
<path d="M39.006 44.1978C38.757 44.9525 37.9496 59.7906 38.7193 66.5228L45.8349 47.8582L39.006 44.1978Z" fill="#A16929"/>
<path d="M70.5401 33.7925C68.7064 35.8681 66.8427 37.9059 64.8053 39.8304C59.1687 45.1891 52.6416 49.8382 45.0355 51.9062C41.2626 52.9176 36.8559 53.5515 33.0604 52.4723C32.9268 52.2271 32.806 51.9751 32.6982 51.7175C33.0227 51.8156 33.3472 51.8911 33.7018 51.9666C40.493 53.3553 48.0387 50.8873 53.8867 47.4382C60.0177 43.6522 65.4477 38.8338 69.9364 33.1963C70.1401 33.3623 70.3439 33.5737 70.5401 33.7925Z" fill="#C98643"/>
<path d="M65.0395 30.2149C61.5986 35.883 57.0787 40.8794 51.842 44.1172C47.5862 46.7437 42.7871 47.7249 37.9956 46.1173C36.8136 45.7504 35.7816 45.0119 35.0527 44.0115C35.3097 43.9222 35.5616 43.8189 35.8073 43.7021C36.2531 44.1942 36.7949 44.5898 37.3994 44.8644C39.9319 45.9972 42.7673 46.2625 45.4658 45.6191C50.0536 44.5097 54.0453 41.4379 57.2447 38.0718C59.5537 35.6096 61.5786 32.8957 63.2813 29.981C63.8739 29.997 64.4632 30.0754 65.0395 30.2149Z" fill="#C98643"/>
<path d="M74.2978 39.7776C70.9817 43.6586 67.286 47.1983 63.2659 50.344C61.2729 51.9284 59.1782 53.3806 56.9954 54.6912C55.6975 54.978 54.3544 55.2648 52.9434 55.5441C57.1138 53.6498 60.9632 51.1161 64.3525 48.0345C67.7029 45.0811 70.7999 41.8521 73.6111 38.3813C73.8526 38.8493 74.0789 39.3172 74.2978 39.7776Z" fill="#C98643"/>
<path d="M47.0348 61.2798C44.7711 62.6685 43.4204 66.0724 44.7711 68.2687C44.8314 68.3819 45.0653 68.3366 45.0502 68.2083C44.9432 67.1921 45.0667 66.165 45.4116 65.2032C45.7565 64.2414 46.314 63.3699 47.0423 62.6535C48.0154 61.7663 49.2798 61.2668 50.5963 61.2496C52.1055 61.1515 52.7695 62.5025 53.9542 62.9629C54.1957 63.061 54.505 62.9025 54.422 62.6535C53.4864 59.8307 49.3513 59.876 47.0348 61.2798Z" fill="#390A0A"/>
<path d="M55.0258 67.6195C55.0258 71.28 52.7621 74.2536 50.0004 74.2536C47.2386 74.2536 44.9824 71.28 44.9824 67.6195C44.9824 63.959 47.2462 60.9854 50.0004 60.9854C52.7546 60.9854 55.0258 63.959 55.0258 67.6195Z" fill="white"/>
<path d="M53.9619 67.8161C53.9619 70.5407 52.249 72.7521 50.1362 72.7521C48.0234 72.7521 46.3105 70.5407 46.3105 67.8161C46.3105 65.0915 48.0234 62.8726 50.1362 62.8726C52.249 62.8726 53.9619 65.1066 53.9619 67.8161Z" fill="#3D79CA"/>
<path d="M53.3508 67.8913C53.3508 70.1555 51.9473 72.0574 50.2193 72.0574C48.4914 72.0574 47.0879 70.1932 47.0879 67.8913C47.0879 65.5893 48.4914 63.7251 50.2193 63.7251C51.9473 63.7251 53.3508 65.5969 53.3508 67.8913Z" fill="#390A0A"/>
<path d="M53.9615 64.3066C53.9615 64.7594 53.0711 65.1217 51.977 65.1217C50.8828 65.1217 50 64.7594 50 64.3066C50 63.8537 50.8904 63.4839 51.977 63.4839C53.0636 63.4839 53.9615 63.8462 53.9615 64.3066Z" fill="white"/>
<path d="M72.5397 61.2798C74.8034 62.6685 76.1541 66.0724 74.8034 68.2687C74.743 68.3819 74.5091 68.3366 74.5242 68.2083C74.6313 67.1921 74.5077 66.165 74.1628 65.2032C73.8179 64.2414 73.2605 63.3699 72.5321 62.6535C71.5618 61.7668 70.2998 61.2673 68.9856 61.2496C67.4765 61.1515 66.805 62.5025 65.6203 62.9629C65.3788 63.061 65.0694 62.9025 65.1524 62.6535C66.0881 59.8307 70.2232 59.876 72.5397 61.2798Z" fill="#390A0A"/>
<path d="M74.2302 67.6195C74.2302 71.28 71.9665 74.2536 69.2123 74.2536C66.4581 74.2536 64.1943 71.28 64.1943 67.6195C64.1943 63.959 66.4581 60.9854 69.2123 60.9854C71.9665 60.9854 74.2302 63.959 74.2302 67.6195Z" fill="white"/>
<path d="M73.166 67.8161C73.166 70.5407 71.4531 72.7521 69.3403 72.7521C67.2275 72.7521 65.5146 70.5633 65.5146 67.8161C65.5146 65.0688 67.2275 62.8726 69.3328 62.8726C71.4381 62.8726 73.166 65.1066 73.166 67.8161Z" fill="#3D79CA"/>
<path d="M72.5625 67.8913C72.5625 70.1555 71.159 72.0574 69.4235 72.0574C67.6879 72.0574 66.292 70.1932 66.292 67.8913C66.292 65.5893 67.6955 63.7251 69.4235 63.7251C71.1514 63.7251 72.5625 65.5969 72.5625 67.8913Z" fill="#390A0A"/>
<path d="M73.1659 64.3066C73.1659 64.7594 72.283 65.1217 71.1889 65.1217C70.0948 65.1217 69.2119 64.7594 69.2119 64.3066C69.2119 63.8537 70.0948 63.4839 71.1889 63.4839C72.283 63.4839 73.1659 63.8462 73.1659 64.3066Z" fill="white"/>
<path d="M59.6441 64.4194C59.6441 64.4194 58.135 62.91 57.8634 68.2837C57.5917 73.6574 57.8634 79.2727 57.8634 79.2727C57.8634 79.2727 54.3018 77.1896 55.4865 80.1632C56.1279 81.7633 57.637 82.586 59.2594 83.0086C59.8487 83.179 60.4744 83.1771 61.0628 83.0033C61.6511 82.8294 62.1773 82.4908 62.5795 82.0274C63.002 81.6123 65.2054 79.3783 64.5112 78.684C64.1792 78.3443 62.2475 79.1443 61.757 79.2727C61.7419 79.2727 62.3153 63.2345 59.6441 64.4194Z" fill="#E1A387"/>
<path d="M68.5333 86.1786C68.5333 86.1786 61.5384 98.1713 51.8799 86.6315C51.8799 86.6315 57.509 84.7295 59.569 86.4201L60.3236 87.273C60.3236 87.273 62.4967 84.5937 68.5333 86.1786Z" fill="#CE8D75"/>
<path d="M68.5333 86.1787C68.5333 86.1787 61.5384 98.1715 51.8799 86.6316C51.9327 86.6316 61.3724 90.9637 68.5333 86.1787Z" fill="#E1A387"/>
<path d="M55.9623 58.5447C55.9623 59.8125 52.7283 59.0978 48.7756 59.0978C44.8229 59.0978 41.5889 59.8125 41.5889 58.5447C41.5889 57.2769 44.8157 54.5063 48.7756 54.5063C52.7355 54.5063 55.9623 57.2769 55.9623 58.5447Z" fill="#343434"/>
<path d="M76.724 58.5447C76.724 59.8125 73.4972 59.0978 69.5373 59.0978C65.5774 59.0978 62.3506 59.8125 62.3506 58.5447C62.3506 57.2769 65.5774 54.5063 69.5373 54.5063C73.4972 54.5063 76.724 57.2769 76.724 58.5447Z" fill="#343434"/>
</g>
</svg>
