<svg width="60" height="60" viewBox="0 0 318 318" fill="none" xmlns="http://www.w3.org/2000/svg">
<g clip-path="url(#clip0)">
<path d="M318 159C318 71.1867 246.813 0 159 0C71.1867 0 0 71.1867 0 159C0 246.813 71.1867 318 159 318C246.813 318 318 246.813 318 159Z" fill="#077AFF"/>
<path d="M237.45 120.645C234.906 119.77 232.269 118.941 229.555 118.158C230.002 116.337 230.411 114.54 230.775 112.773C236.751 83.7656 232.844 60.3964 219.501 52.7024C206.708 45.3248 185.785 53.0171 164.654 71.4066C162.622 73.1749 160.585 75.0474 158.548 77.0096C157.191 75.7114 155.836 74.4569 154.484 73.2566C132.339 53.5933 110.141 45.3069 96.812 53.0233C84.0303 60.4222 80.2454 82.3913 85.6246 109.882C86.144 112.538 86.7513 115.249 87.4378 118.006C84.2965 118.898 81.2637 119.849 78.3618 120.86C52.3979 129.912 35.8164 144.099 35.8164 158.814C35.8164 174.013 53.6167 189.257 80.6601 198.5C82.7938 199.229 85.0086 199.919 87.2907 200.574C86.5499 203.556 85.9052 206.477 85.3646 209.328C80.2355 236.341 84.241 257.791 96.9878 265.144C110.155 272.737 132.252 264.932 153.77 246.123C155.47 244.637 157.177 243.06 158.887 241.408C161.103 243.541 163.316 245.561 165.516 247.456C186.358 265.391 206.943 272.633 219.678 265.261C232.832 257.645 237.107 234.604 231.557 206.568C231.133 204.427 230.64 202.24 230.086 200.014C231.638 199.555 233.161 199.081 234.647 198.589C262.761 189.274 281.052 174.215 281.052 158.814C281.052 144.046 263.936 129.763 237.45 120.645Z" fill="white"/>
<path d="M231.351 188.644C230.011 189.088 228.635 189.517 227.232 189.934C224.129 180.108 219.94 169.66 214.814 158.865C219.706 148.327 223.732 138.013 226.749 128.252C229.258 128.977 231.693 129.743 234.039 130.551C256.733 138.363 270.576 149.914 270.576 158.814C270.576 168.295 255.626 180.601 231.351 188.644ZM221.28 208.603C223.734 220.999 224.084 232.208 222.459 240.969C220.998 248.842 218.06 254.091 214.429 256.194C206.7 260.667 190.173 254.852 172.349 239.514C170.305 237.756 168.247 235.878 166.182 233.891C173.093 226.333 179.998 217.548 186.739 207.79C198.594 206.738 209.795 205.019 219.952 202.671C220.452 204.689 220.897 206.668 221.28 208.603ZM119.422 255.42C111.872 258.087 105.858 258.163 102.222 256.068C94.4867 251.606 91.2712 234.383 95.6577 211.281C96.1603 208.636 96.7582 205.918 97.4472 203.14C107.494 205.361 118.612 206.96 130.496 207.923C137.281 217.471 144.387 226.247 151.548 233.932C149.983 235.442 148.424 236.88 146.875 238.235C137.361 246.552 127.826 252.452 119.422 255.42ZM84.0476 188.586C72.0895 184.499 62.2144 179.187 55.4453 173.391C49.3629 168.182 46.292 163.01 46.292 158.814C46.292 149.884 59.6053 138.494 81.8097 130.753C84.504 129.813 87.3242 128.928 90.2511 128.096C93.3195 138.078 97.3456 148.515 102.204 159.069C97.2826 169.779 93.1997 180.382 90.1008 190.482C88.0145 189.882 85.993 189.251 84.0476 188.586ZM95.9059 107.87C91.2967 84.3165 94.3576 66.5484 102.06 62.0899C110.264 57.3401 128.407 64.1123 147.528 81.0904C148.75 82.1759 149.977 83.3114 151.207 84.4867C144.082 92.1374 137.042 100.848 130.317 110.339C118.783 111.408 107.742 113.125 97.5913 115.425C96.9534 112.858 96.3878 110.336 95.9059 107.87ZM201.689 133.991C199.263 129.799 196.772 125.707 194.232 121.726C202.057 122.715 209.553 124.028 216.593 125.635C214.48 132.409 211.846 139.492 208.744 146.752C206.52 142.529 204.167 138.271 201.689 133.991ZM158.551 91.9741C163.384 97.2092 168.223 103.054 172.982 109.395C168.186 109.169 163.33 109.051 158.434 109.051C153.584 109.051 148.764 109.167 143.997 109.389C148.762 103.107 153.643 97.2691 158.551 91.9741ZM115.136 134.063C112.712 138.266 110.404 142.502 108.214 146.744C105.163 139.509 102.553 132.394 100.421 125.524C107.418 123.959 114.879 122.679 122.654 121.708C120.079 125.725 117.567 129.848 115.136 134.062V134.063ZM122.878 196.668C114.845 195.771 107.272 194.557 100.277 193.034C102.442 186.042 105.11 178.775 108.226 171.384C110.421 175.624 112.739 179.861 115.178 184.073H115.179C117.663 188.365 120.236 192.568 122.878 196.668ZM158.841 226.393C153.875 221.036 148.923 215.109 144.086 208.735C148.781 208.919 153.569 209.014 158.434 209.014C163.433 209.014 168.374 208.901 173.238 208.684C168.462 215.174 163.64 221.109 158.841 226.393ZM208.844 171.007C212.122 178.478 214.885 185.707 217.079 192.581C209.969 194.202 202.292 195.509 194.203 196.48C196.749 192.446 199.262 188.283 201.731 184.001C204.23 179.669 206.602 175.331 208.844 171.007ZM192.656 178.767C188.823 185.414 184.887 191.759 180.892 197.749C173.615 198.269 166.097 198.537 158.434 198.537C150.803 198.537 143.379 198.3 136.231 197.836C132.074 191.768 128.053 185.404 124.244 178.824H124.245C120.445 172.263 116.949 165.645 113.781 159.066C116.948 152.47 120.436 145.846 124.213 139.296L124.212 139.297C128 132.73 131.985 126.397 136.103 120.366C143.396 119.815 150.876 119.528 158.433 119.528H158.434C166.026 119.528 173.515 119.817 180.806 120.373C184.861 126.359 188.82 132.672 192.622 139.24C196.467 145.883 200 152.463 203.194 158.917C200.009 165.481 196.485 172.128 192.656 178.767ZM214.268 61.7781C222.48 66.5141 225.674 85.6134 220.514 110.659C220.185 112.256 219.814 113.884 219.412 115.534C209.238 113.187 198.19 111.439 186.622 110.354C179.883 100.758 172.901 92.0345 165.891 84.4817C167.776 82.6691 169.658 80.9401 171.532 79.3089C189.637 63.553 206.558 57.3323 214.268 61.7781Z" fill="#077AFF"/>
<path d="M158.435 136.915C170.53 136.915 180.334 146.719 180.334 158.813C180.334 170.908 170.53 180.712 158.435 180.712C146.341 180.712 136.537 170.908 136.537 158.813C136.537 146.719 146.341 136.915 158.435 136.915Z" fill="white"/>
</g>
<defs>
<clipPath id="clip0">
<rect width="318" height="318" fill="white"/>
</clipPath>
</defs>
</svg>
