<svg xmlns="http://www.w3.org/2000/svg" width="32" height="32" viewBox="0 0 8.4666666 8.4666661"><path d="M6.1760929.06615061a.59383805.59383805 0 00-.0692272.00423281.59383805.59383805 0 00-.5189211.6603145.59383805.59383805 0 00.6603148.51892088.59383805.59383805 0 00.5189211-.6603499.59383805.59383805 0 00-.5910879-.52312125zM4.1304015.92154649c-1.327349 0-2.3315932 1.02169121-2.3315932 2.32284331 0 1.2924297 1.0042442 2.3228788 2.3315932 2.3228788 1.3360926 0 2.3403429-1.0304491 2.3403429-2.3228788 0-1.3011521-1.0042503-2.32284331-2.3403429-2.32284331zm0 1.06524581c.7422706 0 1.2051.5675864 1.2051 1.2574578 0 .6898782-.4628294 1.2575276-1.2051 1.2575276-.7335339 0-1.1963502-.5676494-1.1963502-1.2575276 0-.6898714.4628163-1.2574578 1.1963502-1.2574578zM1.980205 5.9447969c-.1664706 0-.3033194.1355612-.2829271.3006713.093679.758497.5380173 1.4387057 1.2094397 1.8263564.7590937.4382612 1.6968839.4382612 2.4559776 0 .6714292-.3876507 1.1158738-1.0678594 1.2095797-1.8263564.0203992-.1651101-.1164565-.3006713-.2829271-.3006713h-.5332706c-.1664638 0-.2980433.1370259-.3355297.2988512-.081482.3517958-.3049486.658896-.6258413.8441612-.4091465.2362214-.9107132.2362214-1.3198596 0-.320886-.1852652-.5443602-.4923654-.6258414-.8441612-.0374864-.1618253-.169024-.2988512-.3354946-.2988512z" fill="#0059e1"/></svg>