<svg width="162" height="48" viewBox="0 0 162 48" fill="none" xmlns="http://www.w3.org/2000/svg">
<g clip-path="url(#clip0)">
<path d="M149.099 0.000156H12.908C12.4115 0.000156 11.921 0.000156 11.4259 0.002556C11.0115 0.004956 10.6003 0.011928 10.1819 0.017796C9.2728 0.0272782 8.36589 0.0981675 7.46899 0.229848C6.57336 0.364395 5.70578 0.618055 4.8956 0.982248C4.08641 1.34952 3.34704 1.82676 2.70429 2.39664C2.05817 2.96492 1.51958 3.62178 1.10923 4.34195C0.697744 5.06069 0.412419 5.83088 0.263109 6.62593C0.112379 7.41998 0.0312704 8.22318 0.0205099 9.02833C0.00794675 9.39625 0.00662003 9.7654 0 10.1334V37.8705C0.00662003 38.2431 0.00794675 38.604 0.0205099 38.9768C0.0312737 39.7819 0.112383 40.585 0.263109 41.379C0.412007 42.1745 0.697348 42.9452 1.10923 43.6642C1.51939 44.382 2.05806 45.0362 2.70429 45.6014C3.3446 46.1738 4.08445 46.6513 4.8956 47.0158C5.70577 47.381 6.57326 47.6361 7.46899 47.7728C8.36604 47.9034 9.27286 47.9743 10.1819 47.9849C10.6003 47.9931 11.0115 47.9978 11.4259 47.9978C11.921 48.0002 12.4115 48.0002 12.908 48.0002H149.099C149.586 48.0002 150.08 48.0002 150.567 47.9978C150.979 47.9978 151.402 47.9931 151.815 47.9849C152.722 47.9749 153.627 47.9039 154.522 47.7728C155.421 47.6352 156.292 47.3801 157.106 47.0158C157.916 46.6511 158.655 46.1736 159.295 45.6014C159.94 45.034 160.48 44.3803 160.895 43.6642C161.304 42.9447 161.586 42.1741 161.733 41.379C161.884 40.5849 161.968 39.7819 161.984 38.9768C161.989 38.604 161.989 38.2431 161.989 37.8705C162 37.4345 162 37.001 162 36.5579V11.4435C162 11.0041 162 10.5681 161.989 10.1334C161.989 9.7654 161.989 9.39625 161.984 9.02828C161.968 8.22306 161.884 7.42004 161.733 6.62588C161.586 5.83129 161.303 5.06116 160.895 4.3419C160.059 2.89839 158.734 1.72339 157.106 0.98214C156.292 0.618837 155.421 0.365245 154.522 0.22974C153.627 0.0974794 152.722 0.0265653 151.815 0.017628C151.402 0.011772 150.979 0.00474 150.567 0.0024C150.08 0 149.586 0 149.099 0V0.000156Z" fill="#A6A6A6"/>
<path d="M11.3162 46.9535C10.903 46.9535 10.4998 46.9489 10.0899 46.9407C9.24064 46.9309 8.3934 46.8655 7.55508 46.7449C6.7734 46.6258 6.01615 46.4041 5.30833 46.0873C4.607 45.7731 3.96733 45.3611 3.41382 44.8671C2.8523 44.379 2.38481 43.8128 2.02988 43.191C1.67103 42.5652 1.42269 41.8944 1.2935 41.2019C1.15399 40.4579 1.07851 39.7056 1.06771 38.9515C1.05911 38.6983 1.04785 37.8555 1.04785 37.8555V10.1291C1.04785 10.1291 1.05984 9.29919 1.06777 9.05538C1.07811 8.30244 1.15316 7.55129 1.29225 6.80843C1.42168 6.11411 1.67022 5.44136 2.02925 4.81349C2.38288 4.19214 2.84778 3.62552 3.40591 3.1356C3.96342 2.64103 4.60514 2.22692 5.30767 1.90838C6.01386 1.59257 6.76967 1.37249 7.54978 1.25551C8.39085 1.13377 9.24104 1.06795 10.0932 1.0586L11.3169 1.04395H150.684L151.922 1.05919C152.767 1.06807 153.609 1.1333 154.443 1.25434C155.231 1.37278 155.994 1.5944 156.709 1.91189C158.116 2.55384 159.261 3.56947 159.984 4.81642C160.337 5.43996 160.582 6.10721 160.709 6.79554C160.85 7.54449 160.929 8.30155 160.945 9.06066C160.949 9.40057 160.949 9.76569 160.949 10.1291C160.96 10.5791 160.96 11.0076 160.96 11.4395V36.5591C160.96 36.9952 160.96 37.4207 160.949 37.8496C160.949 38.24 160.949 38.5975 160.944 38.9655C160.928 39.7111 160.851 40.4546 160.712 41.1902C160.586 41.8876 160.339 42.5636 159.98 43.1946C159.622 43.8096 159.158 44.3709 158.602 44.8578C158.048 45.3544 157.408 45.7688 156.705 46.085C155.992 46.4043 155.23 46.6268 154.443 46.7449C153.604 46.8661 152.757 46.9316 151.908 46.9407C151.511 46.9489 151.095 46.9535 150.691 46.9535L149.221 46.9559L11.3162 46.9535Z" fill="black"/>
<path d="M39.3564 24.3618C39.3693 23.3602 39.6353 22.3781 40.1298 21.507C40.6242 20.6358 41.3309 19.9039 42.1843 19.3793C41.6422 18.6051 40.927 17.968 40.0956 17.5185C39.2643 17.069 38.3395 16.8196 37.3949 16.7901C35.3798 16.5786 33.4262 17.9959 32.3994 17.9959C31.3527 17.9959 29.7717 16.8111 28.0692 16.8461C26.968 16.8817 25.8948 17.2019 24.9541 17.7756C24.0135 18.3492 23.2374 19.1568 22.7017 20.1195C20.3809 24.1376 22.112 30.0429 24.3351 33.2908C25.4474 34.8813 26.7473 36.6578 28.4483 36.5948C30.1127 36.5258 30.7344 35.5334 32.7436 35.5334C34.7341 35.5334 35.3173 36.5948 37.0528 36.5547C38.8388 36.5258 39.9641 34.9573 41.0374 33.3518C41.8365 32.2185 42.4515 30.9661 42.8595 29.6408C41.8218 29.2019 40.9363 28.4673 40.3134 27.5285C39.6904 26.5898 39.3576 25.4884 39.3564 24.3618Z" fill="white"/>
<path d="M36.0785 14.6536C37.0523 13.4845 37.5321 11.9819 37.4159 10.4648C35.9281 10.6211 34.5538 11.3322 33.5668 12.4564C33.0842 13.0056 32.7146 13.6445 32.4792 14.3366C32.2437 15.0287 32.1469 15.7605 32.1944 16.49C32.9385 16.4977 33.6747 16.3364 34.3475 16.0183C35.0203 15.7002 35.6122 15.2336 36.0785 14.6536Z" fill="white"/>
<path d="M60.3963 32.5682H54.7162L53.3521 36.5959H50.9463L56.3264 21.6943H58.826L64.2061 36.5959H61.7592L60.3963 32.5682ZM55.3045 30.7096H59.8069L57.5874 24.1729H57.5252L55.3045 30.7096Z" fill="white"/>
<path d="M75.8248 31.1647C75.8248 34.5409 74.0178 36.71 71.2909 36.71C70.6001 36.7462 69.9131 36.587 69.3085 36.2509C68.704 35.9147 68.2063 35.4151 67.8725 34.8092H67.8209V40.1905H65.5908V25.7319H67.7495V27.5389H67.7905C68.1396 26.936 68.6457 26.4389 69.2548 26.1007C69.864 25.7625 70.5535 25.5958 71.2498 25.6182C74.0072 25.6182 75.8248 27.7979 75.8248 31.1647ZM73.5327 31.1647C73.5327 28.9651 72.3959 27.519 70.6616 27.519C68.9576 27.519 67.8116 28.9956 67.8116 31.1647C67.8116 33.3538 68.9576 34.8198 70.6616 34.8198C72.3959 34.8198 73.5327 33.3842 73.5327 31.1647Z" fill="white"/>
<path d="M87.7829 31.1647C87.7829 34.5409 85.9758 36.71 83.2489 36.71C82.5581 36.7461 81.8711 36.587 81.2665 36.2508C80.662 35.9147 80.1643 35.4151 79.8305 34.8092H79.7789V40.1905H77.5488V25.7319H79.7074V27.5389H79.7484C80.0976 26.936 80.6037 26.4389 81.2128 26.1007C81.822 25.7625 82.5114 25.5958 83.2078 25.6182C85.9653 25.6182 87.7829 27.7979 87.7829 31.1647ZM85.4907 31.1647C85.4907 28.9651 84.3539 27.519 82.6196 27.519C80.9157 27.519 79.7696 28.9956 79.7696 31.1647C79.7696 33.3538 80.9157 34.8198 82.6196 34.8198C84.3539 34.8198 85.4907 33.3842 85.4907 31.1647H85.4907Z" fill="white"/>
<path d="M95.6862 32.4444C95.8514 33.9221 97.287 34.8924 99.2487 34.8924C101.128 34.8924 102.481 33.9221 102.481 32.5897C102.481 31.433 101.665 30.7405 99.7338 30.2658L97.8026 29.8006C95.0663 29.1397 93.7959 27.86 93.7959 25.7834C93.7959 23.2123 96.0366 21.4463 99.2182 21.4463C102.367 21.4463 104.526 23.2123 104.598 25.7834H102.347C102.212 24.2963 100.983 23.3986 99.1865 23.3986C97.39 23.3986 96.1608 24.3068 96.1608 25.6287C96.1608 26.6822 96.9459 27.3022 98.8666 27.7767L100.508 28.1798C103.566 28.9029 104.836 30.131 104.836 32.3107C104.836 35.0986 102.615 36.8447 99.0834 36.8447C95.7787 36.8447 93.5475 35.1396 93.4033 32.4443L95.6862 32.4444Z" fill="white"/>
<path d="M109.649 23.1611V25.7322H111.715V27.4982H109.649V33.4877C109.649 34.4182 110.063 34.8518 110.971 34.8518C111.217 34.8475 111.461 34.8303 111.705 34.8002V36.5556C111.297 36.6319 110.882 36.6665 110.466 36.6588C108.267 36.6588 107.409 35.8326 107.409 33.7255V27.4982H105.829V25.7322H107.409V23.1611H109.649Z" fill="white"/>
<path d="M112.911 31.165C112.911 27.7467 114.924 25.5986 118.064 25.5986C121.214 25.5986 123.218 27.7466 123.218 31.165C123.218 34.5928 121.224 36.7314 118.064 36.7314C114.904 36.7314 112.911 34.5928 112.911 31.165ZM120.946 31.165C120.946 28.8201 119.871 27.4361 118.064 27.4361C116.257 27.4361 115.183 28.8307 115.183 31.165C115.183 33.5193 116.257 34.8928 118.064 34.8928C119.871 34.8928 120.945 33.5193 120.945 31.165H120.946Z" fill="white"/>
<path d="M125.057 25.7318H127.184V27.581H127.235C127.379 27.0034 127.717 26.493 128.193 26.1356C128.669 25.7781 129.254 25.5954 129.848 25.6181C130.105 25.6172 130.362 25.6451 130.613 25.7013V27.7872C130.288 27.6881 129.95 27.6426 129.611 27.6525C129.287 27.6393 128.964 27.6965 128.664 27.8199C128.364 27.9434 128.094 28.1303 127.874 28.3677C127.653 28.6052 127.486 28.8876 127.385 29.1956C127.283 29.5036 127.25 29.8299 127.287 30.1521V36.5962H125.057L125.057 25.7318Z" fill="white"/>
<path d="M140.895 33.4057C140.595 35.3779 138.674 36.7314 136.217 36.7314C133.056 36.7314 131.095 34.6139 131.095 31.2166C131.095 27.8088 133.067 25.5986 136.123 25.5986C139.129 25.5986 141.019 27.6635 141.019 30.9576V31.7217H133.346V31.8564C133.31 32.2563 133.361 32.6591 133.493 33.0381C133.625 33.4171 133.836 33.7636 134.113 34.0547C134.389 34.3458 134.724 34.5747 135.096 34.7262C135.468 34.8778 135.867 34.9485 136.269 34.9338C136.796 34.9832 137.324 34.8611 137.776 34.5858C138.229 34.3104 138.58 33.8966 138.778 33.4057L140.895 33.4057ZM133.356 30.1631H138.788C138.808 29.8036 138.754 29.4438 138.628 29.1063C138.502 28.7689 138.308 28.461 138.058 28.2021C137.808 27.9432 137.507 27.7388 137.174 27.6017C136.841 27.4647 136.483 27.3979 136.123 27.4057C135.76 27.4035 135.4 27.4733 135.064 27.611C134.728 27.7487 134.423 27.9515 134.165 28.2079C133.908 28.4643 133.704 28.769 133.565 29.1046C133.427 29.4402 133.356 29.7999 133.356 30.1631V30.1631Z" fill="white"/>
<path d="M55.0248 10.4779C55.4923 10.4443 55.9615 10.5149 56.3984 10.6847C56.8354 10.8544 57.2292 11.1189 57.5515 11.4593C57.8738 11.7996 58.1165 12.2073 58.2622 12.6528C58.4079 13.0983 58.4529 13.5706 58.3939 14.0357C58.3939 16.3232 57.1576 17.6381 55.0248 17.6381H52.4385V10.4779H55.0248ZM53.5506 16.6255H54.9006C55.2347 16.6454 55.569 16.5906 55.8792 16.4651C56.1895 16.3396 56.4678 16.1464 56.694 15.8998C56.9202 15.6531 57.0886 15.3591 57.1868 15.0391C57.285 14.7192 57.3107 14.3814 57.2619 14.0503C57.3071 13.7205 57.2789 13.3847 57.1791 13.0671C57.0794 12.7495 56.9107 12.4579 56.685 12.2132C56.4593 11.9685 56.1823 11.7767 55.8738 11.6516C55.5653 11.5266 55.233 11.4713 54.9006 11.4897H53.5506V16.6255Z" fill="white"/>
<path d="M59.6497 14.9335C59.6158 14.5784 59.6564 14.2202 59.769 13.8817C59.8816 13.5432 60.0637 13.232 60.3037 12.968C60.5436 12.704 60.836 12.4931 61.1623 12.3488C61.4885 12.2044 61.8413 12.1299 62.198 12.1299C62.5547 12.1299 62.9075 12.2044 63.2337 12.3488C63.5599 12.4931 63.8524 12.704 64.0923 12.968C64.3323 13.232 64.5144 13.5432 64.627 13.8817C64.7396 14.2202 64.7802 14.5784 64.7462 14.9335C64.7808 15.289 64.7407 15.6478 64.6284 15.9868C64.5161 16.3258 64.3341 16.6376 64.0941 16.9021C63.8541 17.1666 63.5614 17.378 63.2349 17.5226C62.9083 17.6673 62.5551 17.742 62.198 17.742C61.8408 17.742 61.4876 17.6673 61.1611 17.5226C60.8345 17.378 60.5419 17.1666 60.3019 16.9021C60.0619 16.6376 59.8799 16.3258 59.7676 15.9868C59.6553 15.6478 59.6151 15.289 59.6497 14.9335ZM63.6493 14.9335C63.6493 13.7623 63.1232 13.0773 62.1997 13.0773C61.2728 13.0773 60.7513 13.7623 60.7513 14.9335C60.7513 16.1142 61.2728 16.7939 62.1997 16.7939C63.1232 16.7939 63.6494 16.1095 63.6494 14.9335H63.6493Z" fill="white"/>
<path d="M71.5213 17.6379H70.415L69.2982 13.6582H69.2139L68.1018 17.6379H67.0061L65.5166 12.2344H66.5982L67.5662 16.3576H67.6459L68.7568 12.2344H69.7799L70.8908 16.3576H70.9752L71.9385 12.2344H73.0049L71.5213 17.6379Z" fill="white"/>
<path d="M74.2578 12.2346H75.2844V13.093H75.3641C75.4993 12.7847 75.7273 12.5263 76.0163 12.3537C76.3054 12.1811 76.641 12.103 76.9766 12.1303C77.2395 12.1106 77.5035 12.1502 77.749 12.2463C77.9945 12.3424 78.2153 12.4925 78.3949 12.6856C78.5745 12.8786 78.7084 13.1095 78.7866 13.3613C78.8649 13.6131 78.8855 13.8793 78.8469 14.1401V17.6381H77.7805V14.4079C77.7805 13.5395 77.4031 13.1077 76.6145 13.1077C76.436 13.0994 76.2578 13.1297 76.0921 13.1967C75.9264 13.2637 75.7772 13.3658 75.6546 13.4958C75.5321 13.6259 75.4391 13.7809 75.3821 13.9503C75.325 14.1196 75.3053 14.2993 75.3242 14.477V17.6381H74.2578L74.2578 12.2346Z" fill="white"/>
<path d="M80.5459 10.125H81.6123V17.6379H80.5459V10.125Z" fill="white"/>
<path d="M83.095 14.9336C83.0611 14.5785 83.1017 14.2202 83.2144 13.8817C83.327 13.5432 83.5091 13.232 83.7491 12.968C83.9891 12.704 84.2815 12.4931 84.6078 12.3488C84.934 12.2044 85.2868 12.1299 85.6436 12.1299C86.0003 12.1299 86.3531 12.2044 86.6794 12.3488C87.0056 12.4931 87.2981 12.704 87.538 12.968C87.778 13.232 87.9601 13.5432 88.0728 13.8817C88.1854 14.2202 88.2261 14.5785 88.1921 14.9336C88.2267 15.2891 88.1865 15.6479 88.0742 15.9869C87.9618 16.326 87.7798 16.6377 87.5398 16.9022C87.2998 17.1667 87.0071 17.3781 86.6805 17.5227C86.3539 17.6673 86.0007 17.7421 85.6436 17.7421C85.2864 17.7421 84.9332 17.6673 84.6066 17.5227C84.2801 17.3781 83.9874 17.1667 83.7474 16.9022C83.5074 16.6377 83.3253 16.326 83.213 15.9869C83.1006 15.6479 83.0605 15.2891 83.095 14.9336ZM87.0946 14.9336C87.0946 13.7624 86.5685 13.0774 85.645 13.0774C84.7181 13.0774 84.1966 13.7624 84.1966 14.9336C84.1966 16.1143 84.7181 16.794 85.645 16.794C86.5685 16.794 87.0946 16.1096 87.0946 14.9336H87.0946Z" fill="white"/>
<path d="M89.3145 16.1096C89.3145 15.1369 90.0387 14.5762 91.3242 14.4965L92.7879 14.4121V13.9457C92.7879 13.375 92.4105 13.0527 91.6816 13.0527C91.0863 13.0527 90.6738 13.2713 90.5555 13.6533H89.523C89.632 12.7252 90.5051 12.1299 91.7309 12.1299C93.0856 12.1299 93.8496 12.8043 93.8496 13.9457V17.6377H92.823V16.8783H92.7387C92.5674 17.1507 92.3269 17.3728 92.0418 17.5218C91.7566 17.6709 91.437 17.7416 91.1156 17.7267C90.8888 17.7503 90.6595 17.7261 90.4426 17.6557C90.2257 17.5852 90.0259 17.4701 89.8562 17.3178C89.6865 17.1654 89.5507 16.9792 89.4573 16.7711C89.364 16.563 89.3153 16.3376 89.3145 16.1096ZM92.7879 15.6478V15.1961L91.4684 15.2805C90.7242 15.3303 90.3867 15.5834 90.3867 16.0598C90.3867 16.5461 90.8086 16.8291 91.3887 16.8291C91.5587 16.8463 91.7304 16.8291 91.8936 16.7786C92.0568 16.7281 92.2082 16.6453 92.3387 16.5351C92.4693 16.4249 92.5763 16.2895 92.6535 16.1371C92.7306 15.9847 92.7763 15.8183 92.7879 15.6478Z" fill="white"/>
<path d="M95.251 14.9338C95.251 13.2264 96.1287 12.1447 97.4939 12.1447C97.8316 12.1292 98.1668 12.2101 98.4602 12.3779C98.7537 12.5458 98.9932 12.7937 99.151 13.0927H99.2307V10.125H100.297V17.6379H99.2752V16.7842H99.1908C99.0209 17.0812 98.773 17.326 98.4739 17.4922C98.1748 17.6584 97.8359 17.7395 97.494 17.7269C96.1193 17.727 95.251 16.6453 95.251 14.9338ZM96.3526 14.9338C96.3526 16.0799 96.8928 16.7696 97.7963 16.7696C98.6951 16.7696 99.2506 16.07 99.2506 14.9385C99.2506 13.8123 98.6893 13.1028 97.7963 13.1028C96.8986 13.1028 96.3525 13.7971 96.3525 14.9338H96.3526Z" fill="white"/>
<path d="M104.709 14.9335C104.675 14.5784 104.716 14.2202 104.829 13.8817C104.941 13.5432 105.123 13.232 105.363 12.968C105.603 12.704 105.896 12.4931 106.222 12.3488C106.548 12.2044 106.901 12.1299 107.258 12.1299C107.614 12.1299 107.967 12.2044 108.293 12.3488C108.62 12.4931 108.912 12.704 109.152 12.968C109.392 13.232 109.574 13.5432 109.687 13.8817C109.799 14.2202 109.84 14.5784 109.806 14.9335C109.84 15.289 109.8 15.6478 109.688 15.9868C109.576 16.3258 109.394 16.6376 109.154 16.9021C108.914 17.1666 108.621 17.378 108.294 17.5226C107.968 17.6673 107.615 17.742 107.258 17.742C106.9 17.742 106.547 17.6673 106.221 17.5226C105.894 17.378 105.601 17.1666 105.361 16.9021C105.121 16.6376 104.939 16.3258 104.827 15.9868C104.715 15.6478 104.675 15.289 104.709 14.9335ZM108.709 14.9335C108.709 13.7623 108.183 13.0773 107.259 13.0773C106.332 13.0773 105.811 13.7623 105.811 14.9335C105.811 16.1142 106.332 16.7939 107.259 16.7939C108.183 16.7939 108.709 16.1095 108.709 14.9335Z" fill="white"/>
<path d="M111.236 12.2346H112.263V13.093H112.343C112.478 12.7847 112.706 12.5263 112.995 12.3537C113.284 12.1811 113.62 12.103 113.955 12.1303C114.218 12.1106 114.482 12.1502 114.728 12.2463C114.973 12.3424 115.194 12.4925 115.373 12.6856C115.553 12.8786 115.687 13.1095 115.765 13.3613C115.843 13.6131 115.864 13.8793 115.825 14.1401V17.6381H114.759V14.4079C114.759 13.5395 114.382 13.1077 113.593 13.1077C113.414 13.0994 113.236 13.1297 113.071 13.1967C112.905 13.2637 112.756 13.3658 112.633 13.4958C112.511 13.6259 112.418 13.7809 112.361 13.9503C112.304 14.1196 112.284 14.2993 112.303 14.477V17.6381H111.236V12.2346Z" fill="white"/>
<path d="M121.851 10.8887V12.2586H123.022V13.1568H121.851V15.9354C121.851 16.5014 122.084 16.7492 122.615 16.7492C122.751 16.7488 122.887 16.7406 123.022 16.7246V17.6129C122.83 17.6471 122.636 17.6654 122.442 17.6674C121.256 17.6674 120.784 17.2502 120.784 16.2084V13.1568H119.926V12.2585H120.784V10.8887H121.851Z" fill="white"/>
<path d="M124.479 10.125H125.536V13.1027H125.62C125.762 12.7916 125.996 12.5316 126.291 12.3584C126.586 12.1852 126.927 12.1071 127.268 12.1348C127.529 12.1205 127.791 12.1642 128.033 12.2627C128.276 12.3611 128.494 12.5119 128.672 12.7043C128.85 12.8967 128.983 13.126 129.062 13.3757C129.14 13.6255 129.163 13.8896 129.128 14.1492V17.6379H128.061V14.4123C128.061 13.5492 127.659 13.1121 126.906 13.1121C126.722 13.0971 126.538 13.1223 126.365 13.1859C126.193 13.2496 126.036 13.3502 125.907 13.4807C125.777 13.6112 125.678 13.7684 125.615 13.9413C125.553 14.1143 125.529 14.2988 125.545 14.482V17.6379H124.479L124.479 10.125Z" fill="white"/>
<path d="M135.347 16.1788C135.202 16.6726 134.888 17.0998 134.46 17.3856C134.032 17.6714 133.517 17.7976 133.005 17.7421C132.649 17.7515 132.296 17.6833 131.969 17.5422C131.642 17.4012 131.349 17.1907 131.112 16.9253C130.874 16.66 130.697 16.3461 130.593 16.0055C130.489 15.6649 130.461 15.3058 130.509 14.953C130.462 14.5992 130.491 14.2392 130.595 13.8976C130.699 13.556 130.875 13.2407 131.111 12.973C131.347 12.7053 131.638 12.4915 131.964 12.3461C132.29 12.2006 132.644 12.1269 133.001 12.13C134.504 12.13 135.411 13.1572 135.411 14.854V15.2261H131.596V15.2858C131.579 15.4841 131.604 15.6837 131.669 15.8718C131.734 16.0599 131.837 16.2324 131.973 16.3781C132.108 16.5239 132.273 16.6397 132.456 16.7182C132.639 16.7967 132.836 16.836 133.035 16.8338C133.29 16.8645 133.548 16.8185 133.777 16.7019C134.006 16.5852 134.195 16.4031 134.32 16.1788L135.347 16.1788ZM131.596 14.4374H134.325C134.338 14.256 134.314 14.0739 134.253 13.9026C134.191 13.7314 134.095 13.5748 133.97 13.443C133.845 13.3111 133.693 13.207 133.525 13.1371C133.357 13.0673 133.177 13.0334 132.995 13.0376C132.81 13.0353 132.627 13.0699 132.457 13.1394C132.286 13.209 132.131 13.312 132 13.4425C131.87 13.5729 131.767 13.7282 131.697 13.899C131.628 14.0699 131.593 14.253 131.596 14.4374H131.596Z" fill="white"/>
</g>
<defs>
<clipPath id="clip0">
<rect width="162" height="48" fill="white"/>
</clipPath>
</defs>
</svg>
