
              <svg
                width="24"
                height="24"
                viewBox="0 0 24 24"
                fill="none"
                xmlns="http://www.w3.org/2000/svg"
              >
                <path
                  d="M17.3861 9.69827C17.3861 10.4811 17.4143 11.2592 17.3768 12.042C17.3393 12.9326 17.6111 13.6967 18.1736 14.3717C18.2393 14.4514 18.3002 14.5311 18.3565 14.6155C18.558 14.9201 18.5205 15.1311 18.244 15.3655C17.6533 15.8623 17.0674 16.3639 16.4768 16.8608C16.1252 17.1561 15.9049 17.1514 15.5486 16.8608C15.0705 16.4717 14.6955 15.9936 14.3627 15.4826C14.283 15.3608 14.2408 15.3655 14.1424 15.4592C13.5518 16.0358 12.9283 16.5701 12.1361 16.8373C10.9127 17.2545 9.67051 17.3201 8.44239 16.8842C7.26114 16.4623 6.55332 15.5905 6.29082 14.3764C6.0002 13.0217 6.1502 11.7326 6.98457 10.5842C7.61739 9.71702 8.49395 9.20609 9.50176 8.89202C10.5424 8.57327 11.6158 8.4514 12.6939 8.34359C12.9986 8.31077 13.2986 8.28265 13.6033 8.25452C13.6783 8.24984 13.744 8.24046 13.7393 8.14202C13.7299 7.64515 13.7815 7.1389 13.6643 6.6514C13.5143 6.02796 13.1064 5.66234 12.483 5.5264C12.0377 5.42796 11.5971 5.45609 11.1658 5.6014C10.5096 5.8264 10.1018 6.28109 9.9377 6.95609C9.84864 7.3264 9.6752 7.45765 9.31426 7.42015C8.54551 7.34046 7.77676 7.26077 7.0127 7.18109C6.69864 7.14827 6.53458 6.90921 6.6002 6.60452C6.99864 4.65921 8.27364 3.56702 10.1111 3.06546C11.5221 2.68109 12.9518 2.65765 14.3674 3.05609C15.5065 3.37484 16.4627 3.93734 16.9971 5.05296C17.3018 5.68577 17.3721 6.37015 17.3815 7.05452C17.3908 7.93109 17.3815 8.81702 17.3861 9.69827C17.3861 9.69827 17.3815 9.69827 17.3861 9.69827ZM13.7393 11.1608C13.7393 10.9264 13.7299 10.692 13.744 10.4576C13.7533 10.3123 13.7018 10.2608 13.5565 10.2748C13.2002 10.3076 12.8393 10.3123 12.483 10.3592C11.8596 10.4389 11.2502 10.5936 10.744 10.9873C10.008 11.5639 9.85333 12.3514 9.9752 13.2373C10.1205 14.278 11.0486 14.8545 12.0424 14.5076C12.7174 14.2733 13.1299 13.7764 13.4158 13.153C13.7158 12.5201 13.7393 11.8405 13.7393 11.1608Z"
                  fill="#050606"
                />
                <path
                  d="M12.0049 21.7405C8.42836 21.7171 5.21743 20.7983 2.31586 18.8624C1.72524 18.4686 1.16274 18.0374 0.628363 17.5639C0.581488 17.5217 0.534613 17.4796 0.497113 17.428C0.44555 17.3577 0.40805 17.2733 0.468988 17.1889C0.529925 17.0952 0.63305 17.0858 0.722113 17.128C0.928363 17.2264 1.12524 17.3342 1.3268 17.4374C3.17368 18.4124 5.11899 19.1155 7.15805 19.5608C9.00493 19.9639 10.8705 20.1514 12.7643 20.0999C15.469 20.0249 18.0752 19.4811 20.583 18.4733C20.7049 18.4217 20.8315 18.3702 20.958 18.3421C21.1362 18.3092 21.3143 18.3327 21.394 18.5249C21.469 18.703 21.3705 18.8436 21.2393 18.9561C21.1455 19.0358 21.0377 19.1014 20.9299 19.1717C19.3127 20.2217 17.5409 20.8967 15.6659 21.3139C14.4284 21.5952 13.1721 21.7311 12.0049 21.7405Z"
                  fill="#F6A61F"
                />
                <path
                  d="M21.0282 17.5639C20.4892 17.5592 19.9548 17.6295 19.4204 17.6858C19.3173 17.6951 19.2001 17.7233 19.1532 17.6108C19.097 17.4842 19.2048 17.4092 19.2939 17.3483C19.9595 16.9076 20.7048 16.7342 21.4876 16.692C22.0267 16.6592 22.5611 16.6826 23.0861 16.842C23.3251 16.9123 23.4423 17.053 23.4376 17.2967C23.4095 18.5998 22.9736 19.7342 22.0314 20.6576C21.9986 20.6905 21.9611 20.7186 21.9236 20.7467C21.8392 20.8076 21.7361 20.8639 21.647 20.7889C21.5626 20.7186 21.6095 20.6155 21.647 20.5311C21.9236 19.842 22.2048 19.1576 22.3407 18.4217C22.3595 18.328 22.3642 18.2342 22.3689 18.1451C22.3736 17.8405 22.2657 17.7092 21.9657 17.6342C21.6517 17.5498 21.3376 17.5639 21.0282 17.5639Z"
                  fill="#F6A61F"
                />
              </svg>