
              <svg
                width="24"
                height="24"
                viewBox="0 0 24 24"
                fill="none"
                xmlns="http://www.w3.org/2000/svg"
              >
                <path
                  fill-rule="evenodd"
                  clip-rule="evenodd"
                  d="M18.0343 12.7462C18.0062 9.94601 20.3176 8.60293 20.4207 8.53538C19.1221 6.63596 17.0984 6.37532 16.3779 6.34597C14.6575 6.17085 13.0188 7.35948 12.1456 7.35948C11.2746 7.35948 9.92588 6.37143 8.49905 6.39641C6.62154 6.42452 4.89152 7.48848 3.92533 9.16902C1.97589 12.5506 3.42688 17.5626 5.32635 20.3075C6.25521 21.6489 7.36265 23.1587 8.81542 23.1034C10.216 23.0481 10.7447 22.1973 12.4374 22.1973C14.1302 22.1973 14.6058 23.1034 16.0871 23.0749C17.5929 23.0476 18.5477 21.7076 19.4691 20.3606C20.5349 18.8021 20.9741 17.2932 21 17.2164C20.9674 17.2014 18.0645 16.0892 18.0343 12.7462ZM15.2508 4.52942C16.0212 3.59398 16.5433 2.29394 16.4016 1C15.2894 1.04516 13.9432 1.73933 13.1451 2.67391C12.4299 3.50318 11.8043 4.8234 11.9718 6.09403C13.2122 6.19017 14.4776 5.46313 15.2508 4.52942Z"
                  fill="#000000"
                />
              </svg>