<svg width="82" height="48" viewBox="0 0 82 48" fill="none" xmlns="http://www.w3.org/2000/svg">
<g clip-path="url(#clip0)">
<path fill-rule="evenodd" clip-rule="evenodd" d="M65.9926 20.2879C65.9926 28.6657 59.2139 35.4572 50.852 35.4572C42.4901 35.4572 35.7114 28.6657 35.7114 20.2879C35.7114 11.9102 42.4901 5.11865 50.852 5.11865C59.2139 5.11865 65.9926 11.9102 65.9926 20.2879Z" fill="#F79F1A"/>
<path fill-rule="evenodd" clip-rule="evenodd" d="M47.3144 20.2879C47.3144 28.6657 40.5357 35.4572 32.1738 35.4572C23.8119 35.4572 17.0332 28.6657 17.0332 20.2879C17.0332 11.9102 23.8119 5.11865 32.1738 5.11865C40.5357 5.11865 47.3144 11.9102 47.3144 20.2879Z" fill="#EA001B"/>
<path fill-rule="evenodd" clip-rule="evenodd" d="M41.5127 8.3457C37.9801 11.1227 35.7124 15.438 35.7124 20.2856C35.7124 25.1333 37.9801 29.4519 41.5127 32.2289C45.0454 29.4519 47.3131 25.1333 47.3131 20.2856C47.3131 15.438 45.0454 11.1227 41.5127 8.3457Z" fill="#FF5F01"/>
<path d="M65.9643 28.3368V27.7954H65.8229L65.6603 28.1677L65.4977 27.7954H65.3563V28.3368H65.4561V27.9285L65.6086 28.2805H65.7121L65.8645 27.9275V28.3368H65.9643ZM65.069 28.3368V27.8878H65.2501V27.7963H64.7891V27.8878H64.9701V28.3368H65.069Z" fill="#F79F1A"/>
<path d="M20.4007 42.9626H19.5415V38.9532H20.3838V39.4417C20.3838 39.4417 21.1236 38.8447 21.5631 38.8521C22.4174 38.8666 22.9276 39.5934 22.9276 39.5934C22.9276 39.5934 23.3415 38.8521 24.2753 38.8521C25.6563 38.8521 25.8589 40.1156 25.8589 40.1156V42.9458H25.0334V40.4525C25.0334 40.4525 25.0364 39.6944 24.1405 39.6944C23.2142 39.6944 23.1298 40.4525 23.1298 40.4525V42.9458H22.2706V40.4357C22.2706 40.4357 22.1881 39.6439 21.4114 39.6439C20.4028 39.6439 20.3838 40.4525 20.3838 40.4525L20.4007 42.9626Z" fill="black"/>
<path d="M46.5292 38.8521C46.0898 38.8447 45.35 39.4417 45.35 39.4417V38.9542H44.5068V42.9627H45.3665L45.35 40.4529C45.35 40.4529 45.3691 39.6459 46.3777 39.6459C46.565 39.6459 46.7105 39.6913 46.8257 39.7612V39.7579L47.1056 38.9773C46.9367 38.9062 46.7446 38.8558 46.5292 38.8521Z" fill="black"/>
<path d="M58.6308 38.8521C58.1914 38.8447 57.4516 39.4417 57.4516 39.4417V38.9542H56.6084V42.9627H57.4681L57.4516 40.4529C57.4516 40.4529 57.4706 39.6459 58.4793 39.6459C58.6666 39.6459 58.8121 39.6913 58.9272 39.7612V39.7579L59.2072 38.9773C59.0382 38.9062 58.8461 38.8558 58.6308 38.8521V38.8521Z" fill="black"/>
<path d="M28.6372 38.8335C27.3514 38.8335 26.6709 39.9891 26.6675 40.9547C26.664 41.9443 27.4421 43.0858 28.6734 43.0858C29.3917 43.0858 29.9818 42.5555 29.9818 42.5555L29.9803 42.9639H30.826V38.9505H29.9773V39.456C29.9773 39.456 29.4231 38.8335 28.6372 38.8335H28.6372ZM28.8019 39.6504C29.4927 39.6504 30.0535 40.2513 30.0535 40.9909C30.0535 41.7306 29.4927 42.3282 28.8019 42.3282C28.111 42.3282 27.5535 41.7306 27.5535 40.9909C27.5535 40.2513 28.111 39.6504 28.8019 39.6504Z" fill="black"/>
<path d="M53.2998 38.8335C52.014 38.8335 51.3335 39.9891 51.3301 40.9547C51.3266 41.9443 52.1047 43.0858 53.336 43.0858C54.0543 43.0858 54.6444 42.5555 54.6444 42.5555L54.6429 42.9639H55.4886V38.9505H54.6399V39.456C54.6399 39.456 54.0857 38.8335 53.2998 38.8335H53.2998ZM53.4645 39.6504C54.1553 39.6504 54.7161 40.2513 54.7161 40.9909C54.7161 41.7306 54.1553 42.3282 53.4645 42.3282C52.7736 42.3282 52.2161 41.7306 52.2161 40.9909C52.2161 40.2513 52.7736 39.6504 53.4645 39.6504Z" fill="black"/>
<path d="M61.4199 38.8355C60.1341 38.8355 59.4536 39.9911 59.4502 40.9567C59.4467 41.9463 60.2248 43.0877 61.4561 43.0877C62.1744 43.0877 62.7645 42.5574 62.7645 42.5574L62.763 42.9659H63.6087V37.3682H62.76V39.458C62.76 39.458 62.2058 38.8355 61.4199 38.8355H61.4199ZM61.5846 39.6523C62.2754 39.6523 62.8362 40.2532 62.8362 40.9929C62.8362 41.7326 62.2754 42.3302 61.5846 42.3302C60.8938 42.3302 60.3362 41.7326 60.3362 40.9929C60.3362 40.2532 60.8938 39.6523 61.5846 39.6523Z" fill="black"/>
<path d="M33.4063 43.0956C32.5303 43.0956 31.7217 42.5565 31.7217 42.5565L32.0923 41.9837C32.0923 41.9837 32.8574 42.3375 33.4063 42.3375C33.7629 42.3375 34.3594 42.2224 34.3665 41.8658C34.3742 41.489 33.3642 41.3773 33.3642 41.3773C33.3642 41.3773 31.8565 41.3567 31.8565 40.1138C31.8565 39.3321 32.6095 38.8335 33.5748 38.8335C34.1325 38.8335 35.1752 39.322 35.1752 39.322L34.754 39.979C34.754 39.979 33.949 39.6574 33.5242 39.6421C33.1656 39.6292 32.7325 39.8009 32.7325 40.1138C32.7325 40.9639 35.2426 40.0476 35.2426 41.7647C35.2426 42.8913 34.2203 43.0956 33.4063 43.0956V43.0956Z" fill="black"/>
<path d="M36.6378 37.792V38.958H35.8901V39.8012H36.6378V41.817C36.6378 41.817 36.5717 43.1806 38.0377 43.1806C38.443 43.1806 39.2366 42.8809 39.2366 42.8809L38.8974 42.0047C38.8974 42.0047 38.5818 42.2739 38.2254 42.2649C37.5479 42.2478 37.5667 41.8137 37.5667 41.8137V39.8012H38.9632V38.958H37.5667V37.792H36.6378Z" fill="black"/>
<path d="M41.726 38.8857C40.3473 38.8857 39.6584 40.0213 39.6641 41.0069C39.6699 42.0205 40.2914 43.1611 41.8083 43.1611C42.4576 43.1611 43.3696 42.5912 43.3696 42.5912L42.9776 41.9094C42.9776 41.9094 42.3553 42.3508 41.8083 42.3508C40.7132 42.3508 40.6423 41.2803 40.6423 41.2803H43.5738C43.5738 41.2803 43.7925 38.8857 41.726 38.8857ZM41.6008 39.673C41.6333 39.6711 41.6682 39.673 41.7029 39.673C42.7346 39.673 42.7273 40.6479 42.7273 40.6479H40.6423C40.6423 40.6479 40.593 39.7302 41.6008 39.673Z" fill="black"/>
<path d="M50.4457 41.8982L50.8388 42.6844C50.8388 42.6844 50.2157 43.0895 49.5165 43.0895C48.0689 43.0895 47.2651 42 47.2651 40.9691C47.2651 39.3489 48.5443 38.8726 49.4093 38.8726C50.1945 38.8726 50.8745 39.3252 50.8745 39.3252L50.4338 40.1114C50.4338 40.1114 50.1666 39.6945 49.3855 39.6945C48.6057 39.6945 48.1943 40.3668 48.1943 41.0048C48.1943 41.7198 48.6732 42.3271 49.3974 42.3271C49.9655 42.3271 50.4457 41.8982 50.4457 41.8982V41.8982Z" fill="black"/>
<path d="M65.3821 42.4131C65.2631 42.416 65.165 42.4555 65.0879 42.5315C65.0109 42.6076 64.971 42.7027 64.9683 42.817C64.971 42.9304 65.0109 43.0254 65.0879 43.1018C65.165 43.1782 65.2631 43.2179 65.3821 43.2209C65.4984 43.2179 65.5952 43.1782 65.6725 43.1018C65.7499 43.0254 65.79 42.9304 65.793 42.817C65.7901 42.7027 65.7501 42.6076 65.6729 42.5315C65.5958 42.4555 65.4988 42.416 65.3821 42.4131ZM65.3821 43.1318C65.2914 43.1296 65.2166 43.0989 65.1577 43.0398C65.0988 42.9806 65.0684 42.9064 65.0663 42.817C65.0684 42.7273 65.0988 42.6531 65.1577 42.5944C65.2166 42.5357 65.2914 42.5053 65.3821 42.5032C65.4709 42.5053 65.5445 42.5357 65.603 42.5944C65.6615 42.6531 65.6918 42.7273 65.694 42.817C65.6918 42.9064 65.6615 42.9806 65.603 43.0398C65.5445 43.0989 65.4709 43.1296 65.3821 43.1318V43.1318ZM65.4059 42.6279H65.2326V43.0031H65.3128V42.8626H65.3494L65.4633 43.0031H65.5593L65.4365 42.8616C65.4749 42.8568 65.5044 42.8443 65.525 42.8243C65.5457 42.8043 65.5561 42.7788 65.5563 42.7477C65.5561 42.7107 65.543 42.6815 65.5171 42.6603C65.4912 42.6391 65.4541 42.6283 65.4059 42.6279V42.6279ZM65.4049 42.6982C65.4264 42.6982 65.4432 42.7024 65.4555 42.7107C65.4677 42.719 65.4739 42.7314 65.4742 42.7477C65.4739 42.7645 65.4677 42.7772 65.4555 42.7856C65.4432 42.794 65.4264 42.7982 65.4049 42.7982H65.3128V42.6982L65.4049 42.6982Z" fill="black"/>
</g>
<defs>
<clipPath id="clip0">
<rect width="48.9594" height="38.1003" fill="white" transform="translate(17.0332 5.11865)"/>
</clipPath>
</defs>
</svg>
