 <svg
                width="24"
                height="24"
                viewBox="0 0 24 24"
                fill="none"
                xmlns="http://www.w3.org/2000/svg"
              >
                <path
                  d="M23.1849 0.902184C23.1849 0.902184 25.0188 2.29664 23.1849 2.55768C23.1849 2.55768 16.3285 3.42921 11.2258 8.66013C11.2258 8.66013 3.57141 15.9802 0.701588 24C0.701588 24 -0.25424 24 0.0654068 22.4312C0.383498 20.8616 2.29671 13.9769 10.8268 5.5209C10.8261 5.52175 19.0396 -2.67069 23.1849 0.902184ZM1.41943 1.94803C1.49876 3.86625 3.01378 11.1872 3.01378 11.1872C3.57141 12.6692 4.05049 11.1872 4.05049 11.1872C5.88359 5.17313 2.13728 1.68784 2.13728 1.68784C1.17989 1.07734 1.41943 1.94803 1.41943 1.94803Z"
                  fill="#FD510E"
                />
              </svg>