<svg
                width="24"
                height="24"
                viewBox="0 0 24 24"
                fill="none"
                xmlns="http://www.w3.org/2000/svg"
              >
                <path
                  d="M11.7461 12.744C14.9601 12.706 17.3851 11.427 18.4073 8.45062C19.4344 5.5598 19.1729 2.88769 16.3153 1.7798C14.4658 1.06186 13.8571 1.23778 6.61579 1.23778C6.14507 1.23778 5.73618 1.58489 5.66479 2.04131L2.87863 19.7239C2.8311 20.071 3.09257 20.3848 3.45388 20.3848H7.00086C7.09597 20.3848 7.12921 20.3516 7.1435 20.266C7.33841 19.063 7.9994 14.8076 8.16575 13.8947C8.44161 12.4112 9.68258 12.7774 11.7461 12.744Z"
                  fill="#002D8A"
                />
                <path
                  d="M19.8478 7.05312C19.7622 6.9913 19.7289 6.96748 19.7052 7.11486C19.6101 7.65697 19.4627 8.18469 19.2867 8.7125C17.3896 14.1233 12.1309 13.6526 9.5634 13.6526C9.27333 13.6526 9.08316 13.8095 9.0451 14.0995C7.97058 20.775 7.7566 22.1682 7.7566 22.1682C7.70902 22.5057 7.923 22.7815 8.2606 22.7815H11.2798C11.6887 22.7815 12.0263 22.4819 12.1072 22.0731C12.1404 21.8163 12.0549 22.3632 12.7918 17.7321C13.0105 16.6861 13.4717 16.7955 14.1849 16.7955C17.5608 16.7955 20.1948 15.4261 20.9793 11.456C21.2885 9.80131 21.1981 8.06108 19.8478 7.05312Z"
                  fill="#019BE1"
                />
              </svg>