<svg
                width="24"
                height="24"
                viewBox="0 0 24 24"
                fill="none"
                xmlns="http://www.w3.org/2000/svg"
              >
                <path
                  d="M21 1H3C1.89697 1 1 1.89697 1 3V21C1 22.103 1.89697 23 3 23H21C22.103 23 23 22.103 23 21V3C23 1.89697 22.103 1 21 1Z"
                  fill="#970E76"
                />
                <path
                  opacity="0.2"
                  d="M21 1H3C1.89697 1 1 1.89697 1 3V3.25C1 2.14697 1.89697 1.25 3 1.25H21C22.103 1.25 23 2.14697 23 3.25V3C23 1.89697 22.103 1 21 1Z"
                  fill="white"
                />
                <path
                  opacity="0.1"
                  d="M21 22.75H3C1.89697 22.75 1 21.853 1 20.75V21C1 22.103 1.89697 23 3 23H21C22.103 23 23 22.103 23 21V20.75C23 21.853 22.103 22.75 21 22.75Z"
                  fill="black"
                />
                <path
                  d="M13.5 10C11 10 11 9.24756 11 9C11 8.75244 11 8 12.5 8C14.041 8 16.8071 8.9624 16.835 8.97168L17.5 9.20459V5.17773L17.2061 5.04443C17.1118 5.00195 14.8667 4 12 4C9.09131 4 6 5.75244 6 9C6 12.6426 9.37354 14 11.5 14C13 14 13 14.6753 13 15C13 15.5796 12.3691 16 11.5 16C10.6128 16 7.68066 15.2896 6.62549 15.0161L6 14.8535V18.8047L6.27051 18.9443C6.354 18.9873 8.35205 20 11.5 20C15.4487 20 18 18.0376 18 15C18 11.7173 15.7363 10 13.5 10Z"
                  fill="#F2F2F2"
                />
                <path
                  d="M17.5 5.17773V9.20459L16.835 8.97168C16.8071 8.9624 14.041 8 12.5 8C11 8 11 8.75244 11 9C11 9.24756 11 10 13.5 10C15.7363 10 18 11.7173 18 15C18 18.0376 15.4487 20 11.5 20C8.35205 20 6.354 18.9873 6.27051 18.9443L6 18.8047L10.1953 23H21C22.103 23 23 22.103 23 21V10.6777L17.5 5.17773Z"
                  fill="url(#paint0_linear)"
                />
                <path
                  d="M21 1H3C1.89697 1 1 1.89697 1 3V21C1 22.103 1.89697 23 3 23H21C22.103 23 23 22.103 23 21V3C23 1.89697 22.103 1 21 1Z"
                  fill="url(#paint1_linear)"
                />
                <defs>
                  <linearGradient
                    id="paint0_linear"
                    x1="9.67509"
                    y1="9.91627"
                    x2="22.293"
                    y2="22.5342"
                    gradientUnits="userSpaceOnUse"
                  >
                    <stop stop-opacity="0.1" />
                    <stop offset="1" stop-opacity="0" />
                  </linearGradient>
                  <linearGradient
                    id="paint1_linear"
                    x1="-0.652331"
                    y1="6.10012"
                    x2="24.6523"
                    y2="17.8999"
                    gradientUnits="userSpaceOnUse"
                  >
                    <stop stop-color="white" stop-opacity="0.2" />
                    <stop offset="1" stop-color="white" stop-opacity="0" />
                  </linearGradient>
                </defs>
              </svg>