<svg
                width="24"
                height="24"
                viewBox="0 0 24 24"
                fill="none"
                xmlns="http://www.w3.org/2000/svg"
              >
                <rect width="24" height="24" rx="5" fill="#6772E5" />
                <path
                  d="M10.7811 8.12126C10.7811 7.38425 11.3858 7.10079 12.3874 7.10079C13.8236 7.10079 15.6378 7.53543 17.074 8.31024V3.86929C15.5055 3.24567 13.9559 3 12.3874 3C8.55118 3 6 5.00315 6 8.34803C6 13.5638 13.1811 12.7323 13.1811 14.9811C13.1811 15.8504 12.4252 16.1339 11.3669 16.1339C9.79842 16.1339 7.79528 15.4913 6.20787 14.622V19.1197C7.96535 19.8756 9.74173 20.1968 11.3669 20.1968C15.2976 20.1968 18 18.2504 18 14.8677C17.9811 9.23622 10.7811 10.2378 10.7811 8.12126Z"
                  fill="white"
                />
              </svg>