<svg width="82" height="48" viewBox="0 0 82 48" fill="none" xmlns="http://www.w3.org/2000/svg">
<g clip-path="url(#clip0)">
<g clip-path="url(#clip1)">
<path d="M28.4747 10.8838H39.257C40.7626 10.8838 41.6986 12.1089 41.3465 13.6187L36.3272 35.1687C35.9737 36.6783 34.4669 37.9027 32.9618 37.9027H22.1795C20.6728 37.9027 19.7374 36.6783 20.0907 35.1687L25.111 13.6187C25.4629 12.1089 26.9679 10.8838 28.4747 10.8838Z" fill="#ED1C24"/>
<path d="M38.331 10.8838H49.1125C50.6191 10.8838 51.5548 12.1089 51.2013 13.6187L46.181 35.1687C45.8275 36.6783 44.3224 37.9027 42.8141 37.9027H32.0343C30.526 37.9027 29.592 36.6783 29.9453 35.1687L34.9643 13.6187C35.3176 12.1089 36.8244 10.8838 38.331 10.8838Z" fill="#00569E"/>
<path d="M50.2664 10.8838H61.0469C62.5537 10.8838 63.4893 12.1089 63.1359 13.6187L58.1173 35.1687C57.7638 36.6783 56.2572 37.9027 54.7502 37.9027H43.9682C42.4614 37.9027 41.5258 36.6783 41.8794 35.1687L46.898 13.6187C47.2513 12.1089 48.7581 10.8838 50.2664 10.8838Z" fill="#00898E"/>
<path fill-rule="evenodd" clip-rule="evenodd" d="M51.8753 26.7802L50.8576 31.1271H51.2095L50.9967 32.0294H50.6446L50.58 32.3048H49.3304L49.3951 32.0294H46.855L47.0538 31.1973L47.3125 31.1933L48.3459 26.7802L48.5511 25.8882H49.8273L49.7265 26.3403C49.7265 26.3403 50.0482 26.0934 50.3638 26.0106C50.681 25.9277 52.5284 25.8954 52.5284 25.8954L52.3139 26.7802H51.8753ZM49.627 26.7802L49.3665 27.8926C49.3665 27.8926 49.7327 27.7207 49.9363 27.6655C50.1413 27.611 50.4538 27.5898 50.4538 27.5898L50.6416 26.7802H49.627ZM49.2358 28.4465L48.9659 29.5992C48.9659 29.5992 49.3382 29.4011 49.5436 29.3457C49.7471 29.2907 50.0607 29.2559 50.0607 29.2559L50.2535 28.4465H49.2358ZM48.6063 31.1404H49.6223L49.8512 30.1613H48.835L48.6063 31.1404Z" fill="white"/>
<path fill-rule="evenodd" clip-rule="evenodd" d="M52.6001 25.8882H53.9601L53.976 26.3944C53.968 26.4764 54.0407 26.5177 54.1999 26.5205H54.4286L54.2236 27.3585H53.4885C52.8511 27.4042 52.6096 27.1296 52.6254 26.8228L52.6001 25.8882Z" fill="white"/>
<path fill-rule="evenodd" clip-rule="evenodd" d="M52.8065 29.8881H51.508L51.6816 29.1418H53.1631L53.3288 28.4588H51.8647L52.0618 27.6201H56.1356L55.9368 28.4588H54.5688L54.4033 29.1418H55.7728L55.5976 29.8881H54.1177L53.8731 30.203H54.4743L54.6873 31.1431C54.7043 31.2356 54.7139 31.2965 54.7455 31.3349C54.7771 31.3682 54.96 31.3848 55.0642 31.3848H55.2458L55.0313 32.302H54.5688C54.4979 32.302 54.3907 32.299 54.2456 32.2861C54.1049 32.2753 53.9995 32.1948 53.903 32.1505C53.8147 32.1096 53.6806 32.0047 53.638 31.8303L53.4313 30.8932L52.8224 31.8191C52.6251 32.1064 52.3507 32.3291 51.863 32.3291H50.9165L51.1074 31.5163H51.4703C51.5744 31.5163 51.6657 31.4739 51.7304 31.44C51.7968 31.409 51.8553 31.3737 51.92 31.2749L52.8065 29.8881Z" fill="white"/>
<path fill-rule="evenodd" clip-rule="evenodd" d="M38.4661 27.8198H41.9001L41.7031 28.6404H40.3239L40.156 29.3393H41.5578L41.3543 30.188H39.9523L39.6803 31.3199C39.6487 31.4472 40.0234 31.4644 40.1592 31.4644L40.8555 31.3714L40.6317 32.3039H39.0468C38.9204 32.3039 38.8236 32.2895 38.684 32.2549C38.5482 32.2225 38.4859 32.1618 38.4205 32.0703C38.3581 31.9819 38.265 31.9046 38.3123 31.7077L38.6738 30.2024H37.8926L38.1001 29.3393H38.8828L39.0491 28.6404H38.2697L38.4661 27.8198Z" fill="white"/>
<path fill-rule="evenodd" clip-rule="evenodd" d="M40.6784 26.3582H42.0889L41.8837 27.2126H39.9581L39.7593 27.3965C39.678 27.4816 39.6426 27.446 39.5314 27.5069C39.4242 27.5637 39.2025 27.6709 38.9057 27.6709H38.2891L38.4869 26.8472H38.6717C38.8293 26.8472 38.936 26.8332 38.9887 26.7978C39.0455 26.7623 39.1094 26.673 39.1788 26.5317L39.4926 25.8882H40.8962L40.6784 26.3582Z" fill="white"/>
<path fill-rule="evenodd" clip-rule="evenodd" d="M42.6735 25.8897H43.8757L43.7369 26.4954C43.7369 26.4954 44.0982 26.1918 44.3585 26.09C44.6172 25.9873 45.2104 25.9007 45.2104 25.9007L47.1509 25.8882L46.6272 28.0935C46.5373 28.4709 46.4236 28.7153 46.3512 28.828C46.2818 28.9385 46.2046 29.0372 46.0402 29.1303C45.8794 29.2154 45.7342 29.2644 45.5985 29.2784C45.4677 29.2895 45.2721 29.2935 45.0004 29.2965H43.1293L42.7113 31.0424C42.6688 31.2151 42.6512 31.2962 42.686 31.342C42.7178 31.3846 42.784 31.4322 42.8721 31.4322L43.6911 31.3532L43.4687 32.3099H42.5426C42.2507 32.3099 42.0345 32.3061 41.8862 32.2919C41.7427 32.2808 41.5944 32.2919 41.4919 32.2129C41.3986 32.1389 41.263 32.0411 41.2598 31.9386C41.263 31.8431 41.2914 31.6863 41.3386 31.4714L42.6735 25.8897ZM45.3619 28.1206H43.3944L43.2981 28.5165H45.0021C45.2026 28.4958 45.245 28.521 45.2609 28.514L45.3619 28.1206ZM43.4795 27.7623C43.4795 27.7623 43.8407 27.4105 44.4943 27.2953C44.6426 27.2684 45.5813 27.2764 45.5813 27.2764L45.6931 26.8046H43.7083L43.4795 27.7623Z" fill="white"/>
<path fill-rule="evenodd" clip-rule="evenodd" d="M46.3739 29.4531L46.2983 29.9841C46.257 30.1473 46.2272 30.2727 46.1089 30.3815C45.9843 30.4935 45.836 30.6088 45.4762 30.6088L44.8136 30.6348L44.842 31.2327C44.8469 31.4063 44.8895 31.3883 44.9178 31.4156C44.9492 31.4447 44.9791 31.4578 45.0094 31.4655L45.2207 31.4578L45.8519 31.419L45.6449 32.2968H44.9161C44.4018 32.2968 44.0232 32.2811 43.8923 32.1881C43.7644 32.1037 43.7408 32.0067 43.7345 31.8434L43.6367 29.5059H44.8027L44.8166 29.9841H45.096C45.1938 29.9841 45.257 29.9744 45.2965 29.9493C45.3296 29.9239 45.3516 29.8846 45.3675 29.8248L45.4558 29.4531H46.3739Z" fill="white"/>
<path d="M29.7501 17.7685C29.7093 17.9616 28.9598 21.4122 28.9581 21.4137C28.7972 22.1096 28.6805 22.6114 28.2846 22.9331C28.0542 23.1178 27.7939 23.2084 27.4878 23.2084C26.997 23.2084 26.7099 22.9632 26.6595 22.5L26.6499 22.343C26.6499 22.343 26.7999 21.4074 26.8014 21.4027C26.8014 21.4027 27.5887 18.2567 27.7275 17.8387C27.7322 17.8166 27.7354 17.8041 27.7402 17.7897C26.2113 17.8088 25.9385 17.7944 25.9196 17.7676C25.9116 17.8009 25.8706 17.9965 25.8706 17.9965L25.0692 21.544L24.9997 21.8444L24.8687 22.8259C24.8687 23.1185 24.9256 23.3574 25.0408 23.5564C25.4051 24.1969 26.4481 24.2931 27.0365 24.2931C27.7954 24.2931 28.507 24.1275 28.9897 23.838C29.8227 23.3417 30.0437 22.5671 30.2393 21.8839L30.3293 21.5321C30.3293 21.5321 31.1385 18.263 31.2775 17.8379C31.2822 17.8151 31.2853 17.8041 31.2885 17.7897C30.1825 17.8064 29.8543 17.7929 29.7501 17.7685Z" fill="white"/>
<path d="M34.1954 24.2626C33.651 24.2564 33.4634 24.2564 32.8291 24.2847L32.8038 24.2422C32.859 23.9974 32.9205 23.761 32.9757 23.5164L33.0514 23.189C33.1698 22.6722 33.285 22.0798 33.2977 21.8976C33.3101 21.7872 33.3449 21.5142 33.0342 21.5142C32.9016 21.5142 32.7627 21.5774 32.6239 21.6404C32.5482 21.9118 32.3935 22.6802 32.3211 23.0288C32.1648 23.768 32.1537 23.8516 32.0844 24.2138L32.0385 24.2626C31.4801 24.2564 31.2858 24.2564 30.6438 24.2847L30.6138 24.2359C30.7212 23.7956 30.8285 23.3562 30.9295 22.9168C31.2007 21.7312 31.2639 21.2776 31.338 20.678L31.3885 20.6356C32.0165 20.5518 32.1663 20.5314 32.8478 20.3916L32.9033 20.454L32.8006 20.8374C32.9142 20.768 33.0262 20.6986 33.1446 20.6356C33.4633 20.4824 33.8197 20.4334 34.0138 20.4334C34.3106 20.4334 34.637 20.5172 34.7727 20.8594C34.9037 21.1654 34.8169 21.5426 34.6465 22.2888L34.5599 22.666C34.3847 23.4958 34.3562 23.649 34.2616 24.2138L34.1954 24.2626Z" fill="white"/>
<path d="M36.4077 24.2313C36.0796 24.2283 35.8696 24.2266 35.6646 24.229C35.461 24.2313 35.2622 24.2391 34.9577 24.2534L34.9403 24.2283L34.9214 24.2046C35.0035 23.8889 35.0476 23.7785 35.0903 23.668C35.1312 23.5568 35.1707 23.4448 35.2433 23.1268C35.3379 22.7143 35.3963 22.4209 35.4389 22.1692C35.4817 21.9193 35.5083 21.7108 35.5384 21.4704L35.5636 21.4498L35.5904 21.4277C35.9154 21.3829 36.1221 21.3528 36.3319 21.3187C36.5434 21.2849 36.7579 21.2463 37.0972 21.1831L37.1191 21.2399C37.056 21.4979 36.993 21.7574 36.9315 22.0156C36.8698 22.2734 36.8101 22.5329 36.7499 22.7909C36.627 23.3368 36.5797 23.5433 36.5513 23.6839C36.5228 23.8242 36.5148 23.9001 36.4677 24.1825L36.4376 24.2075L36.4077 24.2313Z" fill="white"/>
<path d="M41.2791 22.3822C41.4699 21.5467 41.3248 21.157 41.137 20.9196C40.8529 20.5582 40.3569 20.4399 39.8377 20.4399C39.5269 20.4399 38.7872 20.4746 38.208 21.0112C37.7947 21.3929 37.5991 21.915 37.4839 22.4168C37.3672 22.9256 37.2314 23.8517 38.0739 24.1853C38.3389 24.2975 38.7113 24.3323 38.9527 24.3323C39.5742 24.3323 40.2087 24.1587 40.6842 23.6499C41.0534 23.246 41.2208 22.633 41.2791 22.3822ZM39.8631 22.3197C39.8315 22.4593 39.71 22.988 39.5413 23.2105C39.4292 23.3712 39.2888 23.469 39.1373 23.469C39.0947 23.469 38.8265 23.469 38.8201 23.0716C38.8171 22.8766 38.8566 22.6748 38.9069 22.4521C39.0505 21.8251 39.2194 21.2966 39.6486 21.2966C39.9877 21.2966 40.0082 21.6863 39.8631 22.3197Z" fill="white"/>
<path d="M53.2331 23.2836C53.1211 23.4421 52.8577 23.5399 52.706 23.5399C52.6636 23.5399 52.3954 23.5399 52.3889 23.1456C52.3859 22.9515 52.4253 22.751 52.4758 22.5302C52.6191 21.9085 52.788 21.3832 53.2172 21.3832C53.4966 21.3832 53.6322 21.6571 53.5946 22.1028C53.5723 22.2028 53.5534 22.2934 53.5265 22.4118C53.4807 22.6061 53.4272 22.7969 53.3799 22.9901C53.3356 23.1038 53.2882 23.211 53.2331 23.2836ZM55.3789 20.4902C54.7004 20.6139 54.5222 20.6417 53.8719 20.7318L53.8216 20.7726C53.8136 20.8279 53.8074 20.8784 53.7996 20.9313C53.6984 20.7655 53.5564 20.6204 53.3277 20.5328C53.0373 20.4208 52.356 20.5676 51.7768 21.0993C51.3635 21.4795 51.1678 21.9978 51.0528 22.4954C50.9361 23.0005 50.8002 23.9201 51.6427 24.2515C51.9077 24.3622 52.1525 24.3951 52.3938 24.3824C52.6524 24.3692 52.8892 24.2334 53.1117 24.0472C53.0909 24.1261 53.0722 24.2058 53.0515 24.2846L53.0896 24.3338C53.6969 24.3052 53.883 24.3052 54.5379 24.313L54.5979 24.264C54.6924 23.7039 54.7842 23.1582 55.0335 22.0799C55.1517 21.5678 55.2762 21.0566 55.4008 20.5455L55.3789 20.4902Z" fill="white"/>
<path d="M44.9891 24.2626C44.4447 24.2564 44.2586 24.2564 43.6228 24.2847L43.5975 24.2422C43.6542 23.9974 43.7142 23.761 43.7711 23.5164L43.8453 23.189C43.9635 22.6722 44.0789 22.0798 44.0929 21.8976C44.1038 21.7872 44.1386 21.5142 43.8277 21.5142C43.6968 21.5142 43.5581 21.5774 43.4191 21.6404C43.3436 21.9118 43.1889 22.6802 43.1148 23.0288C42.9602 23.768 42.9474 23.8516 42.8781 24.2138L42.8324 24.2626C42.2751 24.2564 42.0812 24.2564 41.4391 24.2847L41.4092 24.2359C41.5164 23.7956 41.6237 23.3562 41.7247 22.9168C41.9961 21.7312 42.0576 21.2776 42.1333 20.678L42.1838 20.6356C42.8102 20.5518 42.9616 20.5314 43.6417 20.3916L43.6968 20.454L43.596 20.8374C43.7079 20.768 43.8214 20.6986 43.9381 20.6356C44.2569 20.4824 44.6136 20.4334 44.8075 20.4334C45.1043 20.4334 45.4309 20.5172 45.5681 20.8594C45.6973 21.1654 45.6104 21.5426 45.4402 22.2888L45.3551 22.666C45.1782 23.4958 45.15 23.649 45.0553 24.2138L44.9891 24.2626Z" fill="white"/>
<path d="M50.2595 19.8029C50.1619 20.2334 49.8858 20.5964 49.5245 20.7747C49.2247 20.9238 48.8632 20.9364 48.4879 20.9364H48.2434L48.2653 20.8379C48.2653 20.8379 48.7104 18.8957 48.7087 18.9019L48.7214 18.8034L48.7308 18.7253L48.9077 18.7427C48.9077 18.7427 49.8273 18.8246 49.851 18.8293C50.2138 18.9681 50.367 19.3309 50.2595 19.8029ZM49.6728 17.7738C49.6713 17.7738 49.2215 17.7833 49.2215 17.7833C48.0493 17.795 47.5791 17.792 47.385 17.7676C47.3676 17.8512 47.336 18.005 47.336 18.0057C47.336 18.0057 46.9178 19.9527 46.9178 19.9542C46.9178 19.9542 45.913 24.0943 45.8657 24.2884C46.8879 24.274 47.3093 24.2733 47.4845 24.293C47.5253 24.0974 47.7637 22.9441 47.7654 22.9417C47.7654 22.9417 47.9687 22.092 47.9814 22.0653C47.9814 22.0653 48.0431 21.9753 48.1093 21.9407H48.2008C49.0828 21.9407 50.0814 21.9407 50.8624 21.3647C51.3926 20.9735 51.7569 20.3928 51.9194 19.686C51.9604 19.511 51.9922 19.3043 51.9922 19.096C51.9922 18.8293 51.9383 18.5586 51.7803 18.3451C51.3814 17.7905 50.5909 17.7833 49.6728 17.7738Z" fill="white"/>
<path d="M37.0184 20.9218C37.3767 20.6748 37.4223 20.3285 37.1177 20.1488C36.8134 19.9704 36.277 20.0264 35.9172 20.2734C35.5559 20.5227 35.5134 20.8689 35.8162 21.048C36.1207 21.2271 36.6587 21.171 37.0184 20.9218Z" fill="white"/>
<path fill-rule="evenodd" clip-rule="evenodd" d="M59.9206 20.5016L59.8672 20.4399C59.1997 20.578 59.0783 20.5994 58.4645 20.6815L58.4155 20.7231C58.414 20.7335 58.4124 20.7437 58.4109 20.7539L58.4077 20.746C57.9469 21.8047 57.9626 21.576 57.5906 22.4058C57.5891 22.368 57.5872 22.3396 57.5857 22.304L57.4926 20.5016L57.4357 20.4399C56.7337 20.578 56.7165 20.5994 56.0696 20.6815L56.0174 20.7231C56.0144 20.7477 56.0112 20.7713 56.0079 20.7967L56.0144 20.8029C56.0932 21.2194 56.0758 21.1279 56.1564 21.7795C56.1925 22.0982 56.2432 22.4224 56.2794 22.7404C56.3456 23.2657 56.3802 23.5322 56.4576 24.334C56.0206 25.0596 55.9166 25.3326 55.4999 25.9683V25.9698L55.2018 26.4416C55.1687 26.4921 55.1371 26.5235 55.096 26.5394C55.0487 26.5598 54.9841 26.5679 54.8987 26.5679H54.6716L54.4824 27.4164L55.3281 27.404C55.8186 27.4 56.1294 27.1579 56.2983 26.8518L56.8158 25.9488L59.9206 20.5016Z" fill="white"/>
</g>
</g>
<defs>
<clipPath id="clip0">
<rect x="0.516602" y="0.748047" width="81.3076" height="47.2108" rx="4.37137" fill="white"/>
</clipPath>
<clipPath id="clip1">
<rect width="50.7079" height="50.7079" fill="white" transform="translate(16.2534 -1.00146)"/>
</clipPath>
</defs>
</svg>
