 <svg
                width="24"
                height="24"
                viewBox="0 0 24 24"
                fill="none"
                xmlns="http://www.w3.org/2000/svg"
              >
                <g clip-path="url(#clip0)">
                  <path
                    d="M23.8805 5.76035C22.5395 14.4194 15.0466 21.7508 12.7932 23.4255C10.5388 25.1001 8.48303 22.7547 7.73715 20.981C6.88354 18.9596 4.32565 7.99538 3.65524 7.08756C2.98537 6.17885 0.974944 7.99508 0.974944 7.99508L0 6.53046C0 6.53046 4.08191 0.943488 7.18861 0.245079C10.482 -0.49563 10.4772 6.04055 11.2689 9.67C12.0351 13.1803 12.5508 15.1895 13.2188 15.1895C13.8892 15.1895 15.1684 13.2319 16.5687 10.2301C17.9725 7.22527 16.5087 4.57293 13.7674 6.45966C14.8636 -1.08154 25.2211 -2.89506 23.8805 5.76035Z"
                    fill="#008CFF"
                  />
                </g>
                <defs>
                  <clipPath id="clip0">
                    <rect width="24" height="24" fill="white" />
                  </clipPath>
                </defs>
              </svg>