<svg width="82" height="48" viewBox="0 0 82 48" fill="none" xmlns="http://www.w3.org/2000/svg">
<g clip-path="url(#clip0)">
<g clip-path="url(#clip1)">
<path d="M31.1235 32.2194L33.9212 16.4824H38.2926L35.5823 32.2194H31.1235Z" fill="#3C58BF"/>
<path d="M31.1235 32.2194L34.7081 16.4824H38.2926L35.5823 32.2194H31.1235Z" fill="#293688"/>
<path d="M51.4072 16.6574C50.5329 16.3077 49.1341 15.958 47.3855 15.958C43.0141 15.958 39.8667 18.1437 39.8667 21.2911C39.8667 23.6516 42.0524 24.8756 43.801 25.6625C45.5495 26.4493 46.0741 26.9739 46.0741 27.6733C46.0741 28.7224 44.6753 29.247 43.4513 29.247C41.7027 29.247 40.741 28.9847 39.2547 28.3727L38.6428 28.1104L38.0308 31.695C39.0799 32.1321 41.0033 32.5692 43.0141 32.5692C47.6478 32.5692 50.7077 30.3835 50.7077 27.0613C50.7077 25.2253 49.5712 23.8265 46.9484 22.6899C45.3747 21.9031 44.413 21.4659 44.413 20.6791C44.413 19.9797 45.1998 19.2803 46.9484 19.2803C48.4346 19.2803 49.4838 19.5425 50.2706 19.8922L50.7077 20.0671L51.4072 16.6574Z" fill="#3C58BF"/>
<path d="M51.4072 16.6574C50.5329 16.3077 49.1341 15.958 47.3855 15.958C43.0141 15.958 40.6536 18.1437 40.6536 21.2911C40.6536 23.6516 42.0524 24.8756 43.801 25.6625C45.5495 26.4493 46.0741 26.9739 46.0741 27.6733C46.0741 28.7224 44.6753 29.247 43.4513 29.247C41.7027 29.247 40.741 28.9847 39.2547 28.3727L38.6428 28.1104L38.0308 31.695C39.0799 32.1321 41.0033 32.5692 43.0141 32.5692C47.6478 32.5692 50.7077 30.3835 50.7077 27.0613C50.7077 25.2253 49.5712 23.8265 46.9484 22.6899C45.3747 21.9031 44.413 21.4659 44.413 20.6791C44.413 19.9797 45.1998 19.2803 46.9484 19.2803C48.4346 19.2803 49.4838 19.5425 50.2706 19.8922L50.7077 20.0671L51.4072 16.6574Z" fill="#293688"/>
<path d="M58.9259 16.4824C57.8768 16.4824 57.0899 16.5698 56.6528 17.619L50.0957 32.2194H54.8168L55.6911 29.5965H61.2864L61.811 32.2194H66.0075L62.3356 16.4824H58.9259ZM56.915 26.9737C57.1773 26.1869 58.6636 22.3401 58.6636 22.3401C58.6636 22.3401 59.0133 21.3784 59.2756 20.7664L59.5379 22.2526C59.5379 22.2526 60.4121 26.1869 60.587 27.0611H56.915V26.9737Z" fill="#3C58BF"/>
<path d="M59.975 16.4824C58.9259 16.4824 58.139 16.5698 57.7019 17.619L50.0957 32.2194H54.8168L55.6911 29.5965H61.2864L61.811 32.2194H66.0075L62.3356 16.4824H59.975ZM56.915 26.9737C57.2648 26.0994 58.6636 22.3401 58.6636 22.3401C58.6636 22.3401 59.0133 21.3784 59.2756 20.7664L59.5379 22.2526C59.5379 22.2526 60.4121 26.1869 60.587 27.0611H56.915V26.9737Z" fill="#293688"/>
<path d="M23.0805 27.4987L22.6434 25.2256C21.8565 22.6028 19.3211 19.7177 16.5234 18.3189L20.4577 32.3073H25.1788L32.2604 16.5703H27.5393L23.0805 27.4987Z" fill="#3C58BF"/>
<path d="M23.0805 27.4987L22.6434 25.2256C21.8565 22.6028 19.3211 19.7177 16.5234 18.3189L20.4577 32.3073H25.1788L32.2604 16.5703H28.4136L23.0805 27.4987Z" fill="#293688"/>
<path d="M10.9282 16.4824L11.7151 16.6573C17.3104 17.9687 21.1572 21.2909 22.6435 25.2252L21.0698 17.7938C20.8075 16.7447 20.0207 16.4824 19.059 16.4824H10.9282Z" fill="#FFBC00"/>
<path d="M10.9282 16.4824C16.5236 17.7938 21.1572 21.2035 22.6435 25.1377L21.1572 18.9304C20.895 17.8813 20.0207 17.2693 19.059 17.2693L10.9282 16.4824Z" fill="#F7981D"/>
<path d="M10.9282 16.4824C16.5236 17.7938 21.1572 21.2035 22.6435 25.1377L21.5944 21.7281C21.3321 20.6789 20.9824 19.6298 19.7584 19.1927L10.9282 16.4824Z" fill="#ED7C00"/>
<path d="M27.4518 26.9742L24.4793 24.0017L23.0805 27.3239L22.7308 25.1382C21.9439 22.5154 19.4085 19.6303 16.6108 18.2314L20.5451 32.2198H25.2662L27.4518 26.9742Z" fill="#051244"/>
<path d="M35.5823 32.2184L31.823 28.3716L31.1235 32.2184H35.5823Z" fill="#051244"/>
<path d="M45.637 26.7983C45.9867 27.148 46.1615 27.4103 46.0741 27.76C46.0741 28.8092 44.6753 29.3337 43.4513 29.3337C41.7027 29.3337 40.741 29.0715 39.2547 28.4595L38.6428 28.1972L38.0308 31.7817C39.0799 32.2188 41.0033 32.656 43.0141 32.656C45.8118 32.656 48.0849 31.8691 49.3963 30.4703L45.637 26.7983Z" fill="#051244"/>
<path d="M50.708 32.2191H54.8171L55.6914 29.5963H61.2867L61.8113 32.2191H66.0078L64.5216 25.8369L59.2759 20.7661L59.5382 22.165C59.5382 22.165 60.4125 26.0992 60.5873 26.9735H56.9154C57.2651 26.0992 58.6639 22.3398 58.6639 22.3398C58.6639 22.3398 59.0136 21.3781 59.2759 20.7661" fill="#051244"/>
</g>
</g>
<defs>
<clipPath id="clip0">
<rect y="0.748047" width="81.3076" height="47.2108" rx="4.37137" fill="white"/>
</clipPath>
<clipPath id="clip1">
<rect width="55.9536" height="55.9536" fill="white" transform="translate(10.4917 -3.62354)"/>
</clipPath>
</defs>
</svg>
